<?xml version="1.0" encoding="utf-8"?>
<!-- Generator: Adobe Illustrator 26.1.0, SVG Export Plug-In . SVG Version: 6.00 Build 0)  -->
<svg version="1.1" id="Layer_1" xmlns="http://www.w3.org/2000/svg" xmlns:xlink="http://www.w3.org/1999/xlink" x="0px" y="0px"
	 viewBox="0 0 4700 6000" style="enable-background:new 0 0 4700 6000;" xml:space="preserve">
<rect x="-23.4" y="-25" style="fill:#F2F2E6;" width="4748.8" height="6073"/>
<path style="fill:#EF1F24;" d="M1121.4,3622L1121.4,3622l-0.1-365.9c0-243.8,197.7-441.5,441.5-441.5h981.7
	c107.6,0,194.9,87.3,194.9,194.9V3622h-748.1c84,298.3,168.1,596.7,252.1,895c49.7,176.3-82.4,351.5-265.6,352.3
	c-110.3,0.5-220.5,0.9-330.8,1.4C1471.8,4454.4,1296.6,4038.2,1121.4,3622z"/>
<path style="fill:#FEAC94;" d="M814.4,2370.8v382.6h-67c-211.3,0-382.6-171.3-382.6-382.6l0,0H814.4z"/>
<path style="fill:#2BCFB2;" d="M1580.5,2251H814.4v-652.5c0-211.6,171.5-383.1,383.1-383.1h383V2251z"/>
<rect x="2612" y="2197.1" style="fill:#2BCFB2;" width="728.3" height="1069.4"/>
<path style="fill:#2BCFB2;" d="M2011.1,3506.6v958.5h992c186.2,0,337.2-151,337.2-337.2v-621.3L2011.1,3506.6L2011.1,3506.6z"/>
<path style="fill:#EF1F24;" d="M885.4,2756.6c-2.1,72.5-4.3,145.1-6.4,217.6c-9.6,12.9-103.6,135.1-249.6,128
	c-34.3-1.7-64.1-10.1-88.1-20.2c-11.3-4.7-21.3-9.8-30-14.7c-6.1-3.4-11.5-6.8-16.2-9.9l-26.2-10.8l-28.7-11.8l-40.6-16.7
	l-28.7-11.8l-40.6-16.7l-28.7-11.8l-40.6-16.7l-28.7-11.8l-40.6-16.7l-23.2-9.6v-134.4c3.4-1.3,6.8-2.6,10.2-3.9
	c9.3-3.5,18.6-7,27.9-10.5c6.6-2.5,13.1-5,19.7-7.4c9.3-3.5,18.6-7,27.9-10.5c6.6-2.5,13.1-5,19.7-7.4c9.3-3.5,18.6-7,27.9-10.5
	c6.6-2.5,13.1-5,19.7-7.4c4.3-1.6,8.7-3.3,13-4.9c5.3-2,9.9-4.8,13.7-8c6.7-5.7,11.1-13,13.4-20.9c6.4-21.8-3.8-47.8-29.7-55.9
	c-39.1-12.2-78.2-24.3-117.3-36.5c-27.4-8.5-46.1-33.9-46.1-62.7V2027c68.2,32.4,119.3,92.3,140.5,164.8l36.9,125.8
	c17.7,60.4,55.9,112.7,108.1,147.9C597.8,2562.5,741.6,2659.6,885.4,2756.6z"/>
<rect x="814.4" y="2251" style="fill:#0086FF;" width="2059.8" height="653.4"/>
<g>
	<path d="M541.2,3082c-11.3-4.7-21.3-9.8-30-14.7l-162.9-349.4c6.7-5.7,11.1-13,13.4-20.9L541.2,3082z"/>
</g>
<g>
	<path d="M468.8,3046.6l-28.7-11.8l-138.3-296.6c6.6-2.5,13.1-5,19.7-7.4L468.8,3046.6z"/>
</g>
<g>
	<path d="M399.5,3018.1l-28.7-11.8l-116.6-250.1c6.6-2.5,13.1-5,19.7-7.4L399.5,3018.1z"/>
</g>
<g>
	<path d="M330.3,2989.6l-28.7-11.8l-94.9-203.6c6.6-2.5,13.1-5,19.7-7.4L330.3,2989.6z"/>
</g>
<g>
	<path d="M261,2961.1l-28.7-11.8l-63.8-136.7v-23.9c3.4-1.3,6.8-2.6,10.2-3.9L261,2961.1z"/>
</g>
<path style="fill:#FEAC94;" d="M814.4,568.1v382.6h-67c-211.3,0-382.6-171.3-382.6-382.6l0,0H814.4z"/>
<path style="fill:#EF1F24;" d="M885.4,953.9c-2.1,72.5-4.3,145.1-6.4,217.6c-9.6,12.9-103.6,135.1-249.6,128
	c-34.3-1.7-64.1-10.1-88.1-20.2c-11.3-4.7-21.3-9.8-30-14.7c-6.1-3.4-11.5-6.8-16.2-9.9l-26.2-10.8l-28.7-11.8l-40.6-16.7
	l-28.7-11.8l-40.6-16.7l-28.7-11.8l-40.6-16.7l-28.7-11.8l-40.6-16.7l-23.2-9.6V985.9c3.4-1.3,6.8-2.6,10.2-3.9
	c9.3-3.5,18.6-7,27.9-10.5c6.6-2.5,13.1-5,19.7-7.5c9.3-3.5,18.6-7,27.9-10.5c6.6-2.5,13.1-5,19.7-7.4c9.3-3.5,18.6-7,27.9-10.5
	c6.6-2.5,13.1-5,19.7-7.5c4.3-1.6,8.7-3.3,13-4.9c5.3-2,9.9-4.8,13.7-8c6.7-5.7,11.1-13,13.4-20.9c6.4-21.8-3.8-47.8-29.7-55.9
	c-39.1-12.2-78.2-24.3-117.3-36.5c-27.4-8.5-46.1-33.9-46.1-62.7V224.3c68.2,32.4,119.3,92.3,140.5,164.8l37,125.8
	c17.7,60.4,55.9,112.7,108.1,147.9C597.8,759.8,741.6,856.8,885.4,953.9z"/>
<rect x="3562.2" y="4780.9" style="fill:#823C27;" width="229.3" height="349.6"/>
<path d="M4493.5,5709.2h-460.9c0,0,0,0-0.1,0c-117.8-10.1-235.7-20.2-353.5-30.2c0,0,0,0-0.1,0h-36c-90.4,0-168.6,63.2-187.5,151.6
	l0,0c-0.1,0.5,0.3,0.9,0.7,0.9c125.6,0.8,251.2,1.6,376.8,2.4c0.6,0,0.9-0.6,0.7-1.1c-7.8-15.9-15.5-31.8-23.3-47.7
	c-6.7-13.7,3.3-29.6,18.5-29.6h80.9c15.2,0,25.2,15.9,18.5,29.6c-4.3,8.9-8.7,17.8-13,26.7c-4.8,9.9,2.4,21.5,13.4,21.5h21
	c4.3-23.3,22.6-40.8,44.4-40.8c13.9,0,26.3,7.1,34.6,18.2c10.8,14.4,27.9,22.6,45.9,22.6l0,0c18,0,35.1-8.2,45.9-22.6
	c8.3-11.1,20.7-18.2,34.6-18.2s26.3,7.1,34.6,18.2c10.8,14.4,27.9,22.6,45.9,22.6l0,0c18,0,35.2-8.2,45.9-22.6
	c8.3-11.1,20.7-18.2,34.6-18.2s26.4,7.1,34.7,18.4c10.3,13.9,26.3,22.4,43.6,22.4h4.5c17.3,0,33.3-8.5,43.5-22.4
	c8.3-11.3,20.8-18.4,34.8-18.4c21.6,0,39.7,17.2,44.3,40.2c0.1,0.4,0.4,0.6,0.7,0.6h22.1c10.5,0,16.9-11.4,11.6-20.4
	c-20.6-34.4-41.1-68.8-61.7-103.2C4494,5709.4,4493.7,5709.2,4493.5,5709.2z"/>
<path style="fill:#2BCFB2;" d="M4532,5564.9c0,0.9,0,1.9,0,2.8c-0.3,17.9-2.1,34.8-5,50.5c-1.4,7.5-3,14.7-4.7,21.6
	c-8,31.4-19.6,57-29.4,75.4c-287.8,0.9-575.6,1.8-863.4,2.8c-111.2,0.4-201.5-89.7-201.5-200.9v-408.7c0-50.8,41.2-91.9,92-91.7
	c84.7,0.2,169.5,0.5,254.2,0.7c7,0,14,0,21,0.1c19.2,0.1,38.3,0.1,57.5,0.2c46.4,0.1,83.9,37.8,83.8,84.2
	c-0.1,51.4-0.3,102.8-0.4,154.1c0,6.5,0,13-0.1,19.5c22.6,0.6,45.1,1.2,67.7,1.8c85.1,2.2,170.1,4.5,255.2,6.7
	c145.9,3.8,265,118.6,272.8,263.3c0.2,3,0.3,6,0.4,9C4532,5559.2,4532,5562.1,4532,5564.9z"/>
<g>
	<path d="M3865.9,5275.7c-24.7-0.4-47.8-10.4-65-28c-17.3-17.6-26.8-40.9-26.8-65.5v-164.8c7,0,14,0,21,0.1v164.7
		c0,39.3,31.9,71.8,71.2,72.5c23.2,0,46.5,0.1,69.7,0.1c0,1.2,0,9.7,0,10.9c0,1,0,8.8,0,9.8
		C3912.6,5275.6,3889.2,5275.7,3865.9,5275.7z"/>
</g>
<circle style="fill:#FFFFFF;" cx="3615.5" cy="5598.7" r="61.3"/>
<g>
	<path style="fill:#EF1F24;" d="M4527,5618.3c-1.4,7.5-3,14.7-4.7,21.6c-71.6,16.2-139.9,24.4-203.9,24.4c-16.2,0-32.2-0.5-47.9-1.6
		c-71-4.8-137.9-20.5-198.7-46.9c-62.3-27-105.1-58.9-146.5-89.7c-48.7-36.3-94.8-70.6-169.5-95.6c-99.6-33.3-209.6-36.1-327.9-8.5
		v-20.5c120.2-27.3,232.4-24,334.2,10.1c77.7,26,127.2,62.8,175.1,98.5c40.5,30.2,82.4,61.4,142.5,87.4
		C4205.1,5651.8,4355.4,5658.7,4527,5618.3z"/>
</g>
<g>
	<path style="fill:#EF1F24;" d="M4532,5564.9c0,0.9,0,1.9,0,2.8c-75.2,17.7-146.7,26.7-213.6,26.7c-16.2,0-32.2-0.5-47.9-1.6
		c-71-4.8-137.9-20.5-198.7-46.9c-62.3-27-105.1-58.9-146.5-89.7c-48.7-36.3-94.8-70.6-169.5-95.6c-99.6-33.3-209.6-36.1-327.9-8.5
		v-20.5c120.2-27.3,232.4-24,334.2,10.1c77.7,26,127.2,62.9,175.1,98.5c40.5,30.2,82.4,61.4,142.5,87.4
		c126.5,54.8,278.3,61.3,451.9,19.7c0.2,3,0.3,6,0.4,9C4532,5559.2,4532,5562.1,4532,5564.9z"/>
</g>
<path d="M1429.7,5709.5h460.9c0,0,0,0,0.1,0c117.8-10.1,235.7-20.2,353.5-30.2c0,0,0,0,0.1,0h36c90.4,0,168.6,63.2,187.5,151.6l0,0
	c0.1,0.5-0.3,0.9-0.7,0.9c-125.6,0.8-251.2,1.6-376.8,2.4c-0.6,0-0.9-0.6-0.7-1.1c7.8-15.9,15.5-31.8,23.3-47.7
	c6.7-13.7-3.3-29.6-18.5-29.6h-80.9c-15.2,0-25.2,15.9-18.5,29.6c4.3,8.9,8.7,17.8,13,26.7c4.8,9.9-2.4,21.5-13.4,21.5h-21
	c-4.3-23.3-22.6-40.8-44.4-40.8c-13.9,0-26.3,7.1-34.6,18.2c-10.8,14.4-27.9,22.6-45.9,22.6l0,0c-18,0-35.1-8.2-45.9-22.6
	c-8.3-11.1-20.7-18.2-34.6-18.2s-26.3,7.1-34.6,18.2c-10.8,14.4-27.9,22.6-45.9,22.6l0,0c-18,0-35.2-8.2-45.9-22.6
	c-8.3-11.1-20.7-18.2-34.6-18.2s-26.4,7.1-34.7,18.4c-10.3,13.9-26.3,22.4-43.6,22.4h-4.5c-17.3,0-33.3-8.5-43.5-22.4
	c-8.3-11.3-20.8-18.4-34.8-18.4c-21.6,0-39.7,17.2-44.3,40.2c-0.1,0.4-0.4,0.6-0.7,0.6H1379c-10.5,0-16.9-11.4-11.6-20.4
	c20.6-34.4,41.1-68.8,61.7-103.2C1429.1,5709.6,1429.4,5709.5,1429.7,5709.5z"/>
<path style="fill:#2BCFB2;" d="M1391.1,5565.2c0,0.9,0,1.9,0,2.8c0.3,17.9,2.1,34.8,5,50.5c1.4,7.5,3,14.7,4.7,21.6
	c8,31.4,19.6,57,29.4,75.4c287.8,0.9,575.6,1.8,863.4,2.8c111.2,0.4,201.5-89.7,201.5-200.9v-408.7c0-50.8-41.2-91.9-92-91.7
	c-84.7,0.2-169.5,0.5-254.2,0.7c-7,0-14,0-21,0.1c-19.2,0.1-38.3,0.1-57.5,0.2c-46.4,0.1-83.9,37.8-83.8,84.2
	c0.1,51.4,0.3,102.8,0.4,154.1c0,6.5,0,13,0.1,19.5c-22.6,0.6-45.1,1.2-67.7,1.8c-85.1,2.2-170.1,4.5-255.2,6.7
	c-145.9,3.8-265,118.6-272.8,263.3c-0.2,3-0.3,6-0.4,9C1391.1,5559.4,1391.1,5562.3,1391.1,5565.2z"/>
<g>
	<path style="fill:#421C35;" d="M2057.2,5276c24.7-0.4,47.8-10.4,65-28c17.3-17.6,26.8-40.9,26.8-65.5v-164.8c-7,0-14,0-21,0.1
		v164.7c0,39.3-31.9,71.8-71.2,72.5c-23.2,0-46.5,0.1-69.7,0.1c0,1.2,0,9.7,0,10.9c0,1,0,8.8,0,9.8
		C2010.6,5275.8,2033.9,5275.9,2057.2,5276z"/>
</g>
<circle style="fill:#FFFFFF;" cx="2307.7" cy="5599" r="61.3"/>
<g>
	<path style="fill:#EF1F24;" d="M1396.1,5618.5c1.4,7.5,3,14.7,4.7,21.6c71.6,16.2,139.9,24.4,203.9,24.4c16.2,0,32.2-0.5,47.9-1.6
		c71-4.8,137.9-20.5,198.7-46.9c62.3-27,105.1-58.9,146.5-89.7c48.7-36.3,94.8-70.6,169.5-95.6c99.6-33.3,209.6-36.1,327.9-8.5
		v-20.5c-120.2-27.3-232.4-24-334.2,10.1c-77.7,26-127.2,62.8-175.1,98.5c-40.5,30.2-82.4,61.4-142.5,87.4
		C1718.1,5652,1567.8,5659,1396.1,5618.5z"/>
</g>
<g>
	<path style="fill:#EF1F24;" d="M1391.1,5565.2c0,0.9,0,1.9,0,2.8c75.2,17.7,146.7,26.7,213.6,26.7c16.2,0,32.2-0.5,47.9-1.6
		c71-4.8,137.9-20.5,198.7-46.9c62.3-27,105.1-58.9,146.5-89.7c48.7-36.3,94.8-70.6,169.5-95.6c99.6-33.3,209.6-36.1,327.9-8.5
		v-20.5c-120.2-27.3-232.4-24-334.2,10.1c-77.7,26-127.2,62.9-175.1,98.5c-40.5,30.2-82.4,61.4-142.5,87.4
		c-126.5,54.8-278.3,61.3-451.9,19.7c-0.2,3-0.3,6-0.4,9C1391.1,5559.4,1391.1,5562.3,1391.1,5565.2z"/>
</g>
<path style="fill:#0086FF;" d="M2346.7,1101.7H814.4V448.3h1062.4c259.5,0,469.8,210.4,469.8,469.8L2346.7,1101.7L2346.7,1101.7z"/>
<path style="fill:#EF1F24;" d="M4528.1,3411.5c0.3-44.9,0.6-89.7,0.8-134.6c1.8-296.9-238.3-538.5-535.2-538.5H3109
	c-107.6,0-194.9,87.3-194.9,194.9v612.5h748.1c-106.1,449-212.2,898-318.3,1347c133.1,2.5,266.2,5,399.3,7.5
	c174.4,3.3,331.9-103.7,393-267c109.3-291.6,218.6-583.3,327.8-874.9C4505.7,3647.5,4527.3,3530,4528.1,3411.5z"/>
<circle cx="3918.1" cy="4052.8" r="40.5"/>
<path d="M3398.6,5577.7h-360.8c-38.2,0-69.1-30.9-69.1-69.1v-744c0-38.2,30.9-69.1,69.1-69.1h360.8c38.2,0,69.1,30.9,69.1,69.1v744
	C3467.7,5546.7,3436.8,5577.7,3398.6,5577.7z"/>
<path d="M1167.6,5666.6H247c-25.6,0-46.4-20.8-46.4-46.4v-441.9c0-25.6,20.8-46.4,46.4-46.4h920.6c25.6,0,46.4,20.8,46.4,46.4v441.9
	C1214,5645.8,1193.3,5666.6,1167.6,5666.6z"/>
<path style="fill:#FFFFFF;" d="M1124.9,5632H289.7c-25.6,0-46.4-20.8-46.4-46.4v-371.2c0-25.6,20.8-46.4,46.4-46.4H1125
	c25.6,0,46.4,20.8,46.4,46.4v371.2C1171.3,5611.2,1150.6,5632,1124.9,5632z"/>
<linearGradient id="SVGID_1_" gradientUnits="userSpaceOnUse" x1="2367.0054" y1="4971.7817" x2="2361.344" y2="3414.939" gradientTransform="matrix(1 0 0 -1 0 6000)">
	<stop  offset="0" style="stop-color:#FF723F"/>
	<stop  offset="4.808837e-02" style="stop-color:#FF763F"/>
	<stop  offset="0.6899" style="stop-color:#FFAE39"/>
	<stop  offset="1" style="stop-color:#FFC437"/>
</linearGradient>
<rect x="1642.4" y="1101.7" style="fill:url(#SVGID_1_);" width="1443.6" height="1395.9"/>
<linearGradient id="SVGID_00000018952162350570819780000008365412698884823226_" gradientUnits="userSpaceOnUse" x1="5552.3892" y1="1298.9349" x2="5547.7524" y2="23.7906" gradientTransform="matrix(0 -1 -1 0 2140.3079 9885.6914)">
	<stop  offset="8.984169e-02" style="stop-color:#EF1F24"/>
	<stop  offset="0.28" style="stop-color:#F33D51"/>
	<stop  offset="0.5158" style="stop-color:#F85F82"/>
	<stop  offset="0.7231" style="stop-color:#FB77A6"/>
	<stop  offset="0.8915" style="stop-color:#FD86BC"/>
	<stop  offset="1" style="stop-color:#FE8BC4"/>
</linearGradient>
<rect x="902" y="3613.8" style="fill:url(#SVGID_00000018952162350570819780000008365412698884823226_);" width="1142.3" height="1443.6"/>
<linearGradient id="SVGID_00000104678175903614008480000015072124706864967058_" gradientUnits="userSpaceOnUse" x1="1750.5469" y1="3569.6179" x2="2595.3469" y2="2398.4182" gradientTransform="matrix(1 0 0 -1 0 6000)">
	<stop  offset="0" style="stop-color:#0086FF"/>
	<stop  offset="0.2396" style="stop-color:#0083FC"/>
	<stop  offset="0.445" style="stop-color:#0078F1"/>
	<stop  offset="0.6376" style="stop-color:#0066DF"/>
	<stop  offset="0.8214" style="stop-color:#004EC7"/>
	<stop  offset="0.9944" style="stop-color:#002FA8"/>
</linearGradient>
<rect x="1732.8" y="2475.8" style="fill:url(#SVGID_00000104678175903614008480000015072124706864967058_);" width="1142.3" height="1443.6"/>
<path style="fill:#EF1F24;" d="M597,2028.2h48.9c14.8,0,26.8,12,26.8,26.8l0,0c0,14.8-12,26.8-26.8,26.8H597
	c-14.8,0-26.8-12-26.8-26.8l0,0C570.2,2040.2,582.2,2028.2,597,2028.2z"/>
<path style="fill:#EF1F24;" d="M541,1930.1h48.9c14.8,0,26.8,12,26.8,26.8l0,0c0,14.8-12,26.8-26.8,26.8H541
	c-14.8,0-26.8-12-26.8-26.8l0,0C514.2,1942.1,526.2,1930.1,541,1930.1z"/>
<rect x="1370.7" y="2995.4" style="fill:#6E3220;" width="229.3" height="349.6"/>
<path style="fill:#FE8BC4;" d="M1994.9,1781h-75v1400.4c0,61.4-49.8,111.1-111.1,111.1h-769.3c-145.4,0-263.2,117.9-263.2,263.2
	v106.9v113.9v1349.7c0,157.6,127.8,285.4,285.4,285.4h897.8v-326.4c0-91.7-74.4-166.1-166.1-166.1h-406.8
	c-65.1,0-117.8-52.7-117.8-117.8v-925c0-55.1,44.7-99.8,99.8-99.8h551.3l0,0h28.2v-0.8c254.2-14.6,455.8-225.4,455.8-483.2V2190.1
	C2403.9,1964.2,2220.8,1781,1994.9,1781z"/>
<circle style="fill:#FF4F17;" cx="2349.2" cy="5016.4" r="564.8"/>
<rect x="3218.2" y="1659.3" style="fill:#823C27;" width="449.5" height="229.3"/>
<rect x="1159.1" y="855.3" style="fill:#823C27;" width="229.3" height="360"/>
<rect x="2234.5" y="4209.7" style="fill:#ED9276;" width="229.3" height="349.6"/>
<circle style="fill:#FEAC94;" cx="2346.7" cy="4610.6" r="184.7"/>
<ellipse transform="matrix(0.7071 -0.7071 0.7071 0.7071 -967.0262 3881.1919)" style="fill:#FE8BC4;" cx="4201.5" cy="3107.9" rx="184.7" ry="184.7"/>
<circle style="fill:#823C27;" cx="1485.3" cy="2923.2" r="184.7"/>
<circle cx="1485.3" cy="2532.6" r="284.5"/>
<path style="fill:#0086FF;" d="M609.1,3783.1h167.1v1129.8H270.4v-791C270.4,3934.7,422,3783.1,609.1,3783.1z"/>
<path style="fill:#0086FF;" d="M3561,2738.5h-33.4h-187.3h-400.1c-21.8,0-43.1,2.1-63.7,6c-185.5,1.8-335.4,152.7-335.4,338.7v630.2
	c0,38.5-31.2,69.6-69.6,69.6H1268.8v505.9h1469.9c170.3,0,308.3-138,308.3-308.3v-106.4l0,0v-586c0-24.2,19.6-43.8,43.8-43.8h205.7
	c24.2,0,43.8,19.6,43.8,43.8v586h505.9v-850.6C3846.1,2866.1,3718.5,2738.5,3561,2738.5z"/>
<linearGradient id="SVGID_00000087388425118468875390000014958983117633085849_" gradientUnits="userSpaceOnUse" x1="1434.8" y1="4186.0498" x2="3294.6001" y2="4186.0498" gradientTransform="matrix(1 0 0 -1 0 6000)">
	<stop  offset="0" style="stop-color:#FFC437"/>
	<stop  offset="1" style="stop-color:#FFC437"/>
</linearGradient>
<path style="fill:url(#SVGID_00000087388425118468875390000014958983117633085849_);" d="M3294.6,1152.6L3294.6,1152.6v-10.3
	c0-139.7-113.2-252.9-252.9-252.9l0,0c-1.7,0-3.4,0-5.2,0.1c-1.7,0-3.4-0.1-5.2-0.1H1823.1c-214.4,0-388.3,173.8-388.3,388.3v1097
	c0,200.9,162.9,363.8,363.8,363.8h120.2V1509.8c0-75.3,61-136.3,136.3-136.3h616.1c64.9,0,117.4,52.6,117.4,117.4v928.9
	c0,139.7,113.2,252.9,252.9,252.9l0,0c139.7,0,252.9-113.2,252.9-252.9V1373.4l0,0v-220.8H3294.6z"/>
<path style="fill:#FE8BC4;" d="M1358.8,2197.1h1045.1l0,0c0-267.3-216.7-484-484-484h-561.1L1358.8,2197.1L1358.8,2197.1z"/>
<path style="fill:#FEAC94;" d="M523.9,5387.6c22.2,0.8,42.1-17,43.6-40.4c0-79,0-157.9,0-236.9c0-6.4,4.9-11.7,11-11.7
	s11,5.2,11,11.7V5476c0,24.6,18.8,44.6,42,44.6l0,0c23.2,0,42-20,42-44.6v-365.7c0-6.4,4.9-11.7,11-11.7s11,5.2,11,11.7v32.4v8.2
	c0,49.2,37.6,89.2,84.1,89.2l0,0c26.5,0,48-22.8,48-51c0-25.6-19.6-46.4-43.8-46.4h-4.3v-229.6h-18h-66.1h-22h-84.1h-22h-84.1h-22
	h-84.1h-24H269v185.5c0,54.9,0,109.8,0,164.6c1.1,21.5,16.8,38.7,35.8,41.5c22.4,3.2,45.5-14.3,48.3-39.9c0-51.2,0-102.3,0-153.5
	c0-7,5.4-12.7,12-12.7s12,5.7,12,12.7c0,63.6,0,127.2,0,190.8c-1.6,24.3,17.9,45.1,41.7,45.3c23.5,0.2,43.1-19.7,42.4-43.7
	c0-64.5,0-128.9,0-193.4c0-6.4,4.9-11.7,11-11.7s11,5.2,11,11.7c0,79.5,0,159,0,238.4C485.6,5370.3,503.3,5386.8,523.9,5387.6z"/>
<ellipse style="fill:#FFEC90;" cx="632.3" cy="5477" rx="28.7" ry="30.4"/>
<ellipse style="fill:#FFEC90;" cx="785.7" cy="5190.1" rx="28.7" ry="30.4"/>
<path style="fill:#BA5638;" d="M2425.9,1849.5c22.2,0.8,42.1-17,43.6-40.4c0-79,0-157.9,0-236.9c0-6.4,4.9-11.7,11-11.7
	s11,5.2,11,11.7v365.7c0,24.6,18.8,44.6,42,44.6l0,0c23.2,0,42-20,42-44.6v-365.7c0-6.4,4.9-11.7,11-11.7s11,5.2,11,11.7v32.4v8.2
	c0,49.2,37.6,89.2,84.1,89.2l0,0c26.5,0,48-22.8,48-51c0-25.6-19.6-46.4-43.8-46.4h-4.3V1375h-18h-66.1h-22h-84.1h-22h-84.1h-22
	h-84.1h-24H2171v185.5c0,54.9,0,109.8,0,164.6c1.1,21.4,16.8,38.7,35.8,41.5c22.4,3.2,45.5-14.3,48.3-39.9c0-51.2,0-102.3,0-153.5
	c0-7,5.4-12.7,12-12.7s12,5.7,12,12.7c0,63.6,0,127.2,0,190.8c-1.6,24.3,17.9,45.1,41.7,45.3c23.5,0.2,43.1-19.7,42.4-43.7
	c0-64.5,0-128.9,0-193.4c0-6.4,4.9-11.7,11-11.7s11,5.2,11,11.7c0,79.5,0,159,0,238.4C2387.5,1832.2,2405.2,1848.8,2425.9,1849.5z"
	/>
<ellipse style="fill:#2BCFB2;" cx="2534.2" cy="1938.9" rx="28.7" ry="30.4"/>
<ellipse style="fill:#2BCFB2;" cx="2687.7" cy="1652.1" rx="28.7" ry="30.4"/>
<path style="fill:#823C27;" d="M3427.9,5165.7c0.3-22.3-20.2-42.9-45.5-42.2c-5,0.1-10,0.3-15,0.3h-541.2c-8.6,0-15.6-4.8-15.6-10.8
	s7-10.8,15.6-10.8h484.4c2.8,0,5.7,0.1,8.5,0.3c24.8,1,45.2-18.4,45.9-40.2c0.7-22.9-20.7-44.4-47.1-42.7c-2.2,0.1-4.3,0.2-6.5,0.2
	h-485.3c-8.6,0-15.6-4.8-15.6-10.8s7-10.8,15.6-10.8h43.4c11.9-0.1,23.8-0.2,35.6-0.3c23.6-0.2,42.5-19.8,41.7-43.4
	c0-0.3,0-0.6,0-0.9c-0.7-22.9-19.6-41-42.4-40.8c-96.4,0.8-192.8,1.6-289.3,2.5c-29.3,0.2-53,24.1-53,53.4V5361
	c0,30.5,24.7,55.3,55.3,55.3h193.1h283.3c2.6,0,5.2,0.1,7.7,0.2c28.4,1.3,50.1-21.9,48.9-44.1c-1.2-20.6-22.2-40.2-48.4-38.9
	c-2.9,0.1-5.8,0.3-8.7,0.3h-265.7c-9.4,0-17.1-5.3-17.1-11.8s7.6-11.8,17.1-11.8H3302c1,0,2,0,3,0.1c27.5,1.2,48.7-21.7,47-44.6
	c-1.5-20.4-21.1-38.6-45.3-38.1c-3.1,0.1-6.2,0.2-9.2,0.2h-471.2c-8.6,0-15.6-4.8-15.6-10.8s7-10.8,15.6-10.8H3373
	c2.8,0,5.6,0.1,8.4,0.3C3406.7,5207.9,3427.6,5187.8,3427.9,5165.7z"/>
<path style="fill:#EF1F24;" d="M2953.7,4983.8h-51.4c-15.5,0-28.1-12.6-28.1-28.1l0,0c0-15.5,12.6-28.1,28.1-28.1h51.4
	c15.5,0,28.1,12.6,28.1,28.1l0,0C2981.9,4971.2,2969.3,4983.8,2953.7,4983.8z"/>
<path style="fill:#EF1F24;" d="M3374.8,5089.8h-51.4c-15.5,0-28.1-12.6-28.1-28.1l0,0c0-15.5,12.6-28.1,28.1-28.1h51.4
	c15.5,0,28.1,12.6,28.1,28.1l0,0C3402.9,5077.2,3390.3,5089.8,3374.8,5089.8z"/>
<path style="fill:#EF1F24;" d="M3433.7,5192.8h-51.4c-15.5,0-28.1-12.6-28.1-28.1l0,0c0-15.5,12.6-28.1,28.1-28.1h51.4
	c15.5,0,28.1,12.6,28.1,28.1l0,0C3461.8,5180.2,3449.2,5192.8,3433.7,5192.8z"/>
<path style="fill:#EF1F24;" d="M3365.9,5295.9h-51.4c-15.5,0-28.1-12.6-28.1-28.1l0,0c0-15.5,12.6-28.1,28.1-28.1h51.4
	c15.5,0,28.1,12.6,28.1,28.1l0,0C3394.1,5283.3,3381.5,5295.9,3365.9,5295.9z"/>
<path style="fill:#EF1F24;" d="M3161.8,5402.8h-51.4c-15.5,0-28.1-12.6-28.1-28.1l0,0c0-15.5,12.6-28.1,28.1-28.1h51.4
	c15.5,0,28.1,12.6,28.1,28.1l0,0C3189.9,5390.2,3177.3,5402.8,3161.8,5402.8z"/>
<path d="M1170,5822H244.6c-24.3,0-44-20.4-44-45.6v-69.9c0-25.2,19.7-45.6,44-45.6H1170c24.3,0,44,20.4,44,45.6v69.9
	C1214,5801.6,1194.3,5822,1170,5822z"/>
<path style="fill:#FFFFFF;" d="M984.7,5682.5h46.5c8.2,0,15.7,3.4,19.2,8.8l22.9,35l5.9-3.8l-22.9-35c-4.8-7.4-14.4-11.9-25.1-11.9
	h-46.5c-10.9,0-20.6,4.7-25.3,12.3l-20.5,33.1h-15.2l-21.8-33.5c-4.8-7.4-14.4-11.9-25.1-11.9h-46.5c-10.9,0-20.6,4.7-25.3,12.3
	l-20.5,33.1h-15.2l-21.8-33.5c-4.8-7.4-14.4-11.9-25.1-11.9H676c-10.9,0-20.6,4.7-25.3,12.3l-20.5,33.1H615l-21.8-33.5
	c-4.8-7.4-14.4-11.9-25.1-11.9h-46.5c-10.9,0-20.6,4.7-25.3,12.3l-20.5,33.1h-15.2l-21.8-33.5c-4.8-7.4-14.4-11.9-25.1-11.9h-46.5
	c-10.9,0-20.6,4.7-25.3,12.3l-21.6,34.7l5.9,3.7l21.6-34.7c3.4-5.5,11-9,19.4-9h46.5c8.2,0,15.7,3.4,19.2,8.8l19.3,29.6h-5.6
	c-10.9,0-20.6,4.7-25.3,12.3l-20.5,33.1h-6.2c-11.7,0-22.3,5.9-27.8,15.3l-8.4,14.6l6.1,3.5l8.4-14.6c4.2-7.3,12.6-11.8,21.8-11.8
	h620c8.6,0,16.7,4.1,21.1,10.7l10.5,15.8l5.8-3.9l-10.5-15.8c-5.7-8.6-16-13.9-26.9-13.9H1003l-21.8-33.5
	c-4.8-7.4-14.4-11.9-25.1-11.9H947l18.3-29.4C968.7,5686,976.3,5682.5,984.7,5682.5z M811,5691.5c3.4-5.5,11-9,19.4-9h46.5
	c8.2,0,15.7,3.4,19.2,8.8l19.3,29.6h-5.6c-10.9,0-20.6,4.7-25.3,12.3l-20.5,33.1h-15.2l-21.8-33.5c-4.8-7.4-14.4-11.9-25.1-11.9
	h-9.1L811,5691.5z M840.4,5766.3H717.8l18.3-29.4c3.4-5.5,11-9,19.4-9H802c8.2,0,15.7,3.4,19.2,8.8L840.4,5766.3z M656.7,5691.5
	c3.4-5.5,11-9,19.4-9h46.5c8.2,0,15.7,3.4,19.2,8.8l19.3,29.6h-5.6c-10.9,0-20.6,4.7-25.3,12.3l-20.5,33.1h-15.2l-21.8-33.5
	c-4.8-7.4-14.4-11.9-25.1-11.9h-9.1L656.7,5691.5z M686.1,5766.3H563.5l18.3-29.4c3.4-5.5,11-9,19.4-9h46.5c8.2,0,15.7,3.4,19.2,8.8
	L686.1,5766.3z M502.4,5691.5c3.4-5.5,11-9,19.4-9h46.5c8.2,0,15.7,3.4,19.2,8.8l19.3,29.6h-5.6c-10.9,0-20.6,4.7-25.3,12.3
	l-20.5,33.1h-15.2l-21.8-33.5c-4.8-7.4-14.4-11.9-25.1-11.9h-9.1L502.4,5691.5z M427.4,5736.9c3.4-5.5,11-9,19.4-9h46.5
	c8.2,0,15.7,3.4,19.2,8.8l19.3,29.6H409.2L427.4,5736.9z M975.4,5736.6l19.3,29.6H872.2l18.3-29.4c3.4-5.5,11-9,19.4-9h46.5
	C964.4,5727.9,971.9,5731.3,975.4,5736.6z"/>
<path style="fill:#FFFFFF;" d="M3441.4,4890.6c-89.9-49.9-100.9-43.3-99.2,59.5c-1.7-102.8-12.9-109.1-101.1-56.2
	c88.2-52.9,88-65.7-1.9-115.7c89.9,49.9,100.9,43.3,99.2-59.5c1.7,102.8,12.9,109.1,101.1,56.2
	C3351.3,4827.8,3351.5,4840.7,3441.4,4890.6z"/>
<path d="M2481,2883.5h-360.8c-38.2,0-69.1-30.9-69.1-69.1v-744c0-38.2,30.9-69.1,69.1-69.1H2481c38.2,0,69.1,30.9,69.1,69.1v744
	C2550.1,2852.5,2519.2,2883.5,2481,2883.5z"/>
<path style="fill:#BA5638;" d="M2525.6,2466.8L2525.6,2466.8c0-24.6-20-44.6-44.6-44.6h-412.1c-6.4,0-11.7-5.2-11.7-11.7l0,0
	c0-6.4,5.2-11.7,11.7-11.7h365.7c24.6,0,44.6-20,44.6-44.6l0,0c0-24.6-20-44.6-44.6-44.6h-365.7c-6.4,0-11.7-5.2-11.7-11.7l0,0
	c0-6.4,5.2-11.7,11.7-11.7h32.4h8.2c49.2,0,89.2-39.9,89.2-89.2l0,0l0,0c0-28.1-22.8-51-51-51l0,0c-25.6,0-46.4,20.8-46.4,46.4v4.5
	h-229.6v19.1v70.1v23.4v89.2v23.4v89.2v23.4v89.2v25.5v89.2h185.5h215.1c24.6,0,44.6-20,44.6-44.6l0,0c0-24.6-20-44.6-44.6-44.6
	h-202.4c-7,0-12.7-5.7-12.7-12.7l0,0c0-7,5.7-12.7,12.7-12.7h355.4c24.6,0,44.6-20,44.6-44.6l0,0c0-24.6-20-44.6-44.6-44.6h-356.5
	c-6.4,0-11.7-5.2-11.7-11.7l0,0c0-6.4,5.2-11.7,11.7-11.7H2481C2505.6,2511.3,2525.6,2491.4,2525.6,2466.8z"/>
<circle style="fill:#2BCFB2;" cx="2435.6" cy="2353.5" r="30.4"/>
<circle style="fill:#2BCFB2;" cx="2148.7" cy="2190.8" r="30.4"/>
<circle style="fill:#2BCFB2;" cx="2483" cy="2467.1" r="30.4"/>
<circle style="fill:#2BCFB2;" cx="2427.4" cy="2579.6" r="30.4"/>
<circle style="fill:#2BCFB2;" cx="2273.5" cy="2695" r="30.4"/>
<linearGradient id="SVGID_00000071551493779315674390000008549416866201356725_" gradientUnits="userSpaceOnUse" x1="6165.6709" y1="6397.3223" x2="6184.0947" y2="4112.7847" gradientTransform="matrix(0 -1 -1 0 9037.2549 8582.0166)">
	<stop  offset="0" style="stop-color:#FFC437"/>
	<stop  offset="0.198" style="stop-color:#FFBF37"/>
	<stop  offset="0.4375" style="stop-color:#FFB039"/>
	<stop  offset="0.6982" style="stop-color:#FF983B"/>
	<stop  offset="0.9724" style="stop-color:#FF763F"/>
	<stop  offset="1" style="stop-color:#FF723F"/>
</linearGradient>
<path style="fill:url(#SVGID_00000071551493779315674390000008549416866201356725_);" d="M2788.7,2154.4v238.9
	c0,149.8,121.4,271.2,271.2,271.2h1141.5v-510.1L2788.7,2154.4L2788.7,2154.4z"/>
<linearGradient id="SVGID_00000021112673488144459260000007464158991859387552_" gradientUnits="userSpaceOnUse" x1="3386.7668" y1="6614.0264" x2="3325.7358" y2="2901.6099" gradientTransform="matrix(1 0 0 -1 0 6000)">
	<stop  offset="0" style="stop-color:#FFC437"/>
	<stop  offset="0.1799" style="stop-color:#FFBF37"/>
	<stop  offset="0.3975" style="stop-color:#FFB039"/>
	<stop  offset="0.6344" style="stop-color:#FF983B"/>
	<stop  offset="0.8836" style="stop-color:#FF763F"/>
	<stop  offset="0.9086" style="stop-color:#FF723F"/>
</linearGradient>
<path style="fill:url(#SVGID_00000021112673488144459260000007464158991859387552_);" d="M2171.2,695.9V1375h510.1V975.7
	c0-49.3,40-89.3,89.3-89.3h548.7H3670h289.5c34.6,0,62.6,28,62.6,62.6v1534.2c0,100.2,81.2,181.5,181.5,181.5l0,0
	c181.5,0,328.7-147.1,328.7-328.7V725.4c0-192.4-155.9-348.4-348.4-348.5c-564.3-0.2-1128.6-0.4-1692.9-0.6
	C2314.3,376.3,2171.2,519.4,2171.2,695.9z"/>
<path d="M3824.8,2554.5L3824.8,2554.5c164.1,0,297.2-133.1,297.2-297.2v-973.7c0-164.1-133.1-297.2-297.2-297.2l0,0
	c-164.1,0-297.2,133.1-297.2,297.2v973.7C3527.6,2421.4,3660.7,2554.5,3824.8,2554.5z"/>
<circle style="fill:#BA5638;" cx="3618.9" cy="1770.4" r="184.7"/>
<path style="fill:#FEAC94;" d="M3871.9,3989.8v-23.1h-139.4V4139h139.4v-23.1c0-12.8,5.2-24.3,13.5-32.7
	c8.4-8.4,19.9-13.5,32.7-13.5c25.5,0,46.2,20.7,46.2,46.2v51.2c0,35.5-28.8,64.4-64.4,64.4h-167.5v367.1c0,12.8-5.2,24.3-13.5,32.7
	c-8.4,8.4-19.9,13.5-32.7,13.5c-25.5,0-46.2-20.7-46.2-46.2v-270.9c0-6.7-5.4-12.1-12.1-12.1c-6.7,0-12.1,5.4-12.1,12.1v344.9
	c0,12.8-5.2,24.3-13.5,32.7c-8.4,8.4-19.9,13.5-32.7,13.5c-25.5,0-46.2-20.7-46.2-46.2v-345.3c0-6.5-5.3-11.8-11.8-11.8
	s-11.8,5.3-11.8,11.8v258c0,12.8-5.2,24.3-13.5,32.7c-8.4,8.4-19.9,13.5-32.7,13.5c-25.5,0-46.2-20.7-46.2-46.2v-711h494.8
	c34.4,0,62.2,27.9,62.2,62.2v53.3c0,12.8-5.2,24.3-13.5,32.7c-8.4,8.4-19.9,13.5-32.7,13.5C3892.6,4036,3871.9,4015.3,3871.9,3989.8
	z"/>
<g>
	<path d="M4011.6,4122.8c-6.9,0-13.6-3.1-18.1-9.1c-7.4-10-5.4-24.1,4.6-31.5c0.6-0.5,15.3-11.6,14.9-30.4
		c-0.3-18.8-15.3-29.4-15.9-29.9c-10.2-7.1-12.7-21.1-5.6-31.3c7.1-10.2,21.1-12.7,31.3-5.6c5.8,4,34.6,26,35.3,66.1
		c0.7,40-27.4,63-33.1,67.2C4020.9,4121.3,4016.2,4122.8,4011.6,4122.8z"/>
</g>
<g>
	<path d="M4091.8,4158.8c-5.1,0-10.3-1.7-14.5-5.3c-9.5-8-10.7-22.2-2.7-31.7c7.7-9.1,25.6-34.2,25.1-70
		c-0.5-35.7-18.9-60.2-26.8-69.1c-8.3-9.3-7.4-23.5,1.8-31.8c9.3-8.3,23.5-7.4,31.8,1.8c11.3,12.7,37.5,47.6,38.2,98.4
		c0.7,51-24.7,86.7-35.7,99.6C4104.5,4156.1,4098.2,4158.8,4091.8,4158.8z"/>
</g>
<g>
	<path d="M4166.4,4205.2c-4.6,0-9.3-1.4-13.3-4.4c-10-7.4-12.2-21.4-4.8-31.5c14.1-19.1,37.8-59.5,38.8-114.6
		c1.1-58.2-23.6-101-38.4-121.3c-7.3-10-5.1-24.1,4.9-31.4c10-7.3,24.1-5.1,31.4,4.9c18.1,24.9,48.3,77.2,47,148.6
		c-1.2,67.5-30.3,116.9-47.6,140.4C4180.2,4202,4173.4,4205.2,4166.4,4205.2z"/>
</g>
<ellipse style="fill:#FFEC90;" cx="3686.7" cy="4598.6" rx="28.7" ry="30.4"/>
<ellipse style="fill:#FFEC90;" cx="3918.1" cy="4117.8" rx="28.7" ry="30.4"/>
<ellipse style="fill:#FFEC90;" cx="3918.1" cy="3985.8" rx="28.7" ry="30.4"/>
<ellipse style="fill:#FFEC90;" cx="3570.3" cy="4671.4" rx="28.7" ry="30.4"/>
<ellipse style="fill:#FFEC90;" cx="3454.7" cy="4583.8" rx="28.7" ry="30.4"/>
<g>
	<path style="fill:#2BCFB2;" d="M1273.8,3220.6c-65.9,0-119.6-53.7-119.6-119.6c0-65.9,53.7-119.6,119.6-119.6
		s119.6,53.7,119.6,119.6C1393.4,3166.9,1339.7,3220.6,1273.8,3220.6z M1273.8,3009.4c-50.5,0-91.6,41.1-91.6,91.6
		s41.1,91.6,91.6,91.6s91.6-41.1,91.6-91.6S1324.3,3009.4,1273.8,3009.4z"/>
</g>
<g>
	<path style="fill:#2BCFB2;" d="M1703.6,3222.1c-65.9,0-119.6-53.7-119.6-119.6s53.7-119.6,119.6-119.6s119.6,53.7,119.6,119.6
		S1769.5,3222.1,1703.6,3222.1z M1703.6,3010.9c-50.5,0-91.6,41.1-91.6,91.6s41.1,91.6,91.6,91.6s91.6-41.1,91.6-91.6
		S1754.1,3010.9,1703.6,3010.9z"/>
</g>
<circle style="fill:#2BCFB2;" cx="1292.2" cy="2966.5" r="20.4"/>
<circle style="fill:#2BCFB2;" cx="1676.8" cy="2966.5" r="20.4"/>
<g>
	<rect x="2171.2" y="1364.5" style="fill:#0086FF;" width="510.1" height="21"/>
</g>
<g>
	<rect x="1861.2" y="2196.7" style="fill:#0086FF;" width="21" height="547"/>
</g>
<path style="fill:#823C27;" d="M1128.1,1717.3c-68.4,0-136.7,0-205.1,0c-25.9-3-47.3,17.4-47.5,38.9c-0.2,22.2,22,43.3,48.7,39.6
	c62.6,0,125.2,0,187.8,0c8.9,0,16.1,5,16.1,11.2s-7.2,11.2-16.1,11.2c-97.8,0-195.7,0-293.5,0c-26.9-2.2-47.9,20.3-46.3,42.4
	c1.5,20.7,22.6,39.1,47.5,36.1c97.9,0,195.8,0,293.7,0c8.1,0,14.7,4.6,14.7,10.3s-6.6,10.3-14.7,10.3H598.2c-2.6,0-5.3-0.1-7.9-0.3
	c-23.9-1.3-43.5,17.8-43.9,38.9c-0.3,21.2,19,40.9,42.9,40.2c4.7-0.1,9.4-0.3,14.1-0.3h509.9c8.1,0,14.7,4.6,14.7,10.3
	c0,5.7-6.6,10.3-14.7,10.3H656.9c-2.7,0-5.3-0.1-8-0.2c-23.4-1-42.6,17.5-43.2,38.2c-0.6,21.6,19.1,41.8,43.6,40.7
	c2.3-0.1,4.6-0.2,6.9-0.2h308.5v50.2c0,28.5,22.9,51.6,51.1,51.6h28.5l0,0c106-0.9,212-1.8,318-2.7v-16.8v-61.7v-20.6v-78.5v-20.6
	v-78.5v-20.6v-78.5v-22.4v-78.5L1128.1,1717.3L1128.1,1717.3z M1113.4,2115.4h-40.9c-9.5,0.1-18.9,0.2-28.4,0.2v-20.8h69.2
	c8.1,0,14.7,4.6,14.7,10.3S1121.5,2115.4,1113.4,2115.4z"/>
<g>
	<path d="M541.2,1279.3c-11.3-4.7-21.3-9.8-30-14.7L348.3,915.1c6.7-5.7,11.1-13,13.4-20.9L541.2,1279.3z"/>
</g>
<g>
	<path d="M468.8,1243.9l-28.7-11.8L301.8,935.5c6.6-2.5,13.1-5,19.7-7.5L468.8,1243.9z"/>
</g>
<g>
	<path d="M399.5,1215.4l-28.7-11.8L254.2,953.5c6.6-2.5,13.1-5,19.7-7.4L399.5,1215.4z"/>
</g>
<g>
	<path d="M330.3,1186.9l-28.7-11.8l-94.9-203.6c6.6-2.5,13.1-5,19.7-7.5L330.3,1186.9z"/>
</g>
<g>
	<path d="M261,1158.3l-28.7-11.8l-63.8-136.7v-23.9c3.4-1.3,6.8-2.6,10.2-3.9L261,1158.3z"/>
</g>
<g>
	<polygon points="191.7,1129.8 168.6,1120.3 168.6,1080.1 	"/>
</g>
<g>
	<path style="fill:#F2F2E6;" d="M1644.7,3313.1c-13.1,0-19.8-8.4-24.2-13.9c-4.1-5.2-5.3-6.1-7.8-6.1s-3.7,0.9-7.8,6.1
		c-4.4,5.5-11.2,13.9-24.2,13.9c-13.1,0-19.8-8.4-24.2-13.9c-4.1-5.2-5.3-6.1-7.8-6.1s-3.7,0.9-7.8,6.1
		c-4.4,5.5-11.2,13.9-24.2,13.9s-19.8-8.4-24.2-13.9c-4.1-5.2-5.3-6.1-7.8-6.1s-3.7,0.9-7.8,6.1c-4.4,5.5-11.2,13.9-24.2,13.9
		c-13.1,0-19.8-8.4-24.2-13.9c-4.1-5.2-5.3-6.1-7.8-6.1s-3.7,0.9-7.8,6.1c-4.4,5.5-11.2,13.9-24.2,13.9s-19.8-8.4-24.2-13.9
		c-4.1-5.2-5.3-6.1-7.8-6.1s-3.7,0.9-7.8,6.1c-4.4,5.5-11.2,13.9-24.2,13.9s-19.8-8.4-24.2-13.9c-1.9-2.3-3.1-3.8-4.2-4.7
		c-2.3-1.9-3.7-4.7-3.7-7.7v-0.5c0-8.8,10.3-13.6,17-8c3,2.5,5.3,5.4,7.2,7.7c4.1,5.2,5.3,6.1,7.8,6.1s3.7-0.9,7.8-6.1
		c4.4-5.5,11.2-13.9,24.2-13.9c13.1,0,19.8,8.4,24.2,13.9c4.1,5.2,5.3,6.1,7.8,6.1s3.7-0.9,7.8-6.1c4.4-5.5,11.2-13.9,24.2-13.9
		c13.1,0,19.8,8.4,24.2,13.9c4.1,5.2,5.3,6.1,7.8,6.1s3.7-0.9,7.8-6.1c4.4-5.5,11.2-13.9,24.2-13.9c13.1,0,19.8,8.4,24.2,13.9
		c4.1,5.2,5.3,6.1,7.8,6.1s3.7-0.9,7.8-6.1c4.4-5.5,11.2-13.9,24.2-13.9s19.8,8.4,24.2,13.9c4.1,5.2,5.3,6.1,7.8,6.1
		s3.7-0.9,7.8-6.1c4.4-5.5,11.2-13.9,24.2-13.9c13.1,0,19.8,8.4,24.2,13.9c4.1,5.2,5.3,6.1,7.8,6.1s3.7-0.9,7.8-6.1
		c1.9-2.4,4.2-5.2,7.2-7.7c6.8-5.6,17-0.8,17,8v0.5c0,3-1.4,5.8-3.7,7.7c-1.1,0.9-2.3,2.4-4.2,4.7
		C1664.5,3304.7,1657.8,3313.1,1644.7,3313.1z"/>
</g>
<path style="fill:#EF1F24;" d="M1044.7,1830.6h48.9c14.8,0,26.8,12,26.8,26.8l0,0c0,14.8-12,26.8-26.8,26.8h-48.9
	c-14.8,0-26.8-12-26.8-26.8l0,0C1017.9,1842.6,1029.9,1830.6,1044.7,1830.6z"/>
<path style="fill:#EF1F24;" d="M961.6,2110.7v-15.8h37.8c8.7,0,15.8,7.1,15.8,15.8l0,0c0,8.7-7.1,15.8-15.8,15.8h-21.9
	C968.7,2126.5,961.6,2119.4,961.6,2110.7z"/>
<path style="fill:#EF1F24;" d="M1007.4,1729.3h48.9c14.8,0,26.8,12,26.8,26.8l0,0c0,14.8-12,26.8-26.8,26.8h-48.9
	c-14.8,0-26.8-12-26.8-26.8l0,0C980.6,1741.3,992.6,1729.3,1007.4,1729.3z"/>
<path style="fill:#FE8BC4;" d="M1105.2,773.9h480.5v45.7c0,38.6-31.3,69.8-69.8,69.8h-410.7V773.9z"/>
<path d="M1105.2,789.7V557.3c0-2.1,0-4.2,0.1-6.2c3.1-119.3,96.2-216.2,213.9-225.4c6.1-0.5,12.2-0.7,18.3-0.7H2202
	c128.3,0,232.3,104,232.3,232.3c0,27-4.6,52.9-13.1,77c-3.8,10.7-8.3,21-13.5,30.9c-11,20.9-25,39.8-41.5,56.3
	c-42.1,42.1-100.1,68.1-164.3,68.1H1105.2V789.7z"/>
<path style="fill:#FFFFFF;" d="M1268.1,514.3c24.3-22.5,41.6-47.4,53.9-72.2h793c13.4,49.9,38.3,94.4,73.5,130.6
	c40.7,41.9,91.4,70.1,150.7,83.9c27.1,6.3,51.3,8.3,68.8,8.7l13.5-30.9c-33.9,0.8-134.1-4.3-210.7-83.3
	c-75.3-77.5-79.2-175.5-75.1-226.1c1.6-19.3,4.3-31.6,4.7-33.3l-30.2-6.9c-0.6,2.7-3.9,17.6-5.6,40.3c-1.3,17.4-1.7,39.3,0.7,63.7
	c0.8,7.6,1.8,15.1,3,22.5h-773.4c11.1-32.4,14.7-63,15.4-86.2c0.6-21.5-1.2-36.7-1.8-41l-30.6,4.3c0.6,3.9,2.2,17.8,1.6,37.4
	c-1.4,42.4-13.8,111.8-72.2,165.9c-48.5,44.8-104.9,56.9-141.8,59.5c-0.1,2.1-0.1,4.2-0.1,6.2V582
	C1146.9,579.4,1212.1,566,1268.1,514.3z"/>
<circle style="fill:#FFFFFF;" cx="1606.5" cy="489.8" r="20.8"/>
<circle style="fill:#FFFFFF;" cx="1691" cy="489.8" r="20.8"/>
<g>
	
		<linearGradient id="SVGID_00000123409024832743792870000018141426410043294864_" gradientUnits="userSpaceOnUse" x1="-1634.4156" y1="-5161.167" x2="-1443.6758" y2="-5161.167" gradientTransform="matrix(-1 0 0 1 240.8242 5882.3169)">
		<stop  offset="0" style="stop-color:#FFC437"/>
		<stop  offset="1" style="stop-color:#FFC437"/>
	</linearGradient>
	<path style="fill:url(#SVGID_00000123409024832743792870000018141426410043294864_);" d="M1684.5,789.7l165.6-133.8
		c2.9-2.3,6.3-3.4,9.7-3.4c4.5,0,9,2,12,5.7c5.4,6.6,4.3,16.4-2.3,21.8l-135.8,109.8L1684.5,789.7L1684.5,789.7z"/>
</g>
<g>
	
		<linearGradient id="SVGID_00000036930725376463419180000000690575623997053068_" gradientUnits="userSpaceOnUse" x1="-1753.2157" y1="-5161.167" x2="-1562.4758" y2="-5161.167" gradientTransform="matrix(-1 0 0 1 240.8242 5882.3169)">
		<stop  offset="0" style="stop-color:#FFC437"/>
		<stop  offset="1" style="stop-color:#FFC437"/>
	</linearGradient>
	<path style="fill:url(#SVGID_00000036930725376463419180000000690575623997053068_);" d="M1803.3,789.7l165.6-133.8
		c2.9-2.3,6.3-3.4,9.7-3.4c4.5,0,9,2,12,5.7c5.4,6.6,4.3,16.4-2.3,21.8l-135.8,109.8L1803.3,789.7L1803.3,789.7z"/>
</g>
<g>
	
		<linearGradient id="SVGID_00000175324491175862036370000011702251623249599674_" gradientUnits="userSpaceOnUse" x1="-1872.1157" y1="-5161.167" x2="-1681.3757" y2="-5161.167" gradientTransform="matrix(-1 0 0 1 240.8242 5882.3169)">
		<stop  offset="0" style="stop-color:#FFC437"/>
		<stop  offset="1" style="stop-color:#FFC437"/>
	</linearGradient>
	<path style="fill:url(#SVGID_00000175324491175862036370000011702251623249599674_);" d="M1922.2,789.7l165.6-133.8
		c2.9-2.3,6.3-3.4,9.7-3.4c4.5,0,9,2,12,5.7c5.4,6.6,4.3,16.4-2.3,21.8l-135.8,109.8L1922.2,789.7L1922.2,789.7z"/>
</g>
<path style="fill:#FE8BC4;" d="M1158.6,267.9c-0.3-24.9,9.6-47.5,25.7-64s38.6-26.8,63.5-27.1l1042-10.9c34.4-0.4,64.6,18.6,80,46.9
	c6.5,11.8,10.4,25.2,11,39.5c0,0.9,0.1,1.9,0.1,2.8c0.3,24.9-9.6,47.5-25.7,64c-16.1,16.5-38.6,26.8-63.5,27.1l-1042,10.9
	c-33.2,0.3-62.4-17.3-78.4-43.9c-6.9-11.6-11.3-24.8-12.4-39.1C1158.7,272.1,1158.6,270,1158.6,267.9z"/>
<g>
	<path style="fill:#2BCFB2;" d="M1343.7,197.6l-2,78.1l230.4-80.2l-2.4,77.5l236.3-84l-5.3,77.5l229.7-80.9l-2.8,78.5l222.4-81.3
		l-1.2,75.2l121.1-45.3c6.5,11.8,10.4,25.2,11,39.5L2207,317.3l1.2-75.7l-223.7,81.8l2.9-79.2l-231.7,81.6l5.3-77.3l-233.9,83.2
		l2.4-77.9l-230,80l1.9-74.3l-130,53.8c-6.9-11.6-11.3-24.8-12.4-39.1L1343.7,197.6z"/>
</g>
<path style="fill:#FE8BC4;" d="M761.5,4586v-480.5h45.7c38.6,0,69.8,31.3,69.8,69.8V4586H761.5z"/>
<path d="M776.2,4586H544.9c-2.1,0-4.2,0-6.2-0.1c-119.3-3.1-216.2-96.2-225.4-213.9c-0.5-6.1-0.7-12.2-0.7-18.3v-864.5
	c0-128.3,104-232.3,232.3-232.3c27,0,52.9,4.6,77,13.1c10.7,3.8,21,8.3,30.9,13.5c20.9,11,39.8,25,56.3,41.5
	c42.1,42.1,68.1,100.1,68.1,164.3L776.2,4586z"/>
<path style="fill:#FFFFFF;" d="M501.9,4423.2c-22.5-24.3-47.4-41.6-72.2-53.9v-793c49.9-13.4,94.4-38.3,130.6-73.5
	c41.9-40.7,70.1-91.4,83.9-150.7c6.3-27.1,8.3-51.3,8.7-68.8l-30.9-13.5c0.8,33.9-4.3,134.1-83.3,210.7
	c-77.5,75.3-175.5,79.2-226.1,75.1c-19.3-1.6-31.6-4.3-33.3-4.7l-6.9,30.2c2.7,0.6,17.6,3.9,40.3,5.6c17.4,1.3,39.3,1.7,63.7-0.7
	c7.6-0.8,15.1-1.8,22.5-3v773.4c-32.4-11.1-63-14.7-86.2-15.4c-21.5-0.6-36.7,1.2-41,1.8l4.3,30.6c3.9-0.6,17.8-2.2,37.4-1.6
	c42.4,1.4,111.8,13.8,165.9,72.2c44.8,48.5,56.9,104.9,59.5,141.8c2.1,0.1,4.2,0.1,6.2,0.1h24.7
	C567,4544.3,553.6,4479.2,501.9,4423.2z"/>
<circle style="fill:#FFFFFF;" cx="477.4" cy="4084.7" r="20.8"/>
<circle style="fill:#FFFFFF;" cx="477.4" cy="4000.2" r="20.8"/>
<g>
	
		<linearGradient id="SVGID_00000083805146048206847500000003530839308611687842_" gradientUnits="userSpaceOnUse" x1="-2129.9048" y1="347.9765" x2="-1939.1648" y2="347.9765" gradientTransform="matrix(0 1 1 0 360.7734 5945.9648)">
		<stop  offset="0" style="stop-color:#FFC437"/>
		<stop  offset="1" style="stop-color:#FFC437"/>
	</linearGradient>
	<path style="fill:url(#SVGID_00000083805146048206847500000003530839308611687842_);" d="M777.3,4006.8l-133.8-165.6
		c-2.3-2.9-3.4-6.3-3.4-9.7c0-4.5,2-9,5.7-12c6.6-5.4,16.4-4.3,21.8,2.3l109.8,135.8L777.3,4006.8L777.3,4006.8z"/>
</g>
<g>
	
		<linearGradient id="SVGID_00000042711580749250244680000000521696571319225515_" gradientUnits="userSpaceOnUse" x1="-2248.8049" y1="347.9765" x2="-2058.0649" y2="347.9765" gradientTransform="matrix(0 1 1 0 360.7734 5945.9648)">
		<stop  offset="0" style="stop-color:#FFC437"/>
		<stop  offset="1" style="stop-color:#FFC437"/>
	</linearGradient>
	<path style="fill:url(#SVGID_00000042711580749250244680000000521696571319225515_);" d="M777.3,3887.9l-133.8-165.6
		c-2.3-2.9-3.4-6.3-3.4-9.7c0-4.5,2-9,5.7-12c6.6-5.4,16.4-4.3,21.8,2.3l109.8,135.8L777.3,3887.9L777.3,3887.9z"/>
</g>
<g>
	
		<linearGradient id="SVGID_00000065049364165013524470000010671777553430394247_" gradientUnits="userSpaceOnUse" x1="-2367.7048" y1="347.9765" x2="-2176.9648" y2="347.9765" gradientTransform="matrix(0 1 1 0 360.7734 5945.9648)">
		<stop  offset="0" style="stop-color:#FFC437"/>
		<stop  offset="1" style="stop-color:#FFC437"/>
	</linearGradient>
	<path style="fill:url(#SVGID_00000065049364165013524470000010671777553430394247_);" d="M777.3,3769l-133.8-165.6
		c-2.3-2.9-3.4-6.3-3.4-9.7c0-4.5,2-9,5.7-12c6.6-5.4,16.4-4.3,21.8,2.3l109.8,135.8L777.3,3769L777.3,3769z"/>
</g>
<path style="fill:#FE8BC4;" d="M255.5,4532.6c-24.9,0.3-47.5-9.6-64-25.7s-26.8-38.6-27.1-63.5l-10.9-1042
	c-0.4-34.4,18.6-64.6,46.9-80c11.8-6.5,25.2-10.4,39.5-11c0.9,0,1.9-0.1,2.8-0.1c24.9-0.3,47.5,9.6,64,25.7
	c16.5,16.1,26.8,38.6,27.1,63.5l10.9,1042c0.3,33.2-17.3,62.4-43.9,78.4c-11.6,6.9-24.8,11.3-39.1,12.4
	C259.7,4532.5,257.6,4532.6,255.5,4532.6z"/>
<g>
	<path style="fill:#2BCFB2;" d="M185.2,4347.5l78.1,2l-80.2-230.4l77.5,2.4l-84-236.3l77.5,5.3l-80.9-229.7l78.5,2.8l-81.3-222.4
		l75.2,1.2l-45.3-121.1c11.8-6.5,25.2-10.4,39.5-11l65.1,173.9l-75.7-1.2l81.8,223.7l-79.2-2.9l81.6,231.7l-77.3-5.3l83.2,233.9
		l-77.9-2.4l80,230l-74.3-1.9l53.8,130c-11.6,6.9-24.8,11.3-39.1,12.4L185.2,4347.5z"/>
</g>
</svg>
