<?xml version="1.0" encoding="UTF-8" standalone="no"?>
<!DOCTYPE svg PUBLIC "-//W3C//DTD SVG 1.1//EN" "http://www.w3.org/Graphics/SVG/1.1/DTD/svg11.dtd">
<svg width="4586px" height="3201px" version="1.1" xmlns="http://www.w3.org/2000/svg" xmlns:xlink="http://www.w3.org/1999/xlink" xml:space="preserve" xmlns:serif="http://www.serif.com/" style="fill-rule:evenodd;clip-rule:evenodd;stroke-linejoin:round;stroke-miterlimit:2;">
    <g transform="matrix(1,0,0,1,-8995.19,-399.99)">
        <g id="Artboard3" transform="matrix(1.14644,0,0,0.800005,-653.638,399.99)">
            <rect x="8416.33" y="0" width="4000" height="4000" style="fill:rgb(219,232,255);"/>
            <g transform="matrix(1.13489,0,0,1.62635,8146.74,-1252.69)">
                <path d="M470.83,958.55L3528.85,958.55C3557.59,958.55 3581.1,982.07 3581.1,1010.81L3581.1,2988.08C3581.1,3016.82 3557.59,3040.33 3528.85,3040.33L470.83,3040.33C442.09,3040.33 418.58,3016.82 418.58,2988.08L418.58,1010.81C418.58,982.07 442.09,958.55 470.83,958.55Z" style="fill:rgb(5,37,88);"/>
                <path d="M1307.54,1207.62L2388.93,1207.62C2424.21,1207.62 2453.07,1236.48 2453.07,1271.76C2453.07,1307.03 2424.21,1335.89 2388.93,1335.89L1307.54,1335.89C1272.26,1335.89 1243.4,1307.03 1243.4,1271.76C1243.4,1236.48 1272.26,1207.62 1307.54,1207.62Z" style="fill:white;"/>
                <path d="M1331.16,1246.35C1336.4,1246.35 1341.15,1248.48 1344.59,1251.92C1348.04,1255.35 1350.17,1260.11 1350.17,1265.36C1350.17,1270.13 1348.4,1274.49 1345.49,1277.83L1358.23,1290.57C1359.01,1291.35 1359.01,1292.62 1358.23,1293.4C1357.45,1294.18 1356.18,1294.18 1355.4,1293.4L1342.56,1280.56C1339.38,1282.95 1335.43,1284.37 1331.16,1284.37C1325.91,1284.37 1321.16,1282.24 1317.72,1278.8L1317.61,1278.69C1314.23,1275.25 1312.15,1270.55 1312.15,1265.36C1312.15,1260.11 1314.28,1255.35 1317.72,1251.92C1321.16,1248.48 1325.91,1246.35 1331.16,1246.35ZM1341.24,1276.49L1341.28,1276.45C1341.33,1276.4 1341.38,1276.35 1341.43,1276.31L1341.78,1275.98C1344.49,1273.26 1346.17,1269.51 1346.17,1265.36C1346.17,1261.21 1344.49,1257.46 1341.77,1254.74C1339.06,1252.03 1335.31,1250.35 1331.16,1250.35C1327.01,1250.35 1323.26,1252.03 1320.54,1254.74C1317.83,1257.46 1316.15,1261.21 1316.15,1265.36C1316.15,1269.46 1317.79,1273.18 1320.45,1275.88L1320.54,1275.97C1323.26,1278.69 1327.01,1280.37 1331.16,1280.37C1335.04,1280.37 1338.57,1278.9 1341.24,1276.49Z" style="fill:rgb(90,116,153);fill-rule:nonzero;"/>
                <path d="M470.83,958.55L3528.85,958.55C3557.59,958.55 3581.1,982.07 3581.1,1010.81L3581.1,1112.31L418.58,1112.31L418.58,1010.81C418.58,982.07 442.09,958.55 470.83,958.55Z" style="fill:rgb(42,89,205);"/>
                <path d="M509.29,1016.09C519.23,1016.09 527.28,1024.15 527.28,1034.08C527.28,1044.02 519.23,1052.08 509.29,1052.08C499.35,1052.08 491.3,1044.02 491.3,1034.08C491.3,1024.15 499.35,1016.09 509.29,1016.09Z" style="fill:white;"/>
                <path d="M574.73,1016.09C584.67,1016.09 592.72,1024.15 592.72,1034.08C592.72,1044.02 584.67,1052.08 574.73,1052.08C564.79,1052.08 556.74,1044.02 556.74,1034.08C556.74,1024.15 564.79,1016.09 574.73,1016.09Z" style="fill:white;"/>
                <path d="M640.17,1016.09C650.11,1016.09 658.16,1024.15 658.16,1034.08C658.16,1044.02 650.11,1052.08 640.17,1052.08C630.23,1052.08 622.18,1044.02 622.18,1034.08C622.18,1024.15 630.23,1016.09 640.17,1016.09Z" style="fill:white;"/>
                <path d="M1184.65,1114.81C1184.65,1113.43 1185.77,1112.31 1187.15,1112.31C1188.53,1112.31 1189.65,1113.43 1189.65,1114.81L1189.65,3038.95C1189.65,3040.32 1188.53,3041.44 1187.15,3041.44C1185.77,3041.44 1184.65,3040.32 1184.65,3038.95L1184.65,1114.81Z" style="fill:rgb(90,116,153);fill-rule:nonzero;"/>
                <path d="M419.99,1524.79C418.61,1524.79 417.49,1523.67 417.49,1522.29C417.49,1520.9 418.61,1519.78 419.99,1519.78L1187.15,1519.78C1188.53,1519.78 1189.65,1520.9 1189.65,1522.29C1189.65,1523.67 1188.53,1524.79 1187.15,1524.79L419.99,1524.79Z" style="fill:rgb(90,116,153);fill-rule:nonzero;"/>
                <path d="M608.73,1218.24C664.96,1218.24 710.54,1263.82 710.54,1320.04C710.54,1376.27 664.96,1421.85 608.73,1421.85C552.51,1421.85 506.93,1376.27 506.93,1320.04C506.93,1263.82 552.51,1218.24 608.73,1218.24Z" style="fill:rgb(42,89,205);"/>
                <path d="M782.93,1253.29L967.77,1253.29L967.77,1264.65L782.93,1264.65L782.93,1253.29Z" style="fill:white;"/>
                <path d="M782.93,1283.29L967.77,1283.29L967.77,1294.65L782.93,1294.65L782.93,1283.29Z" style="fill:white;"/>
                <path d="M782.93,1323.29L1075.5,1323.29L1075.5,1334.65L782.93,1334.65L782.93,1323.29Z" style="fill:rgb(90,116,153);"/>
                <path d="M782.93,1353.3L1075.5,1353.3L1075.5,1364.65L782.93,1364.65L782.93,1353.3Z" style="fill:rgb(90,116,153);"/>
                <path d="M782.93,1383.3L1075.5,1383.3L1075.5,1394.66L782.93,1394.66L782.93,1383.3Z" style="fill:rgb(90,116,153);"/>
                <g id="_2251293069088">
                    <path d="M618.27,1613.56L803.11,1613.56L803.11,1624.92L618.27,1624.92L618.27,1613.56Z" style="fill:white;"/>
                    <path d="M618.27,1653.56L926.38,1653.56L926.38,1664.92L618.27,1664.92L618.27,1653.56Z" style="fill:rgb(90,116,153);"/>
                    <path d="M533.85,1613.56C549.68,1613.56 562.51,1626.39 562.51,1642.22C562.51,1658.05 549.68,1670.88 533.85,1670.88C518.03,1670.88 505.2,1658.05 505.2,1642.22C505.2,1626.39 518.03,1613.56 533.85,1613.56Z" style="fill:white;"/>
                </g>
                <g id="_2251293068272">
                    <path d="M618.27,1775.93L803.11,1775.93L803.11,1787.29L618.27,1787.29L618.27,1775.93Z" style="fill:white;"/>
                    <path d="M618.27,1815.94L926.38,1815.94L926.38,1827.29L618.27,1827.29L618.27,1815.94Z" style="fill:rgb(90,116,153);"/>
                    <path d="M533.85,1775.93C549.68,1775.93 562.51,1788.76 562.51,1804.59C562.51,1820.42 549.68,1833.25 533.85,1833.25C518.03,1833.25 505.2,1820.42 505.2,1804.59C505.2,1788.76 518.03,1775.93 533.85,1775.93Z" style="fill:white;"/>
                </g>
                <g id="_2251293068464">
                    <path d="M618.27,1938.31L803.11,1938.31L803.11,1949.66L618.27,1949.66L618.27,1938.31Z" style="fill:white;"/>
                    <path d="M618.27,1978.31L926.38,1978.31L926.38,1989.67L618.27,1989.67L618.27,1978.31Z" style="fill:rgb(90,116,153);"/>
                    <path d="M533.85,1938.31C549.68,1938.31 562.51,1951.14 562.51,1966.96C562.51,1982.79 549.68,1995.62 533.85,1995.62C518.03,1995.62 505.2,1982.79 505.2,1966.96C505.2,1951.14 518.03,1938.31 533.85,1938.31Z" style="fill:white;"/>
                </g>
                <g id="_2214861219760">
                    <path d="M618.27,2100.68L803.11,2100.68L803.11,2112.03L618.27,2112.03L618.27,2100.68Z" style="fill:white;"/>
                    <path d="M618.27,2140.68L926.38,2140.68L926.38,2152.04L618.27,2152.04L618.27,2140.68Z" style="fill:rgb(90,116,153);"/>
                    <path d="M533.85,2100.68C549.68,2100.68 562.51,2113.51 562.51,2129.33C562.51,2145.16 549.68,2157.99 533.85,2157.99C518.03,2157.99 505.2,2145.16 505.2,2129.33C505.2,2113.51 518.03,2100.68 533.85,2100.68Z" style="fill:white;"/>
                </g>
                <g id="_2214861221728">
                    <path d="M618.27,2263.05L803.11,2263.05L803.11,2274.41L618.27,2274.41L618.27,2263.05Z" style="fill:white;"/>
                    <path d="M618.27,2303.05L926.38,2303.05L926.38,2314.41L618.27,2314.41L618.27,2303.05Z" style="fill:rgb(90,116,153);"/>
                    <path d="M533.85,2263.05C549.68,2263.05 562.51,2275.88 562.51,2291.7C562.51,2307.53 549.68,2320.36 533.85,2320.36C518.03,2320.36 505.2,2307.53 505.2,2291.7C505.2,2275.88 518.03,2263.05 533.85,2263.05Z" style="fill:white;"/>
                </g>
                <path d="M522.25,2448.33L1073.58,2448.33C1087.83,2448.33 1100.79,2454.16 1110.19,2463.56C1119.58,2472.95 1125.41,2485.91 1125.41,2500.16L1125.41,2878.87C1125.41,2893.13 1119.58,2906.09 1110.19,2915.48C1100.79,2924.87 1087.83,2930.7 1073.58,2930.7L522.25,2930.7C508,2930.7 495.04,2924.87 485.64,2915.48C476.25,2906.09 470.42,2893.13 470.42,2878.87L470.42,2500.16C470.42,2485.91 476.25,2472.95 485.64,2463.56C495.04,2454.16 508,2448.33 522.25,2448.33ZM1073.58,2453.33L522.25,2453.33C509.37,2453.33 497.67,2458.6 489.18,2467.09C480.69,2475.58 475.42,2487.29 475.42,2500.16L475.42,2878.87C475.42,2891.75 480.69,2903.46 489.18,2911.95C497.67,2920.43 509.37,2925.7 522.25,2925.7L1073.58,2925.7C1086.46,2925.7 1098.17,2920.43 1106.65,2911.95C1115.14,2903.46 1120.41,2891.75 1120.41,2878.87L1120.41,2500.16C1120.41,2487.29 1115.14,2475.58 1106.65,2467.09C1098.17,2458.6 1086.46,2453.33 1073.58,2453.33Z" style="fill:rgb(90,116,153);fill-rule:nonzero;"/>
                <path d="M547.73,2712.09L565.83,2712.09L565.83,2766.37L547.73,2766.37L547.73,2712.09Z" style="fill:rgb(12,188,116);"/>
                <path d="M558.78,2721.59C558.78,2722.69 557.89,2723.59 556.78,2723.59C555.68,2723.59 554.78,2722.69 554.78,2721.59L554.78,2662.79C554.78,2661.69 555.68,2660.79 556.78,2660.79C557.89,2660.79 558.78,2661.69 558.78,2662.79L558.78,2721.59Z" style="fill:rgb(12,188,116);fill-rule:nonzero;"/>
                <path d="M547.73,2817.09L565.83,2817.09L565.83,2871.37L547.73,2871.37L547.73,2817.09Z" style="fill:rgb(242,136,86);"/>
                <path d="M558.78,2826.59C558.78,2827.7 557.89,2828.59 556.78,2828.59C555.68,2828.59 554.78,2827.7 554.78,2826.59L554.78,2767.8C554.78,2766.69 555.68,2765.8 556.78,2765.8C557.89,2765.8 558.78,2766.69 558.78,2767.8L558.78,2826.59Z" style="fill:rgb(242,136,86);fill-rule:nonzero;"/>
                <path d="M617.74,2817.09L635.83,2817.09L635.83,2871.37L617.74,2871.37L617.74,2817.09Z" style="fill:rgb(12,188,116);"/>
                <path d="M628.78,2826.59C628.78,2827.7 627.89,2828.59 626.78,2828.59C625.68,2828.59 624.78,2827.7 624.78,2826.59L624.78,2767.8C624.78,2766.69 625.68,2765.8 626.78,2765.8C627.89,2765.8 628.78,2766.69 628.78,2767.8L628.78,2826.59Z" style="fill:rgb(12,188,116);fill-rule:nonzero;"/>
                <path d="M682.74,2767.8L700.83,2767.8L700.83,2871.37L682.74,2871.37L682.74,2767.8Z" style="fill:rgb(242,136,86);"/>
                <path d="M693.79,2771.59C693.79,2772.69 692.89,2773.59 691.79,2773.59C690.68,2773.59 689.79,2772.69 689.79,2771.59L689.79,2712.79C689.79,2711.69 690.68,2710.79 691.79,2710.79C692.89,2710.79 693.79,2711.69 693.79,2712.79L693.79,2771.59Z" style="fill:rgb(242,136,86);fill-rule:nonzero;"/>
                <path d="M757.74,2767.8L775.83,2767.8L775.83,2871.37L757.74,2871.37L757.74,2767.8Z" style="fill:rgb(242,136,86);"/>
                <path d="M768.79,2771.59C768.79,2772.69 767.89,2773.59 766.79,2773.59C765.68,2773.59 764.79,2772.69 764.79,2771.59L764.79,2712.79C764.79,2711.69 765.68,2710.79 766.79,2710.79C767.89,2710.79 768.79,2711.69 768.79,2712.79L768.79,2771.59Z" style="fill:rgb(242,136,86);fill-rule:nonzero;"/>
                <path d="M827.74,2703.72L845.84,2703.72L845.84,2871.37L827.74,2871.37L827.74,2703.72Z" style="fill:rgb(242,136,86);"/>
                <path d="M838.79,2701.59C838.79,2702.69 837.9,2703.59 836.79,2703.59C835.69,2703.59 834.79,2702.69 834.79,2701.59L834.79,2642.79C834.79,2641.69 835.69,2640.79 836.79,2640.79C837.9,2640.79 838.79,2641.69 838.79,2642.79L838.79,2701.59Z" style="fill:rgb(242,136,86);fill-rule:nonzero;"/>
                <path d="M897.75,2703.72L915.84,2703.72L915.84,2871.37L897.75,2871.37L897.75,2703.72Z" style="fill:rgb(242,136,86);"/>
                <path d="M908.79,2701.59C908.79,2702.69 907.9,2703.59 906.79,2703.59C905.69,2703.59 904.79,2702.69 904.79,2701.59L904.79,2642.79C904.79,2641.69 905.69,2640.79 906.79,2640.79C907.9,2640.79 908.79,2641.69 908.79,2642.79L908.79,2701.59Z" style="fill:rgb(242,136,86);fill-rule:nonzero;"/>
                <path d="M967.75,2758.52L985.84,2758.52L985.84,2871.37L967.75,2871.37L967.75,2758.52Z" style="fill:rgb(12,188,116);"/>
                <path d="M978.8,2761.59C978.8,2762.69 977.9,2763.59 976.8,2763.59C975.69,2763.59 974.8,2762.69 974.8,2761.59L974.8,2702.79C974.8,2701.69 975.69,2700.79 976.8,2700.79C977.9,2700.79 978.8,2701.69 978.8,2702.79L978.8,2761.59Z" style="fill:rgb(12,188,116);fill-rule:nonzero;"/>
                <path d="M1037.75,2817.09L1055.85,2817.09L1055.85,2871.37L1037.75,2871.37L1037.75,2817.09Z" style="fill:rgb(12,188,116);"/>
                <path d="M1048.8,2826.59C1048.8,2827.7 1047.9,2828.59 1046.8,2828.59C1045.7,2828.59 1044.8,2827.7 1044.8,2826.59L1044.8,2767.8C1044.8,2766.69 1045.7,2765.8 1046.8,2765.8C1047.9,2765.8 1048.8,2766.69 1048.8,2767.8L1048.8,2826.59Z" style="fill:rgb(12,188,116);fill-rule:nonzero;"/>
                <path d="M602.09,2580.34L712.24,2580.34L712.24,2609.22L602.09,2609.22L602.09,2580.34Z" style="fill:white;"/>
                <path d="M1307.55,2300.55L2020.39,2300.55C2038.84,2300.55 2055.62,2308.1 2067.78,2320.26C2079.94,2332.42 2087.49,2349.2 2087.49,2367.65L2087.49,2863.6C2087.49,2882.06 2079.94,2898.83 2067.78,2910.99C2055.62,2923.15 2038.84,2930.7 2020.39,2930.7L1307.55,2930.7C1289.1,2930.7 1272.32,2923.15 1260.16,2910.99C1248,2898.83 1240.45,2882.06 1240.45,2863.6L1240.45,2367.65C1240.45,2349.2 1248,2332.42 1260.16,2320.26C1272.32,2308.1 1289.1,2300.55 1307.55,2300.55ZM2020.39,2305.55L1307.55,2305.55C1290.48,2305.55 1274.95,2312.54 1263.7,2323.79C1252.44,2335.05 1245.45,2350.57 1245.45,2367.65L1245.45,2863.6C1245.45,2880.68 1252.44,2896.21 1263.7,2907.46C1274.95,2918.72 1290.48,2925.7 1307.55,2925.7L2020.39,2925.7C2037.46,2925.7 2052.99,2918.72 2064.24,2907.46C2075.5,2896.21 2082.49,2880.68 2082.49,2863.6L2082.49,2367.65C2082.49,2350.57 2075.5,2335.05 2064.24,2323.79C2052.99,2312.54 2037.46,2305.55 2020.39,2305.55Z" style="fill:rgb(90,116,153);fill-rule:nonzero;"/>
                <path d="M1315.25,2379.98L1633.78,2379.98L1633.78,2410.69L1315.25,2410.69L1315.25,2379.98Z" style="fill:rgb(90,116,153);"/>
                <path d="M1315.25,2429.98L1553.93,2429.98L1553.93,2460.69L1315.25,2460.69L1315.25,2429.98Z" style="fill:rgb(90,116,153);"/>
                <path d="M1315.25,2504.99L1512.11,2504.99L1512.11,2576.94L1315.25,2576.94L1315.25,2504.99Z" style="fill:white;"/>
                <path d="M1315.25,2639.99L1633.78,2639.99L1633.78,2670.7L1315.25,2670.7L1315.25,2639.99Z" style="fill:rgb(90,116,153);"/>
                <path d="M1315.25,2689.99L1553.93,2689.99L1553.93,2720.7L1315.25,2720.7L1315.25,2689.99Z" style="fill:rgb(90,116,153);"/>
                <path d="M1315.25,2765L1512.11,2765L1512.11,2836.95L1315.25,2836.95L1315.25,2765Z" style="fill:white;"/>
                <path d="M1851.39,2520.55C1900.11,2520.55 1939.59,2560.04 1939.59,2608.75C1939.59,2657.46 1900.11,2696.95 1851.39,2696.95C1802.69,2696.95 1763.2,2657.46 1763.2,2608.75C1763.2,2560.04 1802.69,2520.55 1851.39,2520.55ZM1851.4,2434.54C1947.61,2434.54 2025.6,2512.53 2025.6,2608.75C2025.6,2704.96 1947.61,2782.96 1851.4,2782.96C1755.18,2782.96 1677.19,2704.96 1677.19,2608.75C1677.19,2512.53 1755.18,2434.54 1851.4,2434.54Z" style="fill:rgb(42,89,205);"/>
                <path d="M1876.73,2524.25C1913.09,2535.14 1939.59,2568.84 1939.59,2608.75C1939.59,2649.47 1911.99,2683.75 1874.47,2693.89L1919.37,2769.19C1981.81,2742.71 2025.6,2680.84 2025.6,2608.75C2025.6,2539.96 1985.73,2480.49 1927.84,2452.18L1903.15,2475.36C1899.92,2484.26 1897.92,2489.45 1894.4,2497.96L1876.73,2524.25Z" style="fill:rgb(242,136,86);"/>
                <path d="M1851.39,2520.55C1875.76,2520.55 1897.82,2530.43 1913.78,2546.4L1966.12,2477.65C1935.47,2450.81 1895.34,2434.54 1851.4,2434.54C1791.68,2434.54 1739,2464.59 1707.61,2510.38L1785.36,2550.29C1801.52,2532.05 1825.11,2520.55 1851.39,2520.55Z" style="fill:rgb(12,188,116);"/>
                <path d="M2207.56,2300.55L2685.32,2300.55C2703.12,2300.55 2719.31,2307.83 2731.04,2319.56C2742.77,2331.29 2750.05,2347.48 2750.05,2365.28L2750.05,2865.97C2750.05,2883.78 2742.77,2899.96 2731.04,2911.69C2719.31,2923.42 2703.12,2930.7 2685.32,2930.7L2207.56,2930.7C2189.76,2930.7 2173.58,2923.42 2161.85,2911.69C2150.12,2899.96 2142.83,2883.78 2142.83,2865.97L2142.83,2365.28C2142.83,2347.48 2150.12,2331.29 2161.85,2319.56C2173.58,2307.83 2189.76,2300.55 2207.56,2300.55ZM2685.32,2305.55L2207.56,2305.55C2191.14,2305.55 2176.21,2312.27 2165.38,2323.1C2154.55,2333.92 2147.83,2348.85 2147.83,2365.28L2147.83,2865.97C2147.83,2882.4 2154.55,2897.33 2165.38,2908.16C2176.21,2918.98 2191.14,2925.7 2207.56,2925.7L2685.32,2925.7C2701.75,2925.7 2716.68,2918.98 2727.5,2908.16C2738.33,2897.33 2745.05,2882.4 2745.05,2865.97L2745.05,2365.28C2745.05,2348.85 2738.33,2333.92 2727.5,2323.1C2716.68,2312.27 2701.75,2305.55 2685.32,2305.55Z" style="fill:rgb(90,116,153);fill-rule:nonzero;"/>
                <path d="M2209.88,2372.19L2460.51,2372.19L2460.51,2471.2L2209.88,2471.2L2209.88,2372.19Z" style="fill:white;"/>
                <path d="M2209.88,2502.36L2346.66,2502.36L2346.66,2526.17L2209.88,2526.17L2209.88,2502.36Z" style="fill:rgb(242,136,86);"/>
                <path d="M2364.89,2502.36L2501.67,2502.36L2501.67,2526.17L2364.89,2526.17L2364.89,2502.36Z" style="fill:rgb(242,136,86);"/>
                <path d="M2583.75,2372.19L2662.67,2372.19C2676.08,2372.19 2687.06,2383.17 2687.06,2396.58L2687.06,2472.41C2687.06,2485.82 2676.08,2496.8 2662.67,2496.8L2583.75,2496.8C2570.34,2496.8 2559.37,2485.82 2559.37,2472.41L2559.37,2396.58C2559.37,2383.17 2570.34,2372.19 2583.75,2372.19Z" style="fill:rgb(42,89,205);"/>
                <path d="M2619.21,2405.6C2619.21,2403.4 2621,2401.6 2623.21,2401.6C2625.42,2401.6 2627.21,2403.4 2627.21,2405.6L2627.21,2463.39C2627.21,2465.6 2625.42,2467.39 2623.21,2467.39C2621,2467.39 2619.21,2465.6 2619.21,2463.39L2619.21,2405.6Z" style="fill:white;fill-rule:nonzero;"/>
                <path d="M2652.1,2430.5C2654.31,2430.5 2656.1,2432.29 2656.1,2434.5C2656.1,2436.7 2654.31,2438.5 2652.1,2438.5L2594.32,2438.5C2592.11,2438.5 2590.32,2436.7 2590.32,2434.5C2590.32,2432.29 2592.11,2430.5 2594.32,2430.5L2652.1,2430.5Z" style="fill:white;fill-rule:nonzero;"/>
                <path d="M2209.88,2672.36L2299.52,2672.36L2299.52,2696.18L2209.88,2696.18L2209.88,2672.36Z" style="fill:white;"/>
                <path d="M2341.8,2642.93L2525.09,2642.93L2525.09,2669.04L2341.8,2669.04L2341.8,2642.93Z" style="fill:rgb(90,116,153);"/>
                <path d="M2341.8,2687.93L2473.82,2687.93L2473.82,2714.05L2341.8,2714.05L2341.8,2687.93Z" style="fill:rgb(90,116,153);"/>
                <path d="M2579.89,2672.36L2710.47,2672.36L2710.47,2696.18L2579.89,2696.18L2579.89,2672.36Z" style="fill:white;"/>
                <path d="M2209.88,2837.37L2299.52,2837.37L2299.52,2861.18L2209.88,2861.18L2209.88,2837.37Z" style="fill:white;"/>
                <path d="M2341.8,2807.94L2525.09,2807.94L2525.09,2834.05L2341.8,2834.05L2341.8,2807.94Z" style="fill:rgb(90,116,153);"/>
                <path d="M2341.8,2852.94L2473.82,2852.94L2473.82,2879.05L2341.8,2879.05L2341.8,2852.94Z" style="fill:rgb(90,116,153);"/>
                <path d="M2579.89,2837.37L2710.47,2837.37L2710.47,2861.18L2579.89,2861.18L2579.89,2837.37Z" style="fill:white;"/>
                <path d="M2877.28,2300.55L3464.56,2300.55C3483.01,2300.55 3499.79,2308.1 3511.95,2320.26C3524.11,2332.42 3531.66,2349.2 3531.66,2367.65L3531.66,2863.6C3531.66,2882.06 3524.11,2898.83 3511.95,2910.99C3499.79,2923.15 3483.01,2930.7 3464.56,2930.7L2877.28,2930.7C2858.83,2930.7 2842.05,2923.15 2829.89,2910.99C2817.73,2898.83 2810.18,2882.06 2810.18,2863.6L2810.18,2367.65C2810.18,2349.2 2817.73,2332.42 2829.89,2320.26C2842.05,2308.1 2858.83,2300.55 2877.28,2300.55ZM3464.56,2305.55L2877.28,2305.55C2860.21,2305.55 2844.68,2312.54 2833.43,2323.79C2822.17,2335.05 2815.18,2350.57 2815.18,2367.65L2815.18,2863.6C2815.18,2880.68 2822.17,2896.21 2833.43,2907.46C2844.68,2918.72 2860.21,2925.7 2877.28,2925.7L3464.56,2925.7C3481.63,2925.7 3497.16,2918.72 3508.42,2907.46C3519.67,2896.21 3526.66,2880.68 3526.66,2863.6L3526.66,2367.65C3526.66,2350.57 3519.67,2335.05 3508.42,2323.79C3497.16,2312.54 3481.63,2305.55 3464.56,2305.55Z" style="fill:rgb(90,116,153);fill-rule:nonzero;"/>
                <path d="M2946.59,2674.33L2982.09,2674.33L2982.09,2792.7L2946.59,2792.7L2946.59,2674.33Z" style="fill:rgb(12,188,116);"/>
                <path d="M3026.6,2674.33L3062.1,2674.33L3062.1,2792.7L3026.6,2792.7L3026.6,2674.33Z" style="fill:rgb(12,188,116);"/>
                <path d="M3106.6,2516.17L3142.1,2516.17L3142.1,2792.7L3106.6,2792.7L3106.6,2516.17Z" style="fill:rgb(12,188,116);"/>
                <path d="M3186.6,2708.07L3222.1,2708.07L3222.1,2792.7L3186.6,2792.7L3186.6,2708.07Z" style="fill:rgb(242,136,86);"/>
                <path d="M3266.6,2553.18L3302.11,2553.18L3302.11,2792.7L3266.6,2792.7L3266.6,2553.18Z" style="fill:rgb(242,136,86);"/>
                <path d="M3346.61,2702.81L3382.11,2702.81L3382.11,2792.7L3346.61,2792.7L3346.61,2702.81Z" style="fill:rgb(242,136,86);"/>
                <path d="M3426.61,2624.61L3462.11,2624.61L3462.11,2792.7L3426.61,2792.7L3426.61,2624.61Z" style="fill:rgb(12,188,116);"/>
                <path d="M2905.49,2392.72C2905.49,2391.34 2906.61,2390.22 2907.99,2390.22C2909.37,2390.22 2910.49,2391.34 2910.49,2392.72L2910.49,2810.57L3487.93,2810.57C3489.31,2810.57 3490.43,2811.69 3490.43,2813.07C3490.43,2814.45 3489.31,2815.57 3487.93,2815.57L2907.99,2815.57C2906.61,2815.57 2905.49,2814.45 2905.49,2813.07L2905.49,2392.72Z" style="fill:rgb(90,116,153);fill-rule:nonzero;"/>
                <path d="M2844.64,2416.89L2887.37,2416.89L2887.37,2439.05L2844.64,2439.05L2844.64,2416.89Z" style="fill:rgb(90,116,153);"/>
                <path d="M2844.64,2540.12L2887.37,2540.12L2887.37,2562.28L2844.64,2562.28L2844.64,2540.12Z" style="fill:rgb(90,116,153);"/>
                <path d="M2844.64,2663.35L2887.37,2663.35L2887.37,2685.5L2844.64,2685.5L2844.64,2663.35Z" style="fill:rgb(90,116,153);"/>
                <path d="M2844.64,2786.57L2887.37,2786.57L2887.37,2808.73L2844.64,2808.73L2844.64,2786.57Z" style="fill:rgb(90,116,153);"/>
                <path d="M2939.36,2826.5L2987.42,2826.5L2987.42,2848.66L2939.36,2848.66L2939.36,2826.5Z" style="fill:rgb(90,116,153);"/>
                <path d="M3014.04,2826.5L3062.1,2826.5L3062.1,2848.66L3014.04,2848.66L3014.04,2826.5Z" style="fill:rgb(90,116,153);"/>
                <path d="M3088.71,2826.5L3136.77,2826.5L3136.77,2848.66L3088.71,2848.66L3088.71,2826.5Z" style="fill:rgb(90,116,153);"/>
                <path d="M3163.38,2826.5L3211.45,2826.5L3211.45,2848.66L3163.38,2848.66L3163.38,2826.5Z" style="fill:rgb(90,116,153);"/>
                <path d="M3238.06,2826.5L3286.12,2826.5L3286.12,2848.66L3238.06,2848.66L3238.06,2826.5Z" style="fill:rgb(90,116,153);"/>
                <path d="M3312.73,2826.5L3360.79,2826.5L3360.79,2848.66L3312.73,2848.66L3312.73,2826.5Z" style="fill:rgb(90,116,153);"/>
                <path d="M3387.41,2826.5L3435.47,2826.5L3435.47,2848.66L3387.41,2848.66L3387.41,2826.5Z" style="fill:rgb(90,116,153);"/>
                <path d="M1301.62,1407.2L2688.89,1407.2C2705.71,1407.2 2721,1414.09 2732.09,1425.17C2743.17,1436.26 2750.05,1451.55 2750.05,1468.37L2750.05,2174.68C2750.05,2191.5 2743.17,2206.8 2732.09,2217.88C2721,2228.97 2705.71,2235.85 2688.89,2235.85L1301.62,2235.85C1284.8,2235.85 1269.5,2228.97 1258.42,2217.88C1247.33,2206.8 1240.45,2191.5 1240.45,2174.68L1240.45,1468.37C1240.45,1451.55 1247.33,1436.26 1258.42,1425.17C1269.5,1414.09 1284.8,1407.2 1301.62,1407.2ZM2688.89,1412.21L1301.62,1412.21C1286.17,1412.21 1272.13,1418.53 1261.95,1428.71C1251.77,1438.89 1245.45,1452.93 1245.45,1468.37L1245.45,2174.68C1245.45,2190.12 1251.77,2204.17 1261.95,2214.35C1272.13,2224.53 1286.17,2230.85 1301.62,2230.85L2688.89,2230.85C2704.33,2230.85 2718.37,2224.53 2728.55,2214.35C2738.73,2204.17 2745.05,2190.12 2745.05,2174.68L2745.05,1468.37C2745.05,1452.93 2738.73,1438.89 2728.55,1428.71C2718.37,1418.53 2704.33,1412.21 2688.89,1412.21Z" style="fill:rgb(90,116,153);fill-rule:nonzero;"/>
                <path d="M2638.56,1725.51L2638.56,2102.49L1413.68,2102.49L1413.68,2043.02C1438.35,2035.51 1455.36,2023.19 1475.08,1990.49C1497.99,1952.5 1524.56,1887.01 1549.08,1847.33C1573.6,1807.64 1596.08,1793.75 1621.57,1789.15C1647.06,1784.55 1675.56,1789.23 1702.78,1819.83C1730,1850.43 1755.95,1906.94 1777.42,1937.54C1798.88,1968.14 1815.86,1972.82 1830.36,1965.18C1844.85,1957.53 1856.86,1937.56 1866.97,1911.56C1877.09,1885.57 1885.31,1853.55 1895.79,1838.68C1906.27,1823.81 1919.01,1826.1 1933.37,1840.99C1947.73,1855.87 1963.71,1883.36 1980.7,1895.73C1997.68,1908.1 2015.66,1905.35 2030.4,1895.73C2045.13,1886.12 2056.62,1869.63 2068.86,1838.79C2081.1,1807.95 2094.08,1762.74 2110.19,1735.39C2126.3,1708.05 2145.53,1698.56 2165.01,1699.81C2184.49,1701.05 2204.22,1713.04 2224.33,1750.38C2244.43,1787.72 2264.91,1850.4 2284.14,1890.99C2303.37,1931.57 2321.36,1950.05 2342.58,1956.67C2363.81,1963.29 2388.29,1958.05 2408.64,1934.69C2429,1911.33 2445.23,1869.86 2461.34,1817.79C2477.45,1765.71 2493.43,1703.04 2516.54,1665.96C2539.64,1628.88 2569.86,1617.39 2591.38,1632.87C2612.91,1648.36 2625.74,1690.81 2636.22,1719.29C2637.02,1721.44 2637.8,1723.51 2638.56,1725.51Z" style="fill:rgb(242,136,86);"/>
                <path d="M2512.92,1481.12L2638.56,1481.12L2638.56,1530.36L2512.92,1530.36L2512.92,1481.12Z" style="fill:rgb(12,188,116);"/>
                <path d="M1374.44,2135.02L1471.42,2135.02L1471.42,2163.11L1374.44,2163.11L1374.44,2135.02Z" style="fill:rgb(90,116,153);"/>
                <path d="M1539.25,2135.02L1636.22,2135.02L1636.22,2163.11L1539.25,2163.11L1539.25,2135.02Z" style="fill:rgb(90,116,153);"/>
                <path d="M1704.06,2135.02L1801.03,2135.02L1801.03,2163.11L1704.06,2163.11L1704.06,2135.02Z" style="fill:rgb(90,116,153);"/>
                <path d="M1868.86,2135.02L1965.84,2135.02L1965.84,2163.11L1868.86,2163.11L1868.86,2135.02Z" style="fill:rgb(90,116,153);"/>
                <path d="M2033.67,2135.02L2130.65,2135.02L2130.65,2163.11L2033.67,2163.11L2033.67,2135.02Z" style="fill:rgb(90,116,153);"/>
                <path d="M2198.48,2135.02L2295.46,2135.02L2295.46,2163.11L2198.48,2163.11L2198.48,2135.02Z" style="fill:rgb(90,116,153);"/>
                <path d="M2363.29,2135.02L2460.27,2135.02L2460.27,2163.11L2363.29,2163.11L2363.29,2135.02Z" style="fill:rgb(90,116,153);"/>
                <path d="M2528.1,2135.02L2625.08,2135.02L2625.08,2163.11L2528.1,2163.11L2528.1,2135.02Z" style="fill:rgb(90,116,153);"/>
                <path d="M1306.85,2062.28L1387.1,2062.28L1387.1,2090.36L1306.85,2090.36L1306.85,2062.28Z" style="fill:rgb(90,116,153);"/>
                <path d="M1306.85,1963.46L1387.1,1963.46L1387.1,1991.54L1306.85,1991.54L1306.85,1963.46Z" style="fill:rgb(90,116,153);"/>
                <path d="M1306.85,1864.64L1387.1,1864.64L1387.1,1892.73L1306.85,1892.73L1306.85,1864.64Z" style="fill:rgb(90,116,153);"/>
                <path d="M1306.85,1765.82L1387.1,1765.82L1387.1,1793.91L1306.85,1793.91L1306.85,1765.82Z" style="fill:rgb(90,116,153);"/>
                <path d="M1306.85,1667.01L1387.1,1667.01L1387.1,1695.09L1306.85,1695.09L1306.85,1667.01Z" style="fill:rgb(90,116,153);"/>
                <path d="M1306.85,1568.19L1387.1,1568.19L1387.1,1596.27L1306.85,1596.27L1306.85,1568.19Z" style="fill:rgb(90,116,153);"/>
                <path d="M2864.43,1861.83L3477.41,1861.83C3492.33,1861.83 3505.89,1867.94 3515.72,1877.77C3525.55,1887.6 3531.66,1901.16 3531.66,1916.08L3531.66,2180.16C3531.66,2195.08 3525.55,2208.64 3515.72,2218.47C3505.89,2228.3 3492.33,2234.41 3477.41,2234.41L2864.43,2234.41C2849.51,2234.41 2835.95,2228.3 2826.12,2218.47C2816.29,2208.64 2810.18,2195.08 2810.18,2180.16L2810.18,1916.08C2810.18,1901.16 2816.29,1887.6 2826.12,1877.77C2835.95,1867.94 2849.51,1861.83 2864.43,1861.83ZM3477.41,1866.83L2864.43,1866.83C2850.89,1866.83 2838.58,1872.37 2829.65,1881.3C2820.73,1890.23 2815.18,1902.54 2815.18,1916.08L2815.18,2180.16C2815.18,2193.7 2820.73,2206.01 2829.65,2214.94C2838.58,2223.86 2850.89,2229.41 2864.43,2229.41L3477.41,2229.41C3490.95,2229.41 3503.26,2223.86 3512.19,2214.94C3521.12,2206.01 3526.66,2193.7 3526.66,2180.16L3526.66,1916.08C3526.66,1902.54 3521.12,1890.23 3512.19,1881.3C3503.26,1872.37 3490.95,1866.83 3477.41,1866.83Z" style="fill:rgb(90,116,153);fill-rule:nonzero;"/>
                <path d="M2874.96,1933.29L3061.95,1933.29L3061.95,2017.34L2874.96,2017.34L2874.96,1933.29Z" style="fill:white;"/>
                <path d="M2874.96,2072.35L3061.95,2072.35L3061.95,2109.17L2874.96,2109.17L2874.96,2072.35Z" style="fill:white;"/>
                <path d="M2874.96,2143.74L3002.13,2143.74L3002.13,2174.18L2874.96,2174.18L2874.96,2143.74Z" style="fill:rgb(12,188,116);"/>
                <path d="M3168.46,2072.35L3261.96,2072.35L3261.96,2109.17L3168.46,2109.17L3168.46,2072.35Z" style="fill:white;"/>
                <path d="M3129.97,2143.74L3257.14,2143.74L3257.14,2174.18L3129.97,2174.18L3129.97,2143.74Z" style="fill:rgb(90,116,153);"/>
                <path d="M3383.47,2072.35L3476.97,2072.35L3476.97,2109.17L3383.47,2109.17L3383.47,2072.35Z" style="fill:white;"/>
                <path d="M3344.98,2136.45L3472.15,2136.45L3472.15,2181.47L3344.98,2181.47L3344.98,2136.45Z" style="fill:rgb(12,188,116);"/>
                <path d="M2867.9,1407.2L3473.94,1407.2C3489.82,1407.2 3504.25,1413.7 3514.71,1424.16C3525.16,1434.62 3531.66,1449.05 3531.66,1464.92L3531.66,1746.67C3531.66,1762.55 3525.16,1776.98 3514.71,1787.44C3504.25,1797.9 3489.82,1804.39 3473.94,1804.39L2867.9,1804.39C2852.03,1804.39 2837.6,1797.9 2827.14,1787.44C2816.68,1776.98 2810.18,1762.55 2810.18,1746.67L2810.18,1464.92C2810.18,1449.05 2816.68,1434.62 2827.14,1424.16C2837.6,1413.7 2852.03,1407.2 2867.9,1407.2ZM3473.94,1412.21L2867.9,1412.21C2853.4,1412.21 2840.22,1418.14 2830.67,1427.69C2821.12,1437.25 2815.18,1450.43 2815.18,1464.92L2815.18,1746.67C2815.18,1761.17 2821.12,1774.35 2830.67,1783.9C2840.22,1793.46 2853.4,1799.39 2867.9,1799.39L3473.94,1799.39C3488.44,1799.39 3501.62,1793.46 3511.17,1783.9C3520.73,1774.35 3526.66,1761.17 3526.66,1746.67L3526.66,1464.92C3526.66,1450.43 3520.73,1437.25 3511.17,1427.69C3501.62,1418.14 3488.44,1412.21 3473.94,1412.21Z" style="fill:rgb(90,116,153);fill-rule:nonzero;"/>
                <path d="M2874.96,1483.28L3125.24,1483.28L3125.24,1572.96L2874.96,1572.96L2874.96,1483.28Z" style="fill:white;"/>
                <path d="M2874.96,1618.13L3310.06,1618.13L3310.06,1662.96L2874.96,1662.96L2874.96,1618.13Z" style="fill:rgb(42,89,205);"/>
                <path d="M2874.96,1696.91L3101.03,1696.91L3101.03,1737.97L2874.96,1737.97L2874.96,1696.91Z" style="fill:rgb(242,136,86);"/>
                <path d="M3119.97,1696.91L3473.99,1696.91L3473.99,1737.97L3119.97,1737.97L3119.97,1696.91Z" style="fill:rgb(242,136,86);"/>
                <path d="M3394.01,1494.98L3473.51,1494.98L3473.51,1523.53L3394.01,1523.53L3394.01,1494.98Z" style="fill:rgb(90,116,153);"/>
                <path d="M3140.35,1572.96L3216.37,1572.96L3216.37,1540.01L3140.35,1540.01L3140.35,1572.96Z" style="fill:rgb(90,116,153);"/>
                <g id="_2214861199216">
                    <path d="M3363.37,1236.07C3361.16,1236.07 3359.37,1234.27 3359.37,1232.07C3359.37,1229.86 3361.16,1228.07 3363.37,1228.07L3481.77,1228.07C3483.98,1228.07 3485.77,1229.86 3485.77,1232.07C3485.77,1234.27 3483.98,1236.07 3481.77,1236.07L3363.37,1236.07Z" style="fill:white;fill-rule:nonzero;"/>
                    <path d="M3363.37,1266.07C3361.16,1266.07 3359.37,1264.28 3359.37,1262.07C3359.37,1259.86 3361.16,1258.07 3363.37,1258.07L3481.77,1258.07C3483.98,1258.07 3485.77,1259.86 3485.77,1262.07C3485.77,1264.28 3483.98,1266.07 3481.77,1266.07L3363.37,1266.07Z" style="fill:white;fill-rule:nonzero;"/>
                    <path d="M3363.37,1296.07C3361.16,1296.07 3359.37,1294.28 3359.37,1292.07C3359.37,1289.86 3361.16,1288.07 3363.37,1288.07L3481.77,1288.07C3483.98,1288.07 3485.77,1289.86 3485.77,1292.07C3485.77,1294.28 3483.98,1296.07 3481.77,1296.07L3363.37,1296.07Z" style="fill:white;fill-rule:nonzero;"/>
                </g>
                <g id="_2214861199120">
                    <path d="M3235.18,1224.26C3256.87,1224.26 3274.45,1241.84 3274.45,1263.53C3274.45,1285.21 3256.87,1302.8 3235.18,1302.8C3213.49,1302.8 3195.91,1285.21 3195.91,1263.53C3195.91,1241.84 3213.49,1224.26 3235.18,1224.26Z" style="fill:rgb(90,116,153);"/>
                    <path d="M3090.17,1224.26C3111.86,1224.26 3129.44,1241.84 3129.44,1263.53C3129.44,1285.21 3111.86,1302.8 3090.17,1302.8C3068.49,1302.8 3050.9,1285.21 3050.9,1263.53C3050.9,1241.84 3068.49,1224.26 3090.17,1224.26Z" style="fill:rgb(90,116,153);"/>
                </g>
                <path d="M1413.68,1551.78L2638.56,1551.78C2639.95,1551.78 2641.06,1552.9 2641.06,1554.28L2641.06,2102.49C2641.06,2103.87 2639.95,2104.99 2638.56,2104.99L1413.68,2104.99C1412.3,2104.99 1411.18,2103.87 1411.18,2102.49L1411.18,1554.28C1411.18,1552.9 1412.3,1551.78 1413.68,1551.78ZM2636.06,1556.79L1416.18,1556.79L1416.18,2099.99L2636.06,2099.99L2636.06,1556.79Z" style="fill:rgb(90,116,153);fill-rule:nonzero;"/>
            </g>
        </g>
    </g>
</svg>
