<?xml version="1.0" encoding="UTF-8"?>
<svg xmlns="http://www.w3.org/2000/svg" version="1.1" viewBox="0 0 2000 2000">
  <!-- Generator: Adobe Illustrator 28.6.0, SVG Export Plug-In . SVG Version: 1.2.0 Build 709)  -->
  <g>
    <g id="Layer_2">
      <rect width="2000" height="2000" style="fill: #516fed;"/>
      <g>
        <rect x="221.532" y="443.942" width="1556.936" height="1244.554" rx="30" ry="30" style="fill: #1d1d96;"/>
        <path d="M1748.468,443.942H251.532c-16.569,0-30,13.431-30,30v63.241h1556.936v-63.241c0-16.569-13.432-30-30-30Z" style="fill: #4040e2;"/>
        <circle cx="302.585" cy="490.562" r="19.937" style="fill: #32d2fc;"/>
        <circle cx="365.541" cy="490.562" r="19.937" style="fill: #32d2fc;"/>
        <circle cx="428.497" cy="490.562" r="19.937" style="fill: #32d2fc;"/>
      </g>
      <g>
        <g>
          <rect x="141.728" y="664.028" width="397.207" height="397.207" rx="50" ry="50" style="fill: #32d2fc;"/>
          <g>
            <path d="M482.541,830.28s0,0,0,0h0c-55.965-17.273-92.584-53.893-109.858-109.858-17.273,55.965-53.893,92.585-109.858,109.858h0s0,0,0,0c0,0,0,0,0,0h0c55.965,17.273,92.584,53.893,109.858,109.858,17.274-55.965,53.893-92.585,109.858-109.858h0s0,0,0,0Z" style="fill: #fff;"/>
            <path d="M327.528,940.138s0,0,0,0h0c-32.961-10.173-54.529-31.741-64.702-64.703-10.173,32.962-31.741,54.529-64.702,64.703h0s0,0,0,0c0,0,0,0,0,0h0c32.961,10.173,54.529,31.741,64.702,64.703,10.174-32.962,31.741-54.529,64.702-64.703h0s0,0,0,0Z" style="fill: #fff;"/>
          </g>
        </g>
        <g>
          <rect x="1433.652" y="840.322" width="424.619" height="424.619" rx="50" ry="50" style="fill: #fff;"/>
          <g>
            <rect x="1527.278" y="1090.908" width="62.798" height="114.219" style="fill: #32d2fc;"/>
            <rect x="1621.474" y="940.138" width="62.798" height="264.989" style="fill: #32d2fc;"/>
            <rect x="1715.671" y="1048.381" width="62.798" height="156.747" style="fill: #32d2fc;"/>
            <path d="M1798.458,1200.128h-299.992v-299.993c0-2.761-2.238-5-5-5s-5,2.239-5,5v304.993c0,2.762,2.238,5,5,5h304.992c2.762,0,5-2.238,5-5s-2.238-5-5-5Z"/>
          </g>
        </g>
        <g>
          <g>
            <g>
              <rect x="1295.006" y="301.612" width="563.265" height="404.456" rx="40" ry="40" style="fill: #fff;"/>
              <path d="M1362.343,689.639l-8.381,65.452c-.689,5.377,5.278,9.061,9.777,6.037l106.362-71.489h-107.758Z" style="fill: #fff;"/>
            </g>
            <g>
              <path d="M1666.432,407.808h159.463c2.762,0,5-2.239,5-5s-2.238-5-5-5h-159.463c-2.762,0-5,2.239-5,5s2.238,5,5,5Z"/>
              <path d="M1535.632,407.808h85.843c2.762,0,5-2.239,5-5s-2.238-5-5-5h-85.843c-2.762,0-5,2.239-5,5s2.238,5,5,5Z"/>
              <path d="M1825.895,465.625h-290.263c-2.762,0-5,2.239-5,5s2.238,5,5,5h290.263c2.762,0,5-2.239,5-5s-2.238-5-5-5Z"/>
              <path d="M1825.895,533.442h-62.335c-2.762,0-5,2.239-5,5s2.238,5,5,5h62.335c2.762,0,5-2.239,5-5s-2.238-5-5-5Z"/>
              <path d="M1728.284,533.442h-192.652c-2.762,0-5,2.239-5,5s2.238,5,5,5h192.652c2.762,0,5-2.239,5-5s-2.238-5-5-5Z"/>
              <path d="M1629.707,601.26h-167.194c-2.762,0-5,2.239-5,5s2.238,5,5,5h167.194c2.762,0,5-2.239,5-5s-2.238-5-5-5Z"/>
              <path d="M1424.821,601.26h-97.438c-2.762,0-5,2.239-5,5s2.238,5,5,5h97.438c2.762,0,5-2.239,5-5s-2.238-5-5-5Z"/>
            </g>
          </g>
          <g>
            <rect x="1210.622" y="256.492" width="292.632" height="292.632" rx="24.79" ry="24.79" style="fill: #32d2fc;"/>
            <g>
              <path d="M1335.763,338.134c-21.341,0-38.703,17.362-38.703,38.704v84.644c0,3.313,2.687,6,6,6s6-2.687,6-6v-38.569h53.406v38.569c0,3.313,2.687,6,6,6s6-2.687,6-6v-84.644c0-21.341-17.362-38.704-38.703-38.704ZM1309.06,410.912v-34.075c0-14.725,11.979-26.704,26.703-26.704s26.703,11.979,26.703,26.704v34.075h-53.406Z" style="fill: #fff;"/>
              <path d="M1410.817,338.134c-3.313,0-6,2.687-6,6v117.348c0,3.313,2.687,6,6,6s6-2.687,6-6v-117.348c0-3.313-2.687-6-6-6Z" style="fill: #fff;"/>
            </g>
          </g>
        </g>
        <path d="M464.334,1319.113c0-10.735-1.142-21.202-3.294-31.296l27.094-33.426-30.551-52.915-42.525,6.756c-15.467-13.976-33.874-24.754-54.179-31.311l-15.397-40.167h-61.101s-15.397,40.167-15.397,40.167c-20.305,6.557-38.712,17.335-54.179,31.311l-42.525-6.756-30.551,52.915,27.094,33.426c-2.152,10.093-3.293,20.561-3.293,31.296s1.142,21.202,3.293,31.296l-27.094,33.426,30.551,52.915,42.525-6.756c15.467,13.976,33.874,24.754,54.179,31.311l15.397,40.167h61.101s15.397-40.167,15.397-40.167c20.305-6.557,38.712-17.335,54.179-31.311l42.525,6.756,30.551-52.915-27.094-33.426c2.152-10.093,3.293-20.561,3.293-31.296ZM314.931,1403.355c-46.526,0-84.242-37.716-84.242-84.242,0-46.526,37.716-84.242,84.242-84.242,46.526,0,84.242,37.716,84.242,84.242s-37.716,84.242-84.242,84.242ZM314.931,1364.952c-25.316,0-45.839-20.523-45.839-45.839,0-25.316,20.523-45.839,45.839-45.839,25.316,0,45.839,20.523,45.839,45.839s-20.523,45.839-45.839,45.839Z" style="fill: #32d2fc;"/>
      </g>
      <g>
        <g>
          <path d="M585.479,296.612H221.532c-2.761,0-5,2.239-5,5s2.239,5,5,5h363.948c2.761,0,5-2.239,5-5s-2.239-5-5-5Z" style="fill: #fff;"/>
          <path d="M585.479,332.563H221.532c-2.761,0-5,2.239-5,5s2.239,5,5,5h363.948c2.761,0,5-2.239,5-5s-2.239-5-5-5Z" style="fill: #fff;"/>
          <path d="M416.824,368.514h-195.292c-2.761,0-5,2.239-5,5s2.239,5,5,5h195.292c2.761,0,5-2.239,5-5s-2.239-5-5-5Z" style="fill: #fff;"/>
          <path d="M1858.271,1368.046h-294.082c-2.762,0-5,2.238-5,5s2.238,5,5,5h294.082c2.762,0,5-2.238,5-5s-2.238-5-5-5Z" style="fill: #fff;"/>
          <path d="M1715.671,1403.997h-151.481c-2.762,0-5,2.238-5,5s2.238,5,5,5h151.481c2.762,0,5-2.238,5-5s-2.238-5-5-5Z" style="fill: #fff;"/>
        </g>
        <g>
          <path d="M785.037,537.182s0,0,0,0h0c-30.012-9.263-49.65-28.901-58.913-58.914-9.263,30.012-28.901,49.65-58.913,58.914h0s0,0,0,0c0,0,0,0,0,0h0c30.012,9.263,49.65,28.901,58.913,58.914,9.263-30.013,28.901-49.651,58.913-58.914h0s0,0,0,0Z" style="fill: #fff;"/>
          <path d="M1725.345,1583.676s0,0,0,0h0c-30.012-9.263-49.65-28.901-58.913-58.914-9.263,30.012-28.901,49.65-58.913,58.914h0s0,0,0,0c0,0,0,0,0,0h0c30.012,9.263,49.65,28.901,58.913,58.914,9.263-30.013,28.901-49.651,58.913-58.914h0s0,0,0,0Z" style="fill: #fff;"/>
          <path d="M877.377,600.562s0,0,0,0h0c-20.244-6.248-33.49-19.495-39.739-39.739-6.248,20.244-19.495,33.491-39.739,39.739h0s0,0,0,0c0,0,0,0,0,0h0c20.244,6.248,33.491,19.495,39.739,39.739,6.248-20.244,19.495-33.491,39.739-39.739h0s0,0,0,0Z" style="fill: #fff;"/>
          <path d="M427.696,1688.496s0,0,0,0h0c-28.025-8.65-46.362-26.987-55.012-55.013-8.65,28.025-26.987,46.363-55.012,55.013h0s0,0,0,0c0,0,0,0,0,0h0c28.025,8.65,46.363,26.987,55.012,55.013,8.65-28.025,26.987-46.363,55.012-55.013h0s0,0,0,0Z" style="fill: #fff;"/>
        </g>
      </g>
      <g>
        <rect x="704.994" y="726.739" width="590.012" height="478.388" rx="77.923" ry="77.923" style="fill: #fff;"/>
        <path d="M1217.083,1165.128h-434.166c-43.036,0-77.923-34.888-77.923-77.923v40c0,43.036,34.887,77.923,77.923,77.923h434.166c43.036,0,77.923-34.888,77.923-77.923v-40c0,43.036-34.887,77.923-77.923,77.923Z" style="fill: #e9e9ff;"/>
        <rect x="764.049" y="814.441" width="471.902" height="302.986" rx="55.461" ry="55.461" style="fill: #4040e2;"/>
        <path d="M704.994,1029.235h-28.65c-10.37,0-18.777-8.407-18.777-18.777v-89.049c0-10.37,8.407-18.777,18.777-18.777h28.65v126.604Z" style="fill: #7d7dff;"/>
        <path d="M1295.006,1029.235h28.65c10.37,0,18.777-8.407,18.777-18.777v-89.049c0-10.37-8.407-18.777-18.777-18.777h-28.65s0,126.604,0,126.604Z" style="fill: #7d7dff;"/>
        <path d="M575.803,1688.496h-116.134c1.845-79.85,15.127-152.435,38.918-213.023,20.908-53.25,50.143-98.557,86.893-134.662,30.15-29.623,64.456-52.34,101.965-67.521l85.418,99.861c-14.781,0-62.831,9.521-107.083,52.999-24.837,24.401-44.912,55.827-59.667,93.406-18.611,47.397-28.793,103.297-30.309,168.939Z" style="fill: #7d7dff;"/>
        <path d="M746.943,1342.85c-179.829,28.115-211.009,252.167-216.156,345.646h45.016c1.516-65.642,11.699-121.541,30.309-168.938,14.756-37.579,34.83-69.005,59.667-93.406,44.252-43.478,92.302-52.999,107.083-52.999l-25.919-30.302Z" style="fill: #6262f9;"/>
        <path d="M1424.197,1688.496h116.134c-1.845-79.85-15.127-152.435-38.918-213.023-20.908-53.25-50.143-98.557-86.893-134.662-30.15-29.623-64.456-52.34-101.965-67.521l-85.418,99.861c14.781,0,62.831,9.521,107.083,52.999,24.837,24.401,44.912,55.827,59.667,93.406,18.611,47.397,28.793,103.297,30.309,168.939Z" style="fill: #7d7dff;"/>
        <path d="M1253.057,1342.85c179.829,28.115,211.009,252.167,216.156,345.646h-45.016c-1.516-65.642-11.699-121.541-30.309-168.938-14.756-37.579-34.83-69.005-59.667-93.406-44.252-43.478-92.302-52.999-107.083-52.999l25.919-30.302Z" style="fill: #6262f9;"/>
        <path d="M1344.693,1254.765h-689.385c-21.483,0-38.899,17.416-38.899,38.899h0c0,12.715,6.214,24.628,16.643,31.903l48.318,33.709c9.383,6.546,14.974,17.264,14.974,28.705v300.515h607.313v-300.515c0-11.441,5.591-22.159,14.974-28.705l48.318-33.709c10.428-7.275,16.643-19.188,16.643-31.903h0c0-21.484-17.416-38.899-38.899-38.899Z" style="fill: #fff;"/>
        <rect x="696.344" y="1594.42" width="607.313" height="94.076" style="fill: #e9e9ff;"/>
        <rect x="837.638" y="1447.861" width="324.724" height="208.46" rx="23.697" ry="23.697" style="fill: #7d7dff;"/>
        <rect x="873.345" y="1483.85" width="253.31" height="136.483" rx="8.204" ry="8.204" style="fill: #4040e2;"/>
        <g>
          <path d="M1025.682,1527.521h-106.309c-2.761,0-5,2.238-5,5s2.239,5,5,5h106.309c2.762,0,5-2.238,5-5s-2.238-5-5-5Z" style="fill: #32d2fc;"/>
          <path d="M973.494,1566.661h-54.121c-2.761,0-5,2.238-5,5s2.239,5,5,5h54.121c2.761,0,5-2.238,5-5s-2.239-5-5-5Z" style="fill: #32d2fc;"/>
        </g>
        <path d="M864.516,1254.765s26.59,77.799,135.484,77.799,135.484-77.799,135.484-77.799h-270.968Z" style="fill: #7d7dff;"/>
        <path d="M911.641,1254.765s17.341,43.973,88.359,43.973,88.359-43.973,88.359-43.973h-176.719Z" style="fill: #4040e2;"/>
        <g>
          <path d="M883.973,933.39c-29.042,0-52.668,26.955-52.668,60.087,0,2.761,2.239,5,5,5s5-2.239,5-5c0-27.618,19.141-50.087,42.668-50.087s42.668,22.469,42.668,50.087c0,2.761,2.239,5,5,5s5-2.239,5-5c0-33.132-23.627-60.087-52.668-60.087Z" style="fill: #32d2fc;"/>
          <path d="M1116.027,933.39c-29.041,0-52.668,26.955-52.668,60.087,0,2.761,2.238,5,5,5s5-2.239,5-5c0-27.618,19.141-50.087,42.668-50.087s42.668,22.469,42.668,50.087c0,2.761,2.238,5,5,5s5-2.239,5-5c0-33.132-23.627-60.087-52.668-60.087Z" style="fill: #32d2fc;"/>
        </g>
        <rect x="991.508" y="600.562" width="16.985" height="79.412" style="fill: #e9e9ff;"/>
        <circle cx="1000" cy="561.894" r="47.356" style="fill: #7d7dff;"/>
        <path d="M1058.113,674.175h-116.226c-11.673,0-21.135,9.462-21.135,21.135v31.429h158.496v-31.429c0-11.673-9.462-21.135-21.135-21.135Z" style="fill: #7d7dff;"/>
        <g>
          <path d="M666.91,1423.921c-55.859-28.317-78.889-83.499-79.115-84.053-.522-1.278-1.981-1.893-3.258-1.371-1.278.521-1.893,1.979-1.372,3.257.232.571,23.912,57.44,81.485,86.626.362.184.748.271,1.128.271.912,0,1.791-.501,2.232-1.37.624-1.232.132-2.736-1.1-3.36Z"/>
          <path d="M620.308,1485.892c-.145-.005-.295,0-.444,0-60.837,0-97.782-56.868-98.149-57.444-.742-1.164-2.287-1.507-3.451-.766s-1.508,2.285-.767,3.45c.391.614,9.764,15.208,27.121,29.968,16.005,13.61,42.024,29.792,75.249,29.792.151,0,.302,0,.454,0,1.38-.006,2.495-1.131,2.489-2.511-.006-1.377-1.124-2.489-2.5-2.489Z"/>
          <path d="M592.821,1557.189c-44.45,1.989-71.581-7.312-86.514-15.465-16.076-8.776-21.819-18.13-21.886-18.24-.704-1.182-2.231-1.574-3.42-.875-1.189.702-1.584,2.235-.882,3.424.248.421,6.276,10.409,23.376,19.852,23.949,13.226,53.691,16.568,77.64,16.568,4.164,0,8.157-.102,11.91-.27,1.379-.062,2.447-1.229,2.386-2.608-.062-1.38-1.232-2.458-2.609-2.386Z"/>
          <path d="M579.368,1627.759c-76.549,10.397-112.234-17.478-112.585-17.76-1.073-.865-2.644-.7-3.513.371-.869,1.073-.704,2.647.369,3.517,1.257,1.02,26.96,21.241,82.094,21.241,10.38,0,21.807-.717,34.308-2.414,1.368-.186,2.327-1.445,2.141-2.813-.185-1.369-1.439-2.329-2.813-2.142Z"/>
          <path d="M1416.836,1341.754c.521-1.278-.094-2.737-1.373-3.258-1.278-.522-2.737.094-3.258,1.373-.226.554-23.189,55.7-79.115,84.052-1.231.624-1.724,2.128-1.099,3.36.44.869,1.319,1.37,2.231,1.37.38,0,.767-.088,1.129-.271,57.572-29.186,81.252-86.055,81.484-86.626Z"/>
          <path d="M1482.504,1431.133c.741-1.165.397-2.709-.768-3.45-1.164-.74-2.708-.399-3.451.766-.366.576-37.305,57.444-98.147,57.444-.146,0-.279.007-.444,0-1.376,0-2.494,1.112-2.5,2.489-.006,1.38,1.108,2.505,2.489,2.511.152,0,.301,0,.453,0,33.221,0,59.244-16.182,75.248-29.792,17.356-14.76,26.729-29.354,27.12-29.968Z"/>
          <path d="M1496.505,1545.885c17.1-9.442,23.127-19.431,23.376-19.852.7-1.186.307-2.711-.877-3.415-1.188-.706-2.718-.314-3.425.866-.057.094-5.795,9.456-21.886,18.24-27.055,14.771-61.974,16.562-86.515,15.465-1.372-.081-2.548,1.006-2.608,2.386-.062,1.379,1.006,2.547,2.386,2.608,4.193.188,8.235.276,12.136.276,38.795,0,63.313-8.789,77.413-16.575Z"/>
          <path d="M1536.73,1610.375c-.866-1.073-2.439-1.238-3.514-.376-.352.283-36.029,28.155-112.585,17.76-1.371-.188-2.627.773-2.813,2.142-.186,1.368.773,2.628,2.142,2.813,12.505,1.697,23.924,2.414,34.308,2.414,55.126,0,80.836-20.223,82.094-21.241,1.071-.868,1.235-2.438.369-3.512Z"/>
        </g>
      </g>
    </g>
  </g>
</svg>