<?xml version="1.0" encoding="UTF-8"?>
<svg id="Layer_1" data-name="Layer 1" xmlns="http://www.w3.org/2000/svg" viewBox="0 0 3000 2000">
  <defs>
    <style>
      .cls-1 {
        fill: #6cafd8;
      }

      .cls-2 {
        fill: #1b4a73;
      }

      .cls-3 {
        fill: #3d9ab7;
      }

      .cls-4 {
        fill: #e28f20;
      }

      .cls-5 {
        fill: #04961f;
      }

      .cls-6 {
        fill: #fe9c48;
      }

      .cls-7 {
        fill: #76bee2;
      }

      .cls-8 {
        fill: #174756;
      }

      .cls-9 {
        fill: #5da8ce;
      }

      .cls-10 {
        fill: #f8edea;
      }

      .cls-11 {
        fill: #2b6277;
      }

      .cls-12 {
        fill: #7f3300;
      }

      .cls-13 {
        fill: #000c11;
      }

      .cls-14 {
        fill: #333;
      }

      .cls-15 {
        fill: #562300;
      }

      .cls-16 {
        fill: #007c17;
      }

      .cls-17 {
        opacity: .6;
      }

      .cls-18 {
        fill: #00590d;
      }

      .cls-19, .cls-20 {
        fill: #c5e9ff;
      }

      .cls-21 {
        fill: #fbb03b;
      }

      .cls-20 {
        opacity: .5;
      }
    </style>
  </defs>
  <rect class="cls-2" width="3000" height="2000"/>
  <g id="_3" data-name="3">
    <g id="_3-2" data-name="3">
      <path class="cls-19" d="M2425.35,1633.98h-661.44c-1.1,0-1.98-.89-1.98-1.98v-405.29c0-1.1.89-1.98,1.98-1.98h661.44c1.1,0,1.98.89,1.98,1.98v405.29c0,1.1-.89,1.98-1.98,1.98ZM1765.9,1630.01h657.47v-401.33h-657.47v401.33Z"/>
      <g>
        <rect class="cls-13" x="1718.48" y="1144.38" width="752.31" height="80.33"/>
        <path class="cls-19" d="M2474.76,1142.4v84.3c0,1.1-.89,1.98-1.98,1.98h-756.28c-1.1,0-1.98-.88-1.98-1.98v-84.3c0-1.1.88-1.98,1.98-1.98h756.28c1.1,0,1.98.89,1.98,1.98ZM2470.79,1224.71v-80.33h-752.31v80.33h752.31Z"/>
      </g>
    </g>
    <g id="grup4">
      <g>
        <g>
          <rect class="cls-21" x="2186.96" y="1271.64" width="168.77" height="354.4"/>
          <rect class="cls-21" x="2010.25" y="1271.64" width="168.77" height="354.4"/>
          <rect class="cls-21" x="1833.54" y="1271.64" width="168.77" height="354.4"/>
        </g>
        <rect class="cls-4" x="1829.6" y="1267.05" width="165.38" height="362.96"/>
      </g>
      <g id="grup4-2" data-name="grup4">
        <g>
          <g>
            <path class="cls-12" d="M2103.02,1365.32c.99,3.2,3.97,5.52,7.49,5.52s6.5-2.32,7.49-5.52h-14.98Z"/>
            <path class="cls-10" d="M2132.68,1358.77c0-12.24-9.93-22.17-22.17-22.17s-22.17,9.93-22.17,22.17c0,2.28.35,4.49.99,6.56h42.37c.64-2.07.99-4.27.99-6.56Z"/>
            <rect class="cls-13" x="2109.74" y="1270.64" width="1.53" height="65.95"/>
          </g>
          <g>
            <path class="cls-12" d="M2063.17,1390.75c.99,3.2,3.97,5.52,7.49,5.52s6.5-2.32,7.49-5.52h-14.98Z"/>
            <path class="cls-10" d="M2092.83,1384.2c0-12.24-9.93-22.17-22.17-22.17s-22.17,9.93-22.17,22.17c0,2.28.35,4.49.99,6.56h42.37c.64-2.07.99-4.27.99-6.56Z"/>
            <rect class="cls-13" x="2069.89" y="1270.64" width="1.53" height="91.39"/>
          </g>
        </g>
        <g>
          <rect class="cls-3" x="1834.27" y="1399.45" width="87.63" height="183.42" rx="3.22" ry="3.22"/>
          <path class="cls-20" d="M1921.9,1402.67v176.97c0,1.78-1.45,3.22-3.22,3.22h-29.51v-183.42h29.51c1.78,0,3.22,1.45,3.22,3.22Z"/>
          <rect class="cls-10" x="1834.27" y="1445.36" width="87.63" height="3.85"/>
          <rect class="cls-10" x="1840.24" y="1466.7" width="2.73" height="28.72" rx="1.36" ry="1.36"/>
          <rect class="cls-10" x="1840.24" y="1425.47" width="2.73" height="14.36" rx="1.36" ry="1.36"/>
        </g>
        <g>
          <g id="rak">
            <g>
              <g>
                <rect class="cls-19" x="2275.85" y="1380.46" width="67.74" height="67.06"/>
                <rect class="cls-19" x="2275.85" y="1447.52" width="67.74" height="67.06"/>
                <rect class="cls-19" x="2275.85" y="1514.58" width="67.74" height="67.06"/>
              </g>
              <rect class="cls-1" x="2319.37" y="1380.46" width="22.95" height="201.18"/>
            </g>
            <path class="cls-13" d="M2343.6,1377.29h-67.74c-1.75,0-3.17,1.42-3.17,3.17v201.18c0,1.75,1.42,3.17,3.17,3.17h67.74c1.75,0,3.17-1.42,3.17-3.17v-201.18c0-1.75-1.42-3.17-3.17-3.17ZM2279.03,1450.7h61.39v60.71h-61.39v-60.71ZM2279.03,1383.64h61.39v60.71h-61.39v-60.71ZM2340.42,1578.47h-61.39v-60.71h61.39v60.71Z"/>
          </g>
          <g>
            <path class="cls-12" d="M2331.26,1484.68h-2.8c-.17-.74-.83-1.27-1.6-1.27h-13.23l2.54,5.86-3.93,17.62c-.48,2.17,1.17,4.24,3.4,4.24h14.38c2.23,0,3.88-2.06,3.4-4.24l-4.42-19.83h2.27c.8,0,1.44.65,1.44,1.44v5.09c0,.66.53,1.19,1.19,1.19s1.19-.53,1.19-1.19v-5.09c0-2.11-1.71-3.83-3.83-3.83Z"/>
            <path class="cls-10" d="M2307.47,1495.99v-7.62h-9.87v7.62c0,2.5,1.86,4.56,4.27,4.88v8.58h-1.55c-.73,0-1.32.59-1.32,1.32h7.04c0-.73-.59-1.32-1.32-1.32h-1.55v-8.58c2.41-.32,4.27-2.38,4.27-4.88Z"/>
            <path class="cls-10" d="M2294.97,1495.99v-7.62h-9.87v7.62c0,2.5,1.86,4.56,4.27,4.88v8.58h-1.55c-.73,0-1.32.59-1.32,1.32h7.04c0-.73-.59-1.32-1.32-1.32h-1.55v-8.58c2.41-.32,4.27-2.38,4.27-4.88Z"/>
            <g>
              <path class="cls-6" d="M2335.06,1552.99l-24.57,3.07c.66,5.31,4.6,9.39,9.52,10.52l.24,1.95,8.41-1.05-.24-1.95c4.5-2.31,7.3-7.24,6.64-12.54Z"/>
              <path class="cls-10" d="M2336,1559.86h-24.76c0,5.35,3.4,9.89,8.14,11.62v1.96h8.47v-1.96c4.75-1.73,8.14-6.27,8.14-11.62Z"/>
              <path class="cls-12" d="M2336,1564.88h-24.76c0,5.35,3.4,9.89,8.14,11.62v1.96h8.47v-1.96c4.75-1.73,8.14-6.27,8.14-11.62Z"/>
            </g>
            <g>
              <path class="cls-10" d="M2303.31,1562.09l-17.07-6.63c-1.43,3.69-.31,7.73,2.5,10.19l-.53,1.35,5.84,2.27.53-1.35c3.74.08,7.3-2.15,8.73-5.83Z"/>
              <path class="cls-6" d="M2302.45,1564.7l-17.99-3.43c-.74,3.89,1.1,7.66,4.31,9.57l-.27,1.43,6.16,1.18.27-1.43c3.69-.6,6.79-3.43,7.53-7.31Z"/>
              <path class="cls-12" d="M2302.53,1568.42h-18.32c0,3.96,2.51,7.31,6.02,8.6v1.45h6.27v-1.45c3.51-1.28,6.02-4.64,6.02-8.6Z"/>
            </g>
            <g>
              <g>
                <path class="cls-16" d="M2324.94,1434.11s-5.69-8.11-2.67-9.36,3.52,6.54,2.67,9.36Z"/>
                <path class="cls-5" d="M2327.68,1433.61s1.96-9.71,4.94-8.39-2.31,7.06-4.94,8.39Z"/>
                <path class="cls-5" d="M2327.1,1434.35s3.21-12.92-1.18-13.03-1.25,9.91,1.18,13.03Z"/>
                <path class="cls-16" d="M2328.82,1434.25s6.37-15.85,2.15-17.5-3.71,12.56-2.15,17.5Z"/>
              </g>
              <path class="cls-12" d="M2332.2,1444.1h-9.51c-.58,0-1.07-.43-1.14-1.01l-1.72-13.29h15.23l-1.72,13.29c-.07.58-.56,1.01-1.14,1.01Z"/>
              <rect class="cls-15" x="2319.37" y="1429.8" width="16.15" height="2.74"/>
            </g>
            <g>
              <g>
                <g>
                  <path class="cls-18" d="M2298.28,1432.73c-.07-.24-1.8-6,.51-14.22l.57.16c-2.27,8.05-.54,13.83-.52,13.89l-.57.18Z"/>
                  <g>
                    <path class="cls-4" d="M2299.24,1418.3c2.22-3.84-2.55-3.84-.33,0-2.22-3.84-4.61.29-.17.29-4.44,0-2.05,4.13.17.29-2.22,3.84,2.55,3.84.33,0,2.22,3.84,4.61-.29.17-.29,4.44,0,2.05-4.13-.17-.29Z"/>
                    <circle class="cls-13" cx="2299.08" cy="1418.58" r=".81"/>
                  </g>
                </g>
                <g>
                  <path class="cls-18" d="M2299.33,1432.16l-.59-.05c.02-.27.61-6.75,4.6-9.74l.36.48c-3.77,2.82-4.36,9.25-4.36,9.31Z"/>
                  <g>
                    <path class="cls-4" d="M2303.4,1422.45c2.42-2.11-.84-3.22-.23-.08-.62-3.15-3.21-.88-.18.16-3.03-1.04-2.37,2.34.05.24-2.42,2.11.84,3.22.23.08.62,3.15,3.21.88.18-.16,3.03,1.04,2.37-2.34-.05-.24Z"/>
                    <circle class="cls-13" cx="2303.22" cy="1422.61" r=".59"/>
                  </g>
                </g>
                <g>
                  <path class="cls-18" d="M2300.7,1432.02l-.57-.18c.09-.28,2.29-6.95,7.58-7.23l.03.59c-4.87.26-7.02,6.75-7.04,6.82Z"/>
                  <g>
                    <path class="cls-4" d="M2307.59,1424.74c2.42-2.11-.84-3.22-.23-.08-.62-3.15-3.21-.88-.18.16-3.03-1.04-2.37,2.34.05.24-2.42,2.11.84,3.22.23.08.62,3.15,3.21.88.18-.16,3.03,1.04,2.37-2.34-.05-.24Z"/>
                    <circle class="cls-13" cx="2307.41" cy="1424.9" r=".59"/>
                  </g>
                </g>
                <g>
                  <path class="cls-18" d="M2296,1431.98c-.01-.06-1.05-6.28-2.37-9.14l.54-.25c1.35,2.93,2.37,9.03,2.41,9.29l-.59.1Z"/>
                  <g>
                    <path class="cls-4" d="M2294,1422.31c2.62-2.28-.91-3.49-.25-.08-.67-3.41-3.48-.95-.2.17-3.29-1.13-2.57,2.54.05.25-2.62,2.28.91,3.49.25.08.67,3.41,3.48.95.2-.17,3.29,1.13,2.57-2.54-.05-.25Z"/>
                    <circle class="cls-13" cx="2293.8" cy="1422.48" r=".63"/>
                  </g>
                </g>
                <path class="cls-5" d="M2294.74,1431.93s-3.27-4.96-7.46-3.32-.74-2.24.47-3.01,6.54.59,6.99,6.33Z"/>
                <path class="cls-5" d="M2293.1,1432.8s2.51-3.51.31-5.92,1.33-1.09,2.16-.46,1.3,4.59-2.47,6.38Z"/>
                <path class="cls-5" d="M2303.08,1434.48s.72-4.86,4.43-5.1c3.71-.24-.23-1.94-1.41-2.09s-4.7,2.73-3.03,7.19Z"/>
                <path class="cls-5" d="M2303.47,1432.64s-2.06-3.02-.15-5.03-1.11-.95-1.83-.43-1.19,3.87,1.98,5.46Z"/>
              </g>
              <path class="cls-12" d="M2303.83,1444.19h-9.51c-.58,0-1.07-.43-1.14-1.01l-1.72-13.29h15.23l-1.72,13.29c-.07.58-.56,1.01-1.14,1.01Z"/>
              <rect class="cls-15" x="2291.01" y="1429.89" width="16.15" height="2.74"/>
            </g>
          </g>
        </g>
        <g>
          <g>
            <path class="cls-13" d="M2267.91,1511.16l-3.99-1.16-10.17,34.98h-50.71c-1.15,0-2.08.93-2.08,2.08v35.81h4.15v-33.73h48.12v33.73h4.15v-35.51l10.52-36.2Z"/>
            <rect class="cls-12" x="2204.42" y="1539.68" width="46.13" height="5.3" rx="2.65" ry="2.65"/>
            <rect class="cls-12" x="2244.62" y="1521.37" width="26.39" height="4.23" rx="2.12" ry="2.12" transform="translate(167.85 3270.14) rotate(-73.9)"/>
          </g>
          <g>
            <path class="cls-13" d="M1985.77,1544.98h-50.71l-10.17-34.98-3.99,1.16,10.52,36.2v35.51h4.15v-33.73h48.12v33.73h4.15v-35.81c0-1.15-.93-2.08-2.08-2.08Z"/>
            <rect class="cls-12" x="1938.27" y="1539.68" width="46.13" height="5.3" rx="2.65" ry="2.65" transform="translate(3922.66 3084.67) rotate(-180)"/>
            <rect class="cls-12" x="1917.8" y="1521.37" width="26.39" height="4.23" rx="2.12" ry="2.12" transform="translate(1002.89 3801.28) rotate(-106.1)"/>
          </g>
        </g>
        <g>
          <g>
            <path class="cls-3" d="M2004.4,1513.97h180c9.39,0,17.02,7.63,17.02,17.02h-214.05c0-9.39,7.63-17.02,17.02-17.02Z"/>
            <rect class="cls-13" x="2027.53" y="1530.99" width="133.75" height="51.88"/>
          </g>
          <path class="cls-12" d="M2104.33,1498.85h-2.39s-.01,0-.02,0h0s-28.19,0-28.19,0c0,0,0,0,0,0,0,0-.01,0-.02,0h-2.39c-.36,0-.65.29-.65.65s.29.65.65.65h2.39s.05-.01.08-.02c0,0,0,0,0,.01.14,1.58.55,3.08,1.17,4.47,0,0,0,0,0,.01.05.12.11.24.17.36,0,0,0,0,0,0,.21.42.43.84.68,1.23.27.44.57.87.89,1.28.47.6.98,1.16,1.54,1.67.44.41.91.79,1.4,1.15,1.25.9,2.65,1.59,4.16,2.04t0,0v1.57h8.05v-1.57s0,0,0,0c1.51-.45,2.91-1.14,4.16-2.04.49-.35.96-.73,1.4-1.14.56-.52,1.07-1.08,1.54-1.67.32-.41.61-.83.89-1.28.24-.4.47-.81.68-1.23,0,0,0,0,0,0,.06-.12.12-.24.17-.36,0,0,0,0,0-.01.62-1.39,1.03-2.89,1.17-4.47,0,0,0,0,0-.01.03,0,.05.02.08.02h2.39c.36,0,.65-.29.65-.65s-.29-.65-.65-.65Z"/>
          <g>
            <path class="cls-10" d="M2145.44,1489.88h-2.29v-.12c0-.25-.2-.45-.45-.45h-19.46c-.26,0-.4.29-.24.5l3.22,4.19v16.42c0,1.97,1.6,3.57,3.57,3.57h9.79c1.97,0,3.57-1.6,3.57-3.57v-18.42h2.29c.34,0,.62.28.62.62v7.62c0,.58.47,1.06,1.06,1.06s1.06-.47,1.06-1.06v-7.62c0-1.51-1.23-2.74-2.74-2.74Z"/>
            <path class="cls-13" d="M2113.23,1513.99h-3.2c-.4,0-.73-.31-.76-.71l-.8-10.7h6.33l-.8,10.7c-.03.4-.36.71-.76.71Z"/>
            <path class="cls-13" d="M2120.46,1513.99h-3.2c-.4,0-.73-.31-.76-.71l-.8-10.7h6.33l-.8,10.7c-.03.4-.36.71-.76.71Z"/>
          </g>
          <g>
            <path class="cls-1" d="M2052.57,1514.07c-4.19,0-8.38-.19-12.54-.57-.65-.06-1.14-.64-1.08-1.29.06-.66.65-1.13,1.29-1.08,8.17.74,16.47.74,24.64,0,.64-.05,1.23.42,1.29,1.08.06.65-.42,1.23-1.08,1.29-4.16.38-8.35.57-12.54.57Z"/>
            <path class="cls-13" d="M2052.57,1511.38c-4.19,0-8.38-.19-12.54-.57-.65-.06-1.14-.64-1.08-1.29.06-.66.65-1.13,1.29-1.08,8.17.74,16.47.74,24.64,0,.64-.05,1.23.42,1.29,1.08.06.65-.42,1.23-1.08,1.29-4.16.38-8.35.57-12.54.57Z"/>
            <path class="cls-1" d="M2052.57,1508.69c-4.19,0-8.38-.19-12.54-.57-.65-.06-1.14-.64-1.08-1.29.06-.66.65-1.13,1.29-1.08,8.17.74,16.47.74,24.64,0,.64-.05,1.23.42,1.29,1.08.06.65-.42,1.23-1.08,1.29-4.16.38-8.35.57-12.54.57Z"/>
            <path class="cls-13" d="M2052.57,1506c-4.19,0-8.38-.19-12.54-.57-.65-.06-1.14-.64-1.08-1.29.06-.66.65-1.13,1.29-1.08,8.17.74,16.47.74,24.64,0,.64-.05,1.23.42,1.29,1.08.06.65-.42,1.23-1.08,1.29-4.16.38-8.35.57-12.54.57Z"/>
          </g>
        </g>
      </g>
      <path class="cls-13" d="M2363.67,1267.67v362.33c0,2.19-1.78,3.97-3.97,3.97h-530.13c-2.19,0-3.97-1.78-3.97-3.97v-362.33c0-2.19,1.78-3.97,3.97-3.97h530.13c2.19,0,3.97,1.78,3.97,3.97ZM2355.73,1626.04v-354.4h-168.77v354.4h168.77ZM2179.02,1626.04v-354.4h-168.77v354.4h168.77ZM2002.31,1626.04v-354.4h-168.77v354.4h168.77Z"/>
    </g>
  </g>
  <g id="_2" data-name="2">
    <path class="cls-19" d="M1170.4,1063.32h1.98v59.38h-3.97v-61.37c0,1.1.89,1.98,1.98,1.98Z"/>
    <g>
      <path class="cls-19" d="M1831.58,1061.34v61.37h-3.97v-59.38h1.98c1.1,0,1.98-.89,1.98-1.98Z"/>
      <path class="cls-19" d="M1831.58,723.32v338.01c0-1.1-.89-1.98-1.98-1.98h-1.98v-334.63l-327.62-117.86-327.62,117.86v334.63h-1.98c-1.1,0-1.98.89-1.98,1.98v-338.01c0-.83.52-1.59,1.31-1.87l329.6-118.58c.44-.16.91-.16,1.35,0l329.6,118.58c.79.28,1.31,1.03,1.31,1.87Z"/>
      <path class="cls-19" d="M1829.6,1059.35c1.1,0,1.98.89,1.98,1.98s-.89,1.98-1.98,1.98h-659.2c-1.1,0-1.98-.89-1.98-1.98s.89-1.98,1.98-1.98h659.2Z"/>
    </g>
    <rect class="cls-19" x="1256.94" y="1542.47" width="487.56" height="3.97"/>
    <path class="cls-1" d="M1120.77,755.94l-9.4-26.14,383.93-138.13c3.04-1.09,6.36-1.09,9.4,0l383.93,138.13-9.41,26.14-379.23-136.44-379.23,136.44Z"/>
    <g id="grup3">
      <g>
        <g>
          <rect class="cls-21" x="1571.79" y="772.89" width="127.7" height="165.9"/>
          <rect class="cls-21" x="1436.15" y="772.89" width="127.71" height="165.9"/>
          <rect class="cls-21" x="1300.51" y="772.89" width="127.7" height="165.9"/>
        </g>
        <rect class="cls-4" x="1635.64" y="768.92" width="66.32" height="173.84"/>
      </g>
      <g id="grup3-2" data-name="grup3">
        <g>
          <path class="cls-12" d="M1635.98,845.98c.99,3.2,3.97,5.52,7.49,5.52s6.5-2.32,7.49-5.52h-14.98Z"/>
          <path class="cls-10" d="M1665.64,839.42c0-12.24-9.93-22.17-22.17-22.17s-22.17,9.93-22.17,22.17c0,2.28.35,4.49.99,6.56h42.37c.64-2.07.99-4.27.99-6.56Z"/>
          <rect class="cls-13" x="1642.71" y="768.92" width="1.53" height="48.33"/>
        </g>
        <g id="grup_3" data-name="grup 3">
          <g>
            <rect class="cls-7" x="1297.82" y="874.26" width="100.01" height="49.85"/>
            <rect class="cls-9" x="1397.83" y="874.26" width="100.01" height="49.85"/>
            <rect class="cls-3" x="1497.84" y="874.26" width="100.01" height="49.85"/>
            <g>
              <rect class="cls-10" x="1297.82" y="893.72" width="17.02" height="30.4"/>
              <rect class="cls-12" x="1369.71" y="893.72" width="14.41" height="30.4"/>
              <rect class="cls-13" x="1314.84" y="890.47" width="10.71" height="33.64"/>
              <rect class="cls-13" x="1346.25" y="906.28" width="9.09" height="17.83"/>
              <rect class="cls-13" x="1448.6" y="901.01" width="9.09" height="23.1"/>
              <rect class="cls-12" x="1406.64" y="906.28" width="9.09" height="17.83"/>
              <rect class="cls-12" x="1423.43" y="906.28" width="9.09" height="17.83"/>
              <rect class="cls-10" x="1325.55" y="891.69" width="5.36" height="32.42"/>
              <rect class="cls-10" x="1458.69" y="891.69" width="5.36" height="32.42"/>
              <rect class="cls-13" x="1471.87" y="891.69" width="5.36" height="32.42"/>
              <rect class="cls-12" x="1464.65" y="899.8" width="5.36" height="24.32"/>
              <rect class="cls-10" x="1337.71" y="891.69" width="7.7" height="32.42"/>
              <rect class="cls-10" x="1384.12" y="891.69" width="7.7" height="32.42"/>
              <rect class="cls-19" x="1477.22" y="897.57" width="7.7" height="26.55"/>
              <rect class="cls-13" x="1503.77" y="897.57" width="10.25" height="26.55"/>
              <rect class="cls-12" x="1485.73" y="897.57" width="7.7" height="26.55"/>
              <rect class="cls-19" x="1494.85" y="899.8" width="7.7" height="24.32"/>
              <rect class="cls-12" x="1391.82" y="901.01" width="7.7" height="23.1"/>
              <rect class="cls-10" x="1355.34" y="895.54" width="7.7" height="28.57"/>
              <rect class="cls-10" x="1415.73" y="895.54" width="7.7" height="28.57"/>
              <rect class="cls-10" x="1515.65" y="895.54" width="7.7" height="28.57"/>
              <rect class="cls-10" x="1570.1" y="898.78" width="6.33" height="25.33"/>
              <rect class="cls-10" x="1584.69" y="898.78" width="3.9" height="25.33"/>
              <rect class="cls-12" x="1588.59" y="904.73" width="6.35" height="19.39"/>
              <rect class="cls-13" x="1577.66" y="908.78" width="6.33" height="15.33"/>
              <rect class="cls-12" x="1550.71" y="895.54" width="4.95" height="28.57"/>
              <rect class="cls-10" x="1525.65" y="895.54" width="7.7" height="28.57"/>
              <rect class="cls-12" x="1534.57" y="895.54" width="7.7" height="28.57"/>
              <rect class="cls-19" x="1542.27" y="900.61" width="7.7" height="23.51"/>
              <rect class="cls-19" x="1556.45" y="904.52" width="7.7" height="19.59"/>
              <rect class="cls-19" x="1564.97" y="904.52" width="4.31" height="19.59"/>
              <rect class="cls-10" x="1440.13" y="895.54" width="7.7" height="28.57"/>
              <rect class="cls-13" x="1330.91" y="900.4" width="5.36" height="23.71"/>
              <rect class="cls-13" x="1364.35" y="900.4" width="5.36" height="23.71"/>
              <rect class="cls-13" x="1433.38" y="900.4" width="5.36" height="23.71"/>
              <rect class="cls-13" x="1400.56" y="900.4" width="5.36" height="23.71"/>
            </g>
          </g>
          <g>
            <g>
              <rect class="cls-14" x="1616.87" y="907.9" width="39.72" height="9.69" rx="1.62" ry="1.62"/>
              <rect class="cls-1" x="1617.44" y="917.19" width="38.56" height="15.84"/>
            </g>
            <g>
              <rect class="cls-10" x="1586.39" y="932.83" width="100.53" height="4.96" rx="2.48" ry="2.48"/>
              <rect class="cls-3" x="1596.43" y="937.79" width="80.45" height="4.96"/>
            </g>
            <g>
              <path class="cls-14" d="M1612.57,932.83h-14.79c-1.57,0-2.84-1.27-2.84-2.84h0c0-1.57,1.27-2.84,2.84-2.84h14.79c-.49,1.5-.52,3.85,0,5.67Z"/>
              <path class="cls-12" d="M1600.03,925.11h11.61v2.04h-11.61c-.56,0-1.02-.46-1.02-1.02h0c0-.56.46-1.02,1.02-1.02Z"/>
              <path class="cls-10" d="M1600.34,922.21h11.87v2.9h-11.87c-.8,0-1.45-.65-1.45-1.45h0c0-.8.65-1.45,1.45-1.45Z"/>
            </g>
            <g>
              <g>
                <path class="cls-12" d="M1682.45,917.53l-.58,9.53c-.02.41-.37.73-.77.73h-19.79c-.44,0-.8-.37-.78-.83l.59-9.52c.02-.41.36-.73.77-.73h19.79c.44,0,.8.37.77.82Z"/>
                <path class="cls-1" d="M1670.92,922.76h1.82c.69,0,1.25.56,1.25,1.25v8.82h-4.32v-8.82c0-.69.56-1.25,1.25-1.25Z"/>
                <path class="cls-14" d="M1661.88,916.72v11.08h-.58c-.44,0-.8-.37-.78-.83l.59-9.52c.02-.41.36-.73.77-.73Z"/>
                <circle class="cls-14" cx="1671.83" cy="924.55" r=".44"/>
              </g>
              <g>
                <rect class="cls-14" x="1651.43" y="932.1" width="15.1" height=".64"/>
                <g>
                  <rect class="cls-14" x="1651.89" y="931.82" width=".47" height=".29"/>
                  <rect class="cls-14" x="1652.49" y="931.82" width=".47" height=".29"/>
                  <rect class="cls-14" x="1653.08" y="931.81" width=".47" height=".29"/>
                  <rect class="cls-14" x="1653.68" y="931.81" width=".47" height=".29"/>
                  <rect class="cls-14" x="1654.28" y="931.81" width=".47" height=".29"/>
                  <rect class="cls-14" x="1654.87" y="931.81" width=".47" height=".29"/>
                  <rect class="cls-14" x="1655.47" y="931.81" width=".47" height=".29"/>
                  <rect class="cls-14" x="1656.06" y="931.81" width=".47" height=".29"/>
                  <rect class="cls-14" x="1656.66" y="931.81" width=".47" height=".29"/>
                  <rect class="cls-14" x="1657.26" y="931.81" width=".47" height=".29"/>
                  <rect class="cls-14" x="1657.85" y="931.81" width=".47" height=".29"/>
                  <rect class="cls-14" x="1658.45" y="931.81" width=".47" height=".29"/>
                  <rect class="cls-14" x="1659.04" y="931.81" width=".47" height=".29"/>
                  <rect class="cls-14" x="1659.64" y="931.81" width=".47" height=".29"/>
                  <rect class="cls-14" x="1660.24" y="931.81" width=".47" height=".29"/>
                  <rect class="cls-14" x="1660.83" y="931.81" width=".47" height=".29"/>
                  <rect class="cls-14" x="1661.43" y="931.81" width=".47" height=".29"/>
                  <rect class="cls-14" x="1662.02" y="931.81" width=".47" height=".29"/>
                  <rect class="cls-14" x="1662.62" y="931.81" width=".47" height=".29"/>
                  <rect class="cls-14" x="1663.22" y="931.81" width=".47" height=".29"/>
                  <rect class="cls-14" x="1663.81" y="931.81" width=".47" height=".29"/>
                  <rect class="cls-14" x="1664.41" y="931.81" width=".47" height=".29"/>
                  <rect class="cls-14" x="1665" y="931.81" width=".47" height=".29"/>
                  <rect class="cls-14" x="1665.6" y="931.81" width=".47" height=".29"/>
                </g>
              </g>
            </g>
          </g>
        </g>
        <g>
          <g>
            <path class="cls-10" d="M1680.03,908.26c-1.95-2.29-4.78-3.6-7.77-3.6s-5.8,1.3-7.75,3.57l-.06.07.53.45.06-.07c1.81-2.11,4.45-3.32,7.22-3.32s5.43,1.22,7.24,3.35l.06.07.53-.45-.06-.07Z"/>
            <path class="cls-10" d="M1672.26,906.88c-2.33,0-4.54,1.02-6.07,2.79l-.06.07.53.45.06-.07c1.39-1.62,3.41-2.54,5.54-2.54s4.17.94,5.56,2.57l.06.07.53-.45-.06-.07c-1.53-1.79-3.75-2.82-6.09-2.82Z"/>
            <path class="cls-10" d="M1672.26,909.09c-1.68,0-3.28.73-4.38,2.01l-.06.07.53.45.06-.07c.97-1.12,2.38-1.77,3.85-1.77s2.91.65,3.88,1.8l.06.07.53-.45-.06-.07c-1.1-1.3-2.71-2.04-4.41-2.04Z"/>
            <path class="cls-10" d="M1672.26,911.3c-1.03,0-2.02.45-2.7,1.23l-.06.07.53.45.06-.06c.55-.63,1.34-.99,2.17-.99s1.65.37,2.19,1.02l.06.07.53-.45-.06-.07c-.68-.8-1.68-1.26-2.72-1.26Z"/>
          </g>
          <circle class="cls-10" cx="1672.27" cy="914.22" r="1.04"/>
        </g>
      </g>
      <path class="cls-13" d="M1707.43,768.92v173.84c0,2.19-1.78,3.97-3.97,3.97h-406.92c-2.19,0-3.97-1.78-3.97-3.97v-173.84c0-2.19,1.78-3.97,3.97-3.97h406.92c2.19,0,3.97,1.78,3.97,3.97ZM1699.49,938.79v-165.9h-127.7v165.9h127.7ZM1563.85,938.79v-165.9h-127.71v165.9h127.71ZM1428.21,938.79v-165.9h-127.7v165.9h127.7Z"/>
    </g>
    <g id="grup2">
      <g>
        <g>
          <rect class="cls-21" x="1503.97" y="1167.89" width="181.34" height="370.61"/>
          <rect class="cls-21" x="1314.69" y="1167.89" width="181.34" height="370.61"/>
        </g>
        <rect class="cls-4" x="1311.66" y="1163.44" width="116.55" height="379.03"/>
      </g>
      <g id="grup2-2" data-name="grup2">
        <g id="grup_2" data-name="grup 2">
          <g>
            <g>
              <g>
                <rect class="cls-3" x="1629.04" y="1415.06" width="28.37" height="62.69" rx="2.76" ry="2.76"/>
                <g>
                  <circle class="cls-13" cx="1643.23" cy="1459.54" r="10.78"/>
                  <circle class="cls-8" cx="1643.23" cy="1459.54" r="8.68"/>
                  <circle class="cls-11" cx="1643.23" cy="1459.54" r="5.33"/>
                </g>
              </g>
              <g>
                <circle class="cls-13" cx="1643.23" cy="1428.99" r="5.33"/>
                <circle class="cls-8" cx="1643.23" cy="1428.99" r="4.16"/>
                <circle class="cls-11" cx="1643.23" cy="1428.99" r="2.4"/>
              </g>
            </g>
            <g>
              <g>
                <rect class="cls-3" x="1342.19" y="1415.06" width="28.37" height="62.69" rx="2.76" ry="2.76"/>
                <g>
                  <circle class="cls-13" cx="1356.37" cy="1459.54" r="10.78"/>
                  <circle class="cls-8" cx="1356.37" cy="1459.54" r="8.68"/>
                  <circle class="cls-11" cx="1356.37" cy="1459.54" r="5.33"/>
                </g>
              </g>
              <g>
                <circle class="cls-13" cx="1356.37" cy="1428.99" r="5.33"/>
                <circle class="cls-8" cx="1356.37" cy="1428.99" r="4.16"/>
                <circle class="cls-11" cx="1356.37" cy="1428.99" r="2.4"/>
              </g>
            </g>
          </g>
          <g>
            <g>
              <rect class="cls-13" x="1410.99" y="1326.28" width="177.62" height="88.09" rx="5.08" ry="5.08"/>
              <rect class="cls-1" x="1461.88" y="1287.64" width="75.83" height="165.37" transform="translate(2870.13 -129.48) rotate(90)"/>
              <g>
                <path class="cls-13" d="M1414.2,1436.57l-2.81-2.52,18.77-20.94c.6-.66,1.58-.82,2.35-.37.77.45,1.12,1.38.84,2.23l-5.27,15.81-3.58-1.19,2.4-7.19-12.71,14.17Z"/>
                <path class="cls-13" d="M1585.4,1436.57l-12.71-14.17,2.58,7.73-3.58,1.19-5.45-16.35c-.28-.85.07-1.78.84-2.23.77-.45,1.75-.29,2.35.37l18.77,20.94-2.81,2.52Z"/>
              </g>
            </g>
            <g>
              <g>
                <g>
                  <rect class="cls-1" x="1379.43" y="1433.5" width="48.15" height="44.25"/>
                  <rect class="cls-3" x="1427.58" y="1433.5" width="48.15" height="44.25"/>
                  <rect class="cls-1" x="1475.73" y="1433.5" width="48.15" height="44.25"/>
                  <rect class="cls-3" x="1523.88" y="1433.5" width="48.15" height="44.25"/>
                  <rect class="cls-19" x="1572.02" y="1433.5" width="48.15" height="44.25"/>
                </g>
                <g>
                  <rect class="cls-13" x="1420.15" y="1448.76" width="1.66" height="13.72" rx=".83" ry=".83"/>
                  <rect class="cls-13" x="1419.44" y="1452.76" width="3.09" height="5.72" rx=".75" ry=".75"/>
                </g>
                <g>
                  <rect class="cls-13" x="1468.02" y="1448.76" width="1.66" height="13.72" rx=".83" ry=".83"/>
                  <rect class="cls-13" x="1467.31" y="1452.76" width="3.09" height="5.72" rx=".75" ry=".75"/>
                </g>
                <g>
                  <rect class="cls-13" x="1515.9" y="1448.76" width="1.66" height="13.72" rx=".83" ry=".83"/>
                  <rect class="cls-13" x="1515.19" y="1452.76" width="3.09" height="5.72" rx=".75" ry=".75"/>
                </g>
                <g>
                  <rect class="cls-13" x="1563.78" y="1448.76" width="1.66" height="13.72" rx=".83" ry=".83"/>
                  <rect class="cls-13" x="1563.07" y="1452.76" width="3.09" height="5.72" rx=".75" ry=".75"/>
                </g>
                <g>
                  <rect class="cls-13" x="1611.66" y="1448.76" width="1.66" height="13.72" rx=".83" ry=".83"/>
                  <rect class="cls-13" x="1610.95" y="1452.76" width="3.09" height="5.72" rx=".75" ry=".75"/>
                </g>
                <rect class="cls-13" x="1425.99" y="1433.5" width="3.17" height="44.25"/>
                <rect class="cls-13" x="1474.14" y="1433.5" width="3.17" height="44.25"/>
                <rect class="cls-13" x="1522.29" y="1433.5" width="3.17" height="44.25"/>
                <rect class="cls-13" x="1570.44" y="1433.5" width="3.17" height="44.25"/>
              </g>
              <rect class="cls-13" x="1376.86" y="1433.5" width="245.88" height="5.61"/>
            </g>
          </g>
          <g>
            <rect class="cls-19" x="1342.12" y="1323.26" width="16.33" height="54.71" rx="2.77" ry="2.77"/>
            <g>
              <path class="cls-13" d="M1345.66,1366.01h-1.27c0-2.98,2.42-5.4,5.4-5.4v1.27c-2.28,0-4.13,1.85-4.13,4.13Z"/>
              <path class="cls-13" d="M1349.68,1372.5c-2.98,0-5.4-2.42-5.4-5.4h1.27c0,2.28,1.85,4.13,4.13,4.13v1.27Z"/>
              <path class="cls-13" d="M1350.77,1372.61v-1.27c2.28,0,4.13-1.85,4.13-4.13h1.27c0,2.98-2.42,5.4-5.4,5.4Z"/>
              <path class="cls-13" d="M1356.28,1366.12h-1.27c0-2.28-1.85-4.13-4.13-4.13v-1.27c2.98,0,5.4,2.42,5.4,5.4Z"/>
            </g>
            <circle class="cls-13" cx="1350.28" cy="1366.65" r="3.75"/>
            <g>
              <g>
                <g>
                  <g>
                    <rect class="cls-13" x="1345.38" y="1331.57" width="1.73" height="2.08"/>
                    <rect class="cls-13" x="1349.33" y="1331.57" width="1.73" height="2.08"/>
                    <rect class="cls-13" x="1353.29" y="1331.57" width="1.73" height="2.08"/>
                  </g>
                  <g>
                    <rect class="cls-13" x="1345.38" y="1335.5" width="1.73" height="2.08"/>
                    <rect class="cls-13" x="1349.33" y="1335.5" width="1.73" height="2.08"/>
                    <rect class="cls-13" x="1353.29" y="1335.5" width="1.73" height="2.08"/>
                  </g>
                  <g>
                    <rect class="cls-13" x="1345.38" y="1339.42" width="1.73" height="2.08"/>
                    <rect class="cls-13" x="1349.33" y="1339.42" width="1.73" height="2.08"/>
                    <rect class="cls-13" x="1353.29" y="1339.42" width="1.73" height="2.08"/>
                  </g>
                  <g>
                    <rect class="cls-13" x="1345.38" y="1343.34" width="1.73" height="2.08"/>
                    <rect class="cls-13" x="1349.33" y="1343.34" width="1.73" height="2.08"/>
                    <rect class="cls-13" x="1353.29" y="1343.34" width="1.73" height="2.08"/>
                  </g>
                  <g>
                    <rect class="cls-13" x="1345.38" y="1347.27" width="1.73" height="2.08"/>
                    <rect class="cls-13" x="1349.33" y="1347.27" width="1.73" height="2.08"/>
                    <rect class="cls-13" x="1353.29" y="1347.27" width="1.73" height="2.08"/>
                  </g>
                </g>
                <rect class="cls-13" x="1345.5" y="1352.46" width="9.4" height="1.15"/>
              </g>
              <circle class="cls-13" cx="1354.18" cy="1326.15" r="1.01"/>
            </g>
          </g>
          <g>
            <rect class="cls-19" x="1556.05" y="1226.67" width="57.62" height="58.54" rx="1.59" ry="1.59"/>
            <path class="cls-13" d="M1608.92,1282.43h-48.1c-1.09,0-1.98-.89-1.98-1.98v-49.02c0-1.09.89-1.98,1.98-1.98h48.1c1.09,0,1.98.89,1.98,1.98v49.02c0,1.09-.89,1.98-1.98,1.98ZM1560.82,1230.24c-.66,0-1.19.53-1.19,1.19v49.02c0,.66.53,1.19,1.19,1.19h48.1c.66,0,1.19-.53,1.19-1.19v-49.02c0-.66-.53-1.19-1.19-1.19h-48.1Z"/>
            <g>
              <path class="cls-3" d="M1572.36,1259.53l-9.33,16.16h22.52l-9.33-16.16c-.86-1.49-3-1.49-3.86,0Z"/>
              <path class="cls-10" d="M1587.27,1248.72l-15.57,26.97h35l-15.57-26.97c-.86-1.49-3-1.49-3.86,0Z"/>
            </g>
          </g>
        </g>
        <g>
          <g>
            <g>
              <g>
                <path class="cls-10" d="M1658.24,1399.08c-3.77-4.42-9.25-6.96-15.04-6.96s-11.23,2.51-14.99,6.9l-.11.13,1.02.87.11-.13c3.51-4.09,8.6-6.43,13.97-6.43s10.5,2.36,14.02,6.48l.11.13,1.02-.87-.11-.13Z"/>
                <path class="cls-10" d="M1643.21,1396.41c-4.51,0-8.78,1.97-11.73,5.39l-.11.13,1.02.87.11-.13c2.7-3.13,6.6-4.92,10.71-4.92s8.06,1.81,10.76,4.98l.11.13,1.02-.87-.11-.13c-2.95-3.46-7.25-5.45-11.78-5.45Z"/>
                <path class="cls-10" d="M1643.21,1400.68c-3.25,0-6.34,1.42-8.48,3.89l-.11.13,1.02.87.11-.13c1.88-2.17,4.6-3.42,7.46-3.42s5.62,1.27,7.5,3.47l.11.13,1.02-.87-.11-.13c-2.14-2.51-5.24-3.94-8.53-3.94Z"/>
                <path class="cls-10" d="M1643.21,1404.96c-2,0-3.9.87-5.22,2.38l-.11.13,1.02.87.11-.12c1.06-1.21,2.59-1.91,4.2-1.91s3.18.72,4.25,1.97l.11.13,1.02-.87-.11-.13c-1.32-1.55-3.24-2.44-5.27-2.44Z"/>
              </g>
              <circle class="cls-10" cx="1643.23" cy="1410.6" r="2"/>
            </g>
            <g>
              <g>
                <path class="cls-10" d="M1371.39,1399.57c-3.77-4.42-9.25-6.96-15.04-6.96s-11.23,2.51-14.99,6.9l-.11.13,1.02.87.11-.13c3.51-4.09,8.6-6.43,13.97-6.43s10.5,2.36,14.02,6.48l.11.13,1.02-.87-.11-.13Z"/>
                <path class="cls-10" d="M1356.35,1396.89c-4.51,0-8.78,1.97-11.73,5.39l-.11.13,1.02.87.11-.13c2.7-3.13,6.6-4.92,10.71-4.92s8.06,1.81,10.76,4.98l.11.13,1.02-.87-.11-.13c-2.95-3.46-7.25-5.45-11.78-5.45Z"/>
                <path class="cls-10" d="M1356.35,1401.17c-3.25,0-6.34,1.42-8.48,3.89l-.11.13,1.02.87.11-.13c1.88-2.17,4.6-3.42,7.46-3.42s5.62,1.27,7.5,3.47l.11.13,1.02-.87-.11-.13c-2.14-2.51-5.24-3.94-8.53-3.94Z"/>
                <path class="cls-10" d="M1356.35,1405.45c-2,0-3.9.87-5.22,2.38l-.11.13,1.02.87.11-.12c1.06-1.21,2.59-1.91,4.2-1.91s3.18.72,4.25,1.97l.11.13,1.02-.87-.11-.13c-1.32-1.55-3.24-2.44-5.27-2.44Z"/>
              </g>
              <circle class="cls-10" cx="1356.37" cy="1411.09" r="2"/>
            </g>
          </g>
          <g>
            <path class="cls-12" d="M1409.63,1253.85c.99,3.2,3.97,5.52,7.49,5.52s6.5-2.32,7.49-5.52h-14.98Z"/>
            <path class="cls-10" d="M1439.29,1247.3c0-12.24-9.93-22.17-22.17-22.17s-22.17,9.93-22.17,22.17c0,2.28.35,4.49.99,6.56h42.37c.64-2.07.99-4.27.99-6.56Z"/>
            <rect class="cls-13" x="1416.35" y="1163.44" width="1.53" height="61.69"/>
          </g>
        </g>
      </g>
      <path class="cls-13" d="M1693.24,1163.92v378.55c0,2.19-1.78,3.97-3.97,3.97h-378.55c-2.19,0-3.97-1.78-3.97-3.97v-378.55c0-2.19,1.78-3.97,3.97-3.97h378.55c2.19,0,3.97,1.78,3.97,3.97ZM1685.31,1538.5v-370.61h-181.34v370.61h181.34ZM1496.03,1538.5v-370.61h-181.34v370.61h181.34Z"/>
    </g>
  </g>
  <g id="_1" data-name="1">
    <g>
      <path class="cls-19" d="M1236.09,1633.98h-661.44c-1.1,0-1.98-.89-1.98-1.98v-405.29c0-1.1.89-1.98,1.98-1.98h661.44c1.1,0,1.98.89,1.98,1.98v405.29c0,1.1-.89,1.98-1.98,1.98ZM576.63,1630.01h657.47v-401.33h-657.47v401.33Z"/>
      <g>
        <rect class="cls-13" x="529.21" y="1144.38" width="752.31" height="80.33"/>
        <path class="cls-19" d="M1285.49,1142.4v84.3c0,1.1-.89,1.98-1.98,1.98h-756.28c-1.1,0-1.98-.88-1.98-1.98v-84.3c0-1.1.89-1.98,1.98-1.98h756.28c1.1,0,1.98.89,1.98,1.98ZM1281.52,1224.71v-80.33h-752.31v80.33h752.31Z"/>
      </g>
    </g>
    <g id="grup1">
      <g>
        <g>
          <rect class="cls-21" x="997.69" y="1271.64" width="168.77" height="354.4"/>
          <rect class="cls-21" x="820.98" y="1271.64" width="168.77" height="354.4"/>
          <rect class="cls-21" x="644.27" y="1271.64" width="168.77" height="354.4"/>
        </g>
        <rect class="cls-4" x="1014.98" y="1267.05" width="155.42" height="362.96"/>
      </g>
      <g id="grup1-2" data-name="grup1">
        <g>
          <g>
            <rect class="cls-13" x="1031.11" y="1493.15" width="90.4" height="66.47"/>
            <g>
              <path class="cls-12" d="M1092.07,1484.99h-9.74v-12.03h-12.03v12.03h-9.74c-4.5,0-8.16,3.65-8.16,8.16h47.83c0-4.5-3.65-8.16-8.16-8.16Z"/>
              <path class="cls-10" d="M1098,1472.96c0,1.91-43.38,1.91-43.38,0-2.63,0-4.47-2.59-3.6-5.07l16.27-46.48h18.04l16.27,46.48c.87,2.48-.97,5.07-3.6,5.07Z"/>
            </g>
          </g>
          <g>
            <g>
              <path class="cls-1" d="M1083.52,1572.38v48.91c0,1.3-1.06,2.36-2.36,2.36h-2.14v-49.85l4.5-1.42Z"/>
              <path class="cls-1" d="M727.28,1573.02v48.29c0,1.3,1.06,2.36,2.36,2.36h1.77v-48.93l-4.13-1.73Z"/>
              <rect class="cls-3" x="731.41" y="1577.45" width="347.61" height="46.2"/>
            </g>
            <path class="cls-19" d="M1078.28,1577.45h-345.84c-4.85,0-7.08-6.03-3.4-9.19l79.23-67.87h194.17l79.23,67.87c3.68,3.15,1.45,9.19-3.4,9.19Z"/>
            <path class="cls-10" d="M817.25,1446.27h175.43c5.4,0,9.78,4.38,9.78,9.78v44.35h-194.98v-44.35c0-5.4,4.38-9.78,9.78-9.78Z"/>
            <g>
              <rect class="cls-3" x="828.34" y="1480.18" width="51.68" height="29.9"/>
              <rect class="cls-3" x="926.83" y="1480.18" width="51.68" height="29.9"/>
            </g>
          </g>
          <g>
            <g>
              <path class="cls-13" d="M946.22,1305.15h-81.71c-5.93,0-10.66,4.94-10.4,10.86l.84,19.47h100.83l.84-19.47c.26-5.92-4.47-10.86-10.4-10.86Z"/>
              <path class="cls-1" d="M854.95,1335.48l.12,2.87c.13,3.04,2.64,5.44,5.68,5.44h89.21c3.05,0,5.55-2.4,5.68-5.44l.12-2.87h-100.83Z"/>
            </g>
            <rect class="cls-19" x="931.37" y="1310.88" width="15.5" height="2.92" rx="1.46" ry="1.46"/>
            <circle class="cls-19" cx="945.64" cy="1330.54" r="1.91"/>
          </g>
          <g>
            <rect class="cls-19" x="750.6" y="1368.66" width="20.4" height="68.36" rx="3.46" ry="3.46"/>
            <g>
              <path class="cls-13" d="M755.02,1422.07h-1.59c0-3.72,3.03-6.74,6.75-6.74v1.59c-2.84,0-5.16,2.31-5.16,5.16Z"/>
              <path class="cls-13" d="M760.05,1430.18c-3.72,0-6.75-3.03-6.75-6.75h1.59c0,2.84,2.31,5.16,5.16,5.16v1.59Z"/>
              <path class="cls-13" d="M761.41,1430.31v-1.59c2.84,0,5.16-2.31,5.16-5.16h1.59c0,3.72-3.03,6.74-6.75,6.74Z"/>
              <path class="cls-13" d="M768.29,1422.2h-1.59c0-2.84-2.31-5.16-5.16-5.16v-1.59c3.72,0,6.75,3.03,6.75,6.75Z"/>
            </g>
            <circle class="cls-13" cx="760.8" cy="1422.86" r="4.69"/>
            <g>
              <g>
                <g>
                  <g>
                    <rect class="cls-13" x="754.67" y="1379.04" width="2.16" height="2.6"/>
                    <rect class="cls-13" x="759.61" y="1379.04" width="2.16" height="2.6"/>
                    <rect class="cls-13" x="764.56" y="1379.04" width="2.16" height="2.6"/>
                  </g>
                  <g>
                    <rect class="cls-13" x="754.67" y="1383.94" width="2.16" height="2.6"/>
                    <rect class="cls-13" x="759.61" y="1383.94" width="2.16" height="2.6"/>
                    <rect class="cls-13" x="764.56" y="1383.94" width="2.16" height="2.6"/>
                  </g>
                  <g>
                    <rect class="cls-13" x="754.67" y="1388.85" width="2.16" height="2.6"/>
                    <rect class="cls-13" x="759.61" y="1388.85" width="2.16" height="2.6"/>
                    <rect class="cls-13" x="764.56" y="1388.85" width="2.16" height="2.6"/>
                  </g>
                  <g>
                    <rect class="cls-13" x="754.67" y="1393.75" width="2.16" height="2.6"/>
                    <rect class="cls-13" x="759.61" y="1393.75" width="2.16" height="2.6"/>
                    <rect class="cls-13" x="764.56" y="1393.75" width="2.16" height="2.6"/>
                  </g>
                  <g>
                    <rect class="cls-13" x="754.67" y="1398.65" width="2.16" height="2.6"/>
                    <rect class="cls-13" x="759.61" y="1398.65" width="2.16" height="2.6"/>
                    <rect class="cls-13" x="764.56" y="1398.65" width="2.16" height="2.6"/>
                  </g>
                </g>
                <rect class="cls-13" x="754.82" y="1405.14" width="11.74" height="1.44"/>
              </g>
              <circle class="cls-13" cx="765.66" cy="1372.26" r="1.26"/>
            </g>
          </g>
          <g>
            <g>
              <circle class="cls-13" cx="1076.31" cy="1343.34" r="25.5"/>
              <circle class="cls-19" cx="1076.31" cy="1343.34" r="21.43"/>
              <rect class="cls-13" x="1075.76" y="1321.92" width="1.11" height="2.51"/>
              <rect class="cls-13" x="1054.88" y="1342.79" width="2.51" height="1.11"/>
              <rect class="cls-13" x="1075.76" y="1362.27" width="1.11" height="2.51"/>
              <rect class="cls-13" x="1095.23" y="1342.79" width="2.51" height="1.11"/>
            </g>
            <path class="cls-13" d="M1089.33,1355.15l-11.41-11.49c.02-.1.03-.21.03-.32,0-.59-.32-1.11-.79-1.4l-.86-11.5-.86,11.5c-.47.29-.79.81-.79,1.4,0,.91.74,1.65,1.65,1.65.13,0,.26-.02.38-.05l12.64,10.21Z"/>
          </g>
        </g>
        <g>
          <g>
            <path class="cls-10" d="M774.37,1347.65c-3.41-4-8.36-6.29-13.59-6.29s-10.15,2.27-13.55,6.24l-.1.12.92.79.1-.11c3.17-3.69,7.77-5.81,12.63-5.81s9.5,2.14,12.67,5.86l.1.12.92-.79-.1-.12Z"/>
            <path class="cls-10" d="M760.78,1345.23c-4.07,0-7.94,1.78-10.61,4.88l-.1.12.92.79.1-.11c2.44-2.83,5.97-4.45,9.69-4.45s7.29,1.64,9.73,4.5l.1.12.92-.79-.1-.12c-2.67-3.13-6.55-4.93-10.65-4.93Z"/>
            <path class="cls-10" d="M760.78,1349.1c-2.94,0-5.73,1.28-7.66,3.51l-.1.12.92.79.1-.11c1.7-1.96,4.16-3.09,6.74-3.09s5.08,1.14,6.78,3.14l.1.12.92-.79-.1-.12c-1.93-2.27-4.74-3.56-7.71-3.56Z"/>
            <path class="cls-10" d="M760.78,1352.96c-1.81,0-3.53.78-4.72,2.15l-.1.12.92.79.1-.11c.96-1.1,2.34-1.73,3.8-1.73s2.88.65,3.84,1.78l.1.12.92-.79-.1-.12c-1.19-1.4-2.93-2.2-4.76-2.2Z"/>
          </g>
          <circle class="cls-10" cx="760.8" cy="1358.06" r="1.81"/>
        </g>
      </g>
      <path class="cls-13" d="M1174.4,1267.67v362.33c0,2.19-1.78,3.97-3.97,3.97h-530.13c-2.19,0-3.97-1.78-3.97-3.97v-362.33c0-2.19,1.78-3.97,3.97-3.97h530.13c2.19,0,3.97,1.78,3.97,3.97ZM1166.46,1626.04v-354.4h-168.77v354.4h168.77ZM989.75,1626.04v-354.4h-168.77v354.4h168.77ZM813.04,1626.04v-354.4h-168.77v354.4h168.77Z"/>
    </g>
  </g>
  <g id="line">
    <g>
      <rect class="cls-19" x="1125.68" y="405.26" width="2.5" height="6"/>
      <path class="cls-19" d="M1128.18,997.76h-2.5v-12.22h2.5v12.22ZM1128.18,973.32h-2.5v-12.22h2.5v12.22ZM1128.18,948.88h-2.5v-12.22h2.5v12.22ZM1128.18,924.45h-2.5v-12.22h2.5v12.22ZM1128.18,900.01h-2.5v-12.22h2.5v12.22ZM1128.18,875.57h-2.5v-12.22h2.5v12.22ZM1128.18,851.13h-2.5v-12.22h2.5v12.22ZM1128.18,826.7h-2.5v-12.22h2.5v12.22ZM1128.18,802.26h-2.5v-12.22h2.5v12.22ZM1128.18,777.82h-2.5v-12.22h2.5v12.22ZM1128.18,753.38h-2.5v-12.22h2.5v12.22ZM1128.18,728.95h-2.5v-12.22h2.5v12.22ZM1128.18,704.51h-2.5v-12.22h2.5v12.22ZM1128.18,680.07h-2.5v-12.22h2.5v12.22ZM1128.18,655.63h-2.5v-12.22h2.5v12.22ZM1128.18,631.19h-2.5v-12.22h2.5v12.22ZM1128.18,606.76h-2.5v-12.22h2.5v12.22ZM1128.18,582.32h-2.5v-12.22h2.5v12.22ZM1128.18,557.88h-2.5v-12.22h2.5v12.22ZM1128.18,533.44h-2.5v-12.22h2.5v12.22ZM1128.18,509.01h-2.5v-12.22h2.5v12.22ZM1128.18,484.57h-2.5v-12.22h2.5v12.22ZM1128.18,460.13h-2.5v-12.22h2.5v12.22ZM1128.18,435.69h-2.5v-12.22h2.5v12.22Z"/>
      <polygon class="cls-19" points="1132.93 1017.23 1125.68 1017.23 1125.68 1009.98 1128.18 1009.98 1128.18 1014.73 1132.93 1014.73 1132.93 1017.23"/>
      <path class="cls-19" d="M1333.67,1017.23h-12.55v-2.5h12.55v2.5ZM1308.57,1017.23h-12.55v-2.5h12.55v2.5ZM1283.48,1017.23h-12.55v-2.5h12.55v2.5ZM1258.39,1017.23h-12.55v-2.5h12.55v2.5ZM1233.3,1017.23h-12.55v-2.5h12.55v2.5ZM1208.2,1017.23h-12.55v-2.5h12.55v2.5ZM1183.11,1017.23h-12.55v-2.5h12.55v2.5ZM1158.02,1017.23h-12.55v-2.5h12.55v2.5Z"/>
      <polygon class="cls-19" points="1353.46 1021.98 1350.96 1021.98 1350.96 1017.23 1346.21 1017.23 1346.21 1014.73 1353.46 1014.73 1353.46 1021.98"/>
      <path class="cls-19" d="M1353.46,1285.63h-2.5v-11.98h2.5v11.98ZM1353.46,1261.66h-2.5v-11.98h2.5v11.98ZM1353.46,1237.7h-2.5v-11.98h2.5v11.98ZM1353.46,1213.73h-2.5v-11.98h2.5v11.98ZM1353.46,1189.76h-2.5v-11.98h2.5v11.98ZM1353.46,1165.79h-2.5v-11.98h2.5v11.98ZM1353.46,1141.82h-2.5v-11.98h2.5v11.98ZM1353.46,1117.85h-2.5v-11.98h2.5v11.98ZM1353.46,1093.88h-2.5v-11.98h2.5v11.98ZM1353.46,1069.92h-2.5v-11.98h2.5v11.98ZM1353.46,1045.95h-2.5v-11.98h2.5v11.98Z"/>
      <rect class="cls-19" x="1350.96" y="1297.62" width="2.5" height="6"/>
    </g>
    <path class="cls-19" d="M677.58,1305.26h-2.5v-12h2.5v12ZM677.58,1281.26h-2.5v-12h2.5v12ZM677.58,1257.26h-2.5v-12h2.5v12ZM677.58,1233.26h-2.5v-12h2.5v12ZM677.58,1209.26h-2.5v-12h2.5v12ZM677.58,1185.26h-2.5v-12h2.5v12ZM677.58,1161.26h-2.5v-12h2.5v12ZM677.58,1137.26h-2.5v-12h2.5v12ZM677.58,1113.26h-2.5v-12h2.5v12ZM677.58,1089.26h-2.5v-12h2.5v12ZM677.58,1065.26h-2.5v-12h2.5v12ZM677.58,1041.26h-2.5v-12h2.5v12ZM677.58,1017.26h-2.5v-12h2.5v12ZM677.58,993.26h-2.5v-12h2.5v12ZM677.58,969.26h-2.5v-12h2.5v12ZM677.58,945.26h-2.5v-12h2.5v12ZM677.58,921.26h-2.5v-12h2.5v12ZM677.58,897.26h-2.5v-12h2.5v12ZM677.58,873.26h-2.5v-12h2.5v12ZM677.58,849.26h-2.5v-12h2.5v12ZM677.58,825.26h-2.5v-12h2.5v12ZM677.58,801.26h-2.5v-12h2.5v12ZM677.58,777.26h-2.5v-12h2.5v12ZM677.58,753.26h-2.5v-12h2.5v12ZM677.58,729.26h-2.5v-12h2.5v12ZM677.58,705.26h-2.5v-12h2.5v12ZM677.58,681.26h-2.5v-12h2.5v12ZM677.58,657.26h-2.5v-12h2.5v12ZM677.58,633.26h-2.5v-12h2.5v12ZM677.58,609.26h-2.5v-12h2.5v12ZM677.58,585.26h-2.5v-12h2.5v12ZM677.58,561.26h-2.5v-12h2.5v12ZM677.58,537.26h-2.5v-12h2.5v12ZM677.58,513.26h-2.5v-12h2.5v12ZM677.58,489.26h-2.5v-12h2.5v12ZM677.58,465.26h-2.5v-12h2.5v12ZM677.58,441.26h-2.5v-12h2.5v12ZM677.58,417.26h-2.5v-12h2.5v12Z"/>
    <path class="cls-19" d="M1429.46,1212.06h-2.5v-2.9h2.5v2.9ZM1429.46,1197.16h-2.5v-12h2.5v12ZM1429.46,1173.16h-2.5v-12h2.5v12ZM1429.46,1149.16h-2.5v-10h4.5v2.5h-2v7.5ZM1551.46,1141.66h-12v-2.5h12v2.5ZM1527.46,1141.66h-12v-2.5h12v2.5ZM1503.46,1141.66h-12v-2.5h12v2.5ZM1479.46,1141.66h-12v-2.5h12v2.5ZM1455.46,1141.66h-12v-2.5h12v2.5ZM1561.55,1137.26h-2.5v-12h2.5v12ZM1561.55,1113.26h-2.5v-12h2.5v12ZM1561.55,1089.26h-2.5v-12h2.5v12ZM1561.55,1065.26h-2.5v-12h2.5v12ZM1561.55,1041.26h-2.5v-12h2.5v12ZM1561.55,1017.26h-2.5v-12h2.5v12ZM1561.55,993.26h-2.5v-12h2.5v12ZM1561.55,969.26h-2.5v-12h2.5v12ZM1561.55,945.26h-2.5v-12h2.5v12ZM1561.55,921.26h-2.5v-12h2.5v12ZM1561.55,897.26h-2.5v-12h2.5v12ZM1561.55,873.26h-2.5v-12h2.5v12ZM1561.55,849.26h-2.5v-12h2.5v12ZM1561.55,825.26h-2.5v-12h2.5v12ZM1561.55,801.26h-2.5v-12h2.5v12ZM1561.55,777.26h-2.5v-12h2.5v12ZM1561.55,753.26h-2.5v-12h2.5v12ZM1561.55,729.26h-2.5v-12h2.5v12ZM1561.55,705.26h-2.5v-12h2.5v12ZM1561.55,681.26h-2.5v-12h2.5v12ZM1561.55,657.26h-2.5v-12h2.5v12ZM1561.55,633.26h-2.5v-12h2.5v12ZM1561.55,609.26h-2.5v-12h2.5v12ZM1561.55,585.26h-2.5v-12h2.5v12ZM1561.55,561.26h-2.5v-12h2.5v12ZM1561.55,537.26h-2.5v-12h2.5v12ZM1561.55,513.26h-2.5v-12h2.5v12ZM1561.55,489.26h-2.5v-12h2.5v12ZM1561.55,465.26h-2.5v-12h2.5v12ZM1561.55,441.26h-2.5v-12h2.5v12ZM1561.55,417.26h-2.5v-12h2.5v12Z"/>
    <path class="cls-19" d="M1632.61,1344.96h-2.5v-6.12h2.5v6.12ZM1632.61,1326.84h-2.5v-12h2.5v12ZM1632.61,1302.84h-2.5v-12h2.5v12ZM1632.61,1278.84h-2.5v-12h2.5v12ZM1632.61,1254.84h-2.5v-12h2.5v12ZM1632.61,1230.84h-2.5v-12h2.5v12ZM1632.61,1206.83h-2.5v-12h2.5v12ZM1632.61,1182.84h-2.5v-12h2.5v12ZM1632.61,1158.84h-2.5v-12h2.5v12ZM1632.61,1134.84h-2.5v-12h2.5v12ZM1632.61,1110.83h-2.5v-12h2.5v12ZM1632.61,1086.84h-2.5v-12h2.5v12ZM1632.61,1062.84h-2.5v-12h2.5v12ZM1632.61,1038.84h-2.5v-12h2.5v12ZM1632.61,1014.84h-2.5v-12h2.5v12ZM1963.12,1001.25h-10.59v-2.5h8.09v-1.41h2.5v3.91ZM1940.53,1001.25h-12v-2.5h12v2.5ZM1916.53,1001.25h-12v-2.5h12v2.5ZM1892.53,1001.25h-12v-2.5h12v2.5ZM1868.53,1001.25h-12v-2.5h12v2.5ZM1844.53,1001.25h-12v-2.5h12v2.5ZM1820.53,1001.25h-12v-2.5h12v2.5ZM1796.53,1001.25h-12v-2.5h12v2.5ZM1772.53,1001.25h-12v-2.5h12v2.5ZM1748.53,1001.25h-12v-2.5h12v2.5ZM1724.53,1001.25h-12v-2.5h12v2.5ZM1700.53,1001.25h-12v-2.5h12v2.5ZM1676.53,1001.25h-12v-2.5h12v2.5ZM1652.53,1001.25h-12v-2.5h12v2.5ZM1963.12,985.34h-2.5v-12h2.5v12ZM1963.12,961.34h-2.5v-12h2.5v12ZM1963.12,937.34h-2.5v-12h2.5v12ZM1963.12,913.34h-2.5v-12h2.5v12ZM1963.12,889.34h-2.5v-12h2.5v12ZM1963.12,865.34h-2.5v-12h2.5v12ZM1963.12,841.34h-2.5v-12h2.5v12ZM1963.12,817.34h-2.5v-12h2.5v12ZM1963.12,793.34h-2.5v-12h2.5v12ZM1963.12,769.34h-2.5v-12h2.5v12ZM1963.12,745.34h-2.5v-12h2.5v12ZM1963.12,721.34h-2.5v-12h2.5v12ZM1963.12,697.34h-2.5v-12h2.5v12ZM1963.12,673.34h-2.5v-12h2.5v12ZM1963.12,649.34h-2.5v-12h2.5v12ZM1963.12,625.34h-2.5v-12h2.5v12ZM1963.12,601.34h-2.5v-12h2.5v12ZM1963.12,577.34h-2.5v-12h2.5v12ZM1963.12,553.34h-2.5v-12h2.5v12ZM1963.12,529.34h-2.5v-12h2.5v12ZM1963.12,505.34h-2.5v-12h2.5v12ZM1963.12,481.34h-2.5v-12h2.5v12ZM1963.12,457.34h-2.5v-12h2.5v12ZM1963.12,433.34h-2.5v-12h2.5v12ZM1963.12,409.34h-2.5v-12h2.5v12ZM1963.12,385.34h-2.5v-12h2.5v12Z"/>
    <path class="cls-19" d="M2133.93,1470.32h-2.5v-10.45h2.5v10.45ZM2133.93,1447.87h-2.5v-12h2.5v12ZM2133.93,1423.87h-2.5v-12h2.5v12ZM2133.93,1399.87h-2.5v-12h2.5v12ZM2133.93,1375.87h-2.5v-12h2.5v12ZM2133.93,1351.87h-2.5v-12h2.5v12ZM2133.93,1327.87h-2.5v-12h2.5v12ZM2133.93,1303.87h-2.5v-12h2.5v12ZM2133.93,1279.87h-2.5v-12h2.5v12ZM2133.93,1255.87h-2.5v-12h2.5v12ZM2133.93,1231.87h-2.5v-12h2.5v12ZM2133.93,1207.87h-2.5v-12h2.5v12ZM2133.93,1183.87h-2.5v-12h2.5v12ZM2133.93,1159.87h-2.5v-12h2.5v12ZM2133.93,1135.87h-2.5v-12h2.5v12ZM2133.93,1111.87h-2.5v-12h2.5v12ZM2340.83,1093.27h-12v-2.5h12v2.5ZM2316.83,1093.27h-12v-2.5h12v2.5ZM2292.83,1093.27h-12v-2.5h12v2.5ZM2268.83,1093.27h-12v-2.5h12v2.5ZM2244.83,1093.27h-12v-2.5h12v2.5ZM2220.83,1093.27h-12v-2.5h12v2.5ZM2196.83,1093.27h-12v-2.5h12v2.5ZM2172.83,1093.27h-12v-2.5h12v2.5ZM2148.83,1093.27h-12v-2.5h12v2.5ZM2351.32,1089.26h-2.5v-12h2.5v12ZM2351.32,1065.26h-2.5v-12h2.5v12ZM2351.32,1041.26h-2.5v-12h2.5v12ZM2351.32,1017.26h-2.5v-12h2.5v12ZM2351.32,993.26h-2.5v-12h2.5v12ZM2351.32,969.26h-2.5v-12h2.5v12ZM2351.32,945.26h-2.5v-12h2.5v12ZM2351.32,921.26h-2.5v-12h2.5v12ZM2351.32,897.26h-2.5v-12h2.5v12ZM2351.32,873.26h-2.5v-12h2.5v12ZM2351.32,849.26h-2.5v-12h2.5v12ZM2351.32,825.26h-2.5v-12h2.5v12ZM2351.32,801.26h-2.5v-12h2.5v12ZM2351.32,777.26h-2.5v-12h2.5v12ZM2351.32,753.26h-2.5v-12h2.5v12ZM2351.32,729.26h-2.5v-12h2.5v12ZM2351.32,705.26h-2.5v-12h2.5v12ZM2351.32,681.26h-2.5v-12h2.5v12ZM2351.32,657.26h-2.5v-12h2.5v12ZM2351.32,633.26h-2.5v-12h2.5v12ZM2351.32,609.26h-2.5v-12h2.5v12ZM2351.32,585.26h-2.5v-12h2.5v12ZM2351.32,561.26h-2.5v-12h2.5v12ZM2351.32,537.26h-2.5v-12h2.5v12ZM2351.32,513.26h-2.5v-12h2.5v12ZM2351.32,489.26h-2.5v-12h2.5v12ZM2351.32,465.26h-2.5v-12h2.5v12ZM2351.32,441.26h-2.5v-12h2.5v12ZM2351.32,417.26h-2.5v-12h2.5v12Z"/>
  </g>
  <g id="icon">
    <g>
      <path class="cls-19" d="M1578.93,334.59h-37.8c-8.54,0-15.5-6.95-15.5-15.5v-19.28c0-4.48-1.79-8.77-5.04-12.09-10.4-10.63-15.99-24.67-15.73-39.54.24-14.23,5.95-27.68,16.08-37.87,10.13-10.19,23.54-15.99,37.76-16.32,14.99-.34,29.16,5.22,39.88,15.69,10.72,10.47,16.62,24.49,16.62,39.47s-5.57,28.14-15.67,38.5c-3.29,3.38-5.11,7.74-5.11,12.29v19.15c0,8.54-6.95,15.5-15.5,15.5ZM1560.04,197.29c-.42,0-.84,0-1.26.01-27.43.64-50.13,23.49-50.6,50.94-.24,13.98,5.01,27.18,14.79,37.16,3.86,3.94,5.99,9.06,5.99,14.41v19.28c0,6.72,5.46,12.18,12.18,12.18h37.8c6.72,0,12.18-5.46,12.18-12.18v-19.15c0-5.42,2.15-10.6,6.05-14.61,9.5-9.74,14.73-22.59,14.73-36.19s-5.55-27.26-15.63-37.1c-9.77-9.55-22.59-14.76-36.22-14.76Z"/>
      <g>
        <rect class="cls-19" x="1531.92" y="338.27" width="56.23" height="3.32"/>
        <rect class="cls-19" x="1531.92" y="346.31" width="56.23" height="3.32"/>
        <rect class="cls-19" x="1531.92" y="354.34" width="56.23" height="3.32"/>
      </g>
      <path class="cls-19" d="M1560.03,377.19c-7.82,0-14.19-6.37-14.19-14.19v-1.66h28.38v1.66c0,7.83-6.37,14.19-14.19,14.19ZM1549.29,364.65c.8,5.21,5.32,9.22,10.75,9.22s9.95-4,10.75-9.22h-21.5Z"/>
      <g>
        <g>
          <path class="cls-19" d="M1587.19,260.58c-6.82-8-16.73-12.58-27.19-12.58s-20.3,4.55-27.11,12.48l-.2.23,1.85,1.57.2-.23c6.34-7.39,15.55-11.63,25.26-11.63s19,4.27,25.35,11.73l.2.23,1.85-1.57-.2-.23Z"/>
          <path class="cls-19" d="M1559.99,255.73c-8.15,0-15.88,3.55-21.22,9.75l-.2.23,1.85,1.57.2-.23c4.87-5.66,11.94-8.9,19.38-8.9s14.58,3.28,19.46,9l.2.23,1.85-1.57-.2-.23c-5.34-6.26-13.1-9.86-21.3-9.86Z"/>
          <path class="cls-19" d="M1559.99,263.47c-5.88,0-11.47,2.56-15.33,7.03l-.2.23,1.85,1.57.2-.23c3.4-3.93,8.31-6.18,13.49-6.18s10.17,2.29,13.57,6.28l.2.23,1.85-1.58-.2-.23c-3.86-4.53-9.48-7.13-15.42-7.13Z"/>
          <path class="cls-19" d="M1559.99,271.21c-3.62,0-7.06,1.57-9.44,4.3l-.2.23,1.85,1.57.2-.23c1.92-2.2,4.69-3.46,7.6-3.46s5.76,1.3,7.68,3.56l.2.23,1.85-1.57-.2-.23c-2.39-2.8-5.86-4.41-9.53-4.41Z"/>
        </g>
        <circle class="cls-19" cx="1560.04" cy="281.41" r="3.62"/>
      </g>
    </g>
    <g>
      <path class="cls-19" d="M1149.57,239.75c-16.29-18.46-32.95-26.92-49.53-25.14l-2.23.24v98.42c-7.31-13.9-21.89-23.41-38.66-23.41-24.07,0-43.66,19.58-43.66,43.66s19.58,43.66,43.66,43.66,43.66-19.58,43.66-43.66v-114.1c14.15-.62,28.61,7.33,43.01,23.64.91,1.03,2.49,1.13,3.53.22,1.04-.91,1.13-2.49.22-3.53ZM1059.16,372.19c-21.32,0-38.66-17.34-38.66-38.66s17.34-38.66,38.66-38.66,38.66,17.34,38.66,38.66-17.34,38.66-38.66,38.66Z"/>
      <path class="cls-19" d="M1256,239.75c-16.29-18.46-32.95-26.92-49.53-25.14l-2.23.24v98.42c-7.31-13.9-21.89-23.41-38.66-23.41-24.07,0-43.66,19.58-43.66,43.66s19.58,43.66,43.66,43.66,43.66-19.58,43.66-43.66v-114.1c14.15-.62,28.61,7.33,43.01,23.64.91,1.03,2.49,1.13,3.53.22,1.04-.91,1.13-2.49.22-3.53ZM1165.59,372.19c-21.32,0-38.66-17.34-38.66-38.66s17.34-38.66,38.66-38.66,38.66,17.34,38.66,38.66-17.34,38.66-38.66,38.66Z"/>
    </g>
    <g>
      <g>
        <path class="cls-19" d="M2028.18,323.37l-128.47-29.87,6.92-29.78c.82-3.51,2.95-6.5,6.02-8.41,3.06-1.91,6.68-2.51,10.2-1.69l125.97,29.29-20.64,40.46ZM1905.71,289.77l119.79,27.85,15.96-31.28-119.75-27.84c-2.21-.51-4.49-.14-6.42,1.06-1.93,1.2-3.27,3.08-3.79,5.29l-5.79,24.91Z"/>
        <path class="cls-19" d="M2011.29,329.15c-.93,0-1.87-.11-2.8-.32l-99.04-23.02c-6.59-1.53-10.71-8.14-9.17-14.73l.57-2.44,122.94,28.58-.57,2.44c-.74,3.19-2.68,5.9-5.47,7.64-1.97,1.23-4.2,1.86-6.46,1.86ZM1905.01,294.74c.37,2.94,2.52,5.48,5.57,6.19l99.04,23.02c1.89.44,3.84.12,5.49-.91.91-.57,1.67-1.32,2.24-2.19l-112.34-26.12Z"/>
      </g>
      <path class="cls-19" d="M1933.56,348.26h-58.63v-7h58.63c2.3,0,4.48-1.23,5.66-3.2l15.09-25.03,5.99,3.61-15.09,25.03c-2.45,4.06-6.92,6.58-11.66,6.58Z"/>
      <path class="cls-19" d="M1871.77,377.19c-4.59,0-8.33-3.74-8.33-8.33v-48.19c0-4.59,3.74-8.33,8.33-8.33s8.33,3.74,8.33,8.33v48.19c0,4.59-3.74,8.33-8.33,8.33ZM1871.77,317.33c-1.84,0-3.33,1.49-3.33,3.33v48.19c0,1.84,1.49,3.33,3.33,3.33s3.33-1.49,3.33-3.33v-48.19c0-1.84-1.49-3.33-3.33-3.33Z"/>
      <rect class="cls-19" x="1940.18" y="256.84" width="5" height="29.92" transform="translate(1278.81 2117.65) rotate(-78.18)"/>
    </g>
    <g>
      <g>
        <g>
          <path class="cls-19" d="M2386.04,194.8c-9.03-10.59-22.16-16.67-36.03-16.67s-26.9,6.03-35.92,16.53l-.26.31,2.45,2.09.26-.3c8.41-9.79,20.61-15.4,33.47-15.4s25.17,5.66,33.58,15.54l.26.31,2.45-2.09-.26-.31Z"/>
          <path class="cls-19" d="M2350.01,188.38c-10.8,0-21.05,4.71-28.12,12.92l-.26.31,2.45,2.09.26-.3c6.46-7.49,15.82-11.79,25.67-11.79s19.32,4.35,25.78,11.93l.26.31,2.45-2.09-.26-.31c-7.07-8.3-17.36-13.06-28.23-13.06Z"/>
          <path class="cls-19" d="M2350.01,198.64c-7.79,0-15.2,3.39-20.31,9.31l-.27.31,2.45,2.08.26-.3c4.5-5.2,11.02-8.18,17.87-8.18s13.47,3.03,17.98,8.32l.26.31,2.45-2.09-.26-.31c-5.12-6-12.56-9.45-20.43-9.45Z"/>
          <path class="cls-19" d="M2350.01,208.89c-4.79,0-9.35,2.08-12.51,5.7l-.27.31,2.45,2.08.26-.3c2.54-2.91,6.21-4.58,10.07-4.58s7.63,1.72,10.17,4.71l.26.31,2.45-2.09-.26-.31c-3.16-3.71-7.77-5.84-12.62-5.84Z"/>
        </g>
        <circle class="cls-19" cx="2350.07" cy="222.4" r="4.8"/>
      </g>
      <g>
        <g>
          <path class="cls-19" d="M2404.55,244.78h-12.78v-9.31h-94.72l14.43,26.39v80.18c0,4.81,3.91,8.72,8.72,8.72h62.84c4.81,0,8.72-3.91,8.72-8.72v-90.26h12.78c1.59,0,2.88,1.29,2.88,2.88v38.45h7v-38.45c0-5.45-4.43-9.88-9.88-9.88ZM2386.77,342.04c0,2.05-1.67,3.72-3.72,3.72h-62.84c-2.05,0-3.72-1.67-3.72-3.72v-81.46l-11-20.11h81.28v101.57Z"/>
          <path class="cls-19" d="M2350.16,337.33c-4.05,0-7.35-3.3-7.35-7.35v-67.99c0-4.05,3.3-7.35,7.35-7.35s7.35,3.3,7.35,7.35v67.99c0,4.05-3.3,7.35-7.35,7.35ZM2350.16,259.65c-1.3,0-2.35,1.05-2.35,2.35v67.99c0,1.3,1.05,2.35,2.35,2.35s2.35-1.05,2.35-2.35v-67.99c0-1.3-1.05-2.35-2.35-2.35Z"/>
        </g>
        <g>
          <path class="cls-19" d="M2397.53,377.19h-91.81v-24.96h91.81v24.96ZM2310.72,372.19h81.81v-14.96h-81.81v14.96Z"/>
          <circle class="cls-19" cx="2351.62" cy="364.71" r="4.89"/>
        </g>
      </g>
    </g>
    <g>
      <path class="cls-19" d="M600.22,344.78c.56-1.58,2.06-2.64,3.71-2.64h11.81c2.46,0,4.4,1.99,4.44,4.54.06,4.54,3.79,8.23,8.33,8.23h8.65c4.61,0,8.27-3.68,8.33-8.39.03-2.41,2.02-4.38,4.44-4.38h17.75c2.45,0,4.44,1.99,4.44,4.44v18.75c0,4.59,3.74,8.33,8.33,8.33h8.65c4.59,0,8.33-3.74,8.33-8.33v-18.75c0-2.45,1.99-4.44,4.44-4.44h19.56c2.45,0,4.44,1.99,4.44,4.44v18.75c0,4.59,3.74,8.33,8.33,8.33h8.65c4.59,0,8.33-3.74,8.33-8.33v-18.75c0-2.45,1.99-4.44,4.44-4.44,6.43,0,11.66-5.23,11.66-11.66v-4.24c0-6.43-5.23-11.66-11.66-11.66h-142.72c-6.53,0-12.54-3.6-15.68-9.4-8.75-16.18-25.6-26-43.99-25.63-25.92.52-47.82,22.9-47.82,48.85v.47c.13,12.94,5.27,25.08,14.47,34.19,9.2,9.12,21.4,14.14,34.36,14.14,20.59,0,39.07-13.02,45.99-32.4ZM509.29,328.39c0-23.89,20.15-44.47,44-44.95.31,0,.62,0,.93,0,16.53,0,31.69,9.04,39.56,23.6,3.82,7.06,11.14,11.45,19.1,11.45h142.72c4.28,0,7.77,3.48,7.77,7.77v4.24c0,4.28-3.48,7.77-7.77,7.77-4.59,0-8.33,3.74-8.33,8.33v18.75c0,2.45-1.99,4.44-4.44,4.44h-8.65c-2.45,0-4.44-1.99-4.44-4.44v-18.75c0-4.59-3.74-8.33-8.33-8.33h-19.56c-4.59,0-8.33,3.74-8.33,8.33v18.75c0,2.45-1.99,4.44-4.44,4.44h-8.65c-2.45,0-4.44-1.99-4.44-4.44v-18.75c0-4.59-3.74-8.33-8.33-8.33h-17.75c-4.54,0-8.28,3.69-8.33,8.23-.03,2.55-1.98,4.54-4.44,4.54h-8.65c-2.42,0-4.41-1.96-4.44-4.38-.06-4.7-3.72-8.39-8.33-8.39h-11.81c-3.3,0-6.27,2.1-7.38,5.23-6.37,17.84-23.38,29.82-42.33,29.82-24.53,0-44.68-19.95-44.93-44.47v-.43Z"/>
      <path class="cls-19" d="M568.55,328.36c0-7.9-6.43-14.33-14.33-14.33s-14.33,6.43-14.33,14.33,6.43,14.33,14.33,14.33,14.33-6.43,14.33-14.33ZM564.66,328.36c0,5.75-4.68,10.43-10.43,10.43s-10.43-4.68-10.43-10.43,4.68-10.43,10.43-10.43,10.43,4.68,10.43,10.43Z"/>
    </g>
  </g>
  <g id="stairs">
    <g class="cls-17">
      <path class="cls-19" d="M1618.58,1574.18h-237.17c-1.38,0-2.5-1.12-2.5-2.5s1.12-2.5,2.5-2.5h237.17c1.38,0,2.5,1.12,2.5,2.5s-1.12,2.5-2.5,2.5Z"/>
      <path class="cls-19" d="M1641.87,1595.77h-283.74c-1.38,0-2.5-1.12-2.5-2.5s1.12-2.5,2.5-2.5h283.74c1.38,0,2.5,1.12,2.5,2.5s-1.12,2.5-2.5,2.5Z"/>
      <path class="cls-19" d="M1665.15,1617.36h-330.3c-1.38,0-2.5-1.12-2.5-2.5s1.12-2.5,2.5-2.5h330.3c1.38,0,2.5,1.12,2.5,2.5s-1.12,2.5-2.5,2.5Z"/>
      <path class="cls-19" d="M1688.44,1638.96h-376.87c-1.38,0-2.5-1.12-2.5-2.5s1.12-2.5,2.5-2.5h376.87c1.38,0,2.5,1.12,2.5,2.5s-1.12,2.5-2.5,2.5Z"/>
    </g>
    <g>
      <g class="cls-17">
        <path class="cls-19" d="M1078.08,1664.51h-338.61c-1.38,0-2.5-1.12-2.5-2.5s1.12-2.5,2.5-2.5h338.61c1.38,0,2.5,1.12,2.5,2.5s-1.12,2.5-2.5,2.5Z"/>
        <path class="cls-19" d="M1111.32,1686.1h-405.1c-1.38,0-2.5-1.12-2.5-2.5s1.12-2.5,2.5-2.5h405.1c1.38,0,2.5,1.12,2.5,2.5s-1.12,2.5-2.5,2.5Z"/>
        <path class="cls-19" d="M1144.56,1707.69h-471.58c-1.38,0-2.5-1.12-2.5-2.5s1.12-2.5,2.5-2.5h471.58c1.38,0,2.5,1.12,2.5,2.5s-1.12,2.5-2.5,2.5Z"/>
        <path class="cls-19" d="M1177.81,1729.29h-538.07c-1.38,0-2.5-1.12-2.5-2.5s1.12-2.5,2.5-2.5h538.07c1.38,0,2.5,1.12,2.5,2.5s-1.12,2.5-2.5,2.5Z"/>
      </g>
      <g class="cls-17">
        <path class="cls-19" d="M2260.53,1664.51h-338.61c-1.38,0-2.5-1.12-2.5-2.5s1.12-2.5,2.5-2.5h338.61c1.38,0,2.5,1.12,2.5,2.5s-1.12,2.5-2.5,2.5Z"/>
        <path class="cls-19" d="M2293.78,1686.1h-405.1c-1.38,0-2.5-1.12-2.5-2.5s1.12-2.5,2.5-2.5h405.1c1.38,0,2.5,1.12,2.5,2.5s-1.12,2.5-2.5,2.5Z"/>
        <path class="cls-19" d="M2327.02,1707.69h-471.58c-1.38,0-2.5-1.12-2.5-2.5s1.12-2.5,2.5-2.5h471.58c1.38,0,2.5,1.12,2.5,2.5s-1.12,2.5-2.5,2.5Z"/>
        <path class="cls-19" d="M2360.26,1729.29h-538.07c-1.38,0-2.5-1.12-2.5-2.5s1.12-2.5,2.5-2.5h538.07c1.38,0,2.5,1.12,2.5,2.5s-1.12,2.5-2.5,2.5Z"/>
      </g>
    </g>
  </g>
  <g id="tree">
    <g>
      <path class="cls-19" d="M2556.28,1509.83c-30.16,0-58.48-13.34-77.68-36.6s-26.95-53.59-21.24-83.2l26.63-138.18c6.67-34.59,37.07-59.69,72.29-59.69s65.62,25.1,72.29,59.69l26.63,138.18c5.71,29.62-2.03,59.94-21.24,83.2s-47.52,36.6-77.68,36.6ZM2556.28,1197.16c-32.83,0-61.17,23.4-67.38,55.64l-26.63,138.18c-5.42,28.15,1.93,56.97,20.18,79.07s45.16,34.78,73.83,34.78,55.57-12.68,73.83-34.78,25.61-50.93,20.18-79.07l-26.63-138.18c-6.21-32.24-34.55-55.64-67.38-55.64Z"/>
      <path class="cls-19" d="M2556.28,1645.01c-1.38,0-2.5-1.12-2.5-2.5v-334.9c0-1.38,1.12-2.5,2.5-2.5s2.5,1.12,2.5,2.5v334.9c0,1.38-1.12,2.5-2.5,2.5Z"/>
      <path class="cls-19" d="M2556.27,1390.83c-.51,0-1.03-.16-1.48-.49-1.11-.82-1.35-2.38-.53-3.5l46.21-62.73c.82-1.11,2.38-1.35,3.5-.53s1.35,2.38.53,3.5l-46.21,62.73c-.49.67-1.25,1.02-2.01,1.02Z"/>
      <path class="cls-19" d="M2556.27,1431.53c-.5,0-1-.15-1.43-.45l-57.96-40.69c-1.13-.79-1.4-2.35-.61-3.48.79-1.13,2.35-1.4,3.48-.61l57.96,40.69c1.13.79,1.4,2.35.61,3.48-.49.69-1.26,1.06-2.05,1.06Z"/>
    </g>
    <g>
      <path class="cls-19" d="M439.64,1533.01c-24.09,0-46.7-10.65-62.03-29.23-15.34-18.57-21.52-42.79-16.96-66.44l21.13-109.64c5.33-27.68,29.67-47.78,57.86-47.78s52.53,20.09,57.86,47.78l21.13,109.64c4.56,23.65-1.62,47.87-16.96,66.44-15.34,18.57-37.95,29.23-62.03,29.23ZM439.64,1284.93c-25.8,0-48.07,18.39-52.95,43.72l-21.13,109.64c-4.27,22.18,1.52,44.89,15.91,62.31,14.38,17.42,35.59,27.41,58.18,27.41s43.79-9.99,58.18-27.41c14.38-17.42,20.18-40.13,15.91-62.31l-21.13-109.64c-4.88-25.33-27.15-43.72-52.95-43.72Z"/>
      <path class="cls-19" d="M439.64,1640.26c-1.38,0-2.5-1.12-2.5-2.5v-265.71c0-1.38,1.12-2.5,2.5-2.5s2.5,1.12,2.5,2.5v265.71c0,1.38-1.12,2.5-2.5,2.5Z"/>
      <path class="cls-19" d="M439.64,1438.59c-.77,0-1.52-.35-2.01-1.02l-36.67-49.77c-.82-1.11-.58-2.68.53-3.5,1.11-.82,2.68-.58,3.5.53l36.67,49.77c.82,1.11.58,2.68-.53,3.5-.45.33-.97.49-1.48.49Z"/>
      <path class="cls-19" d="M439.64,1470.88c-.79,0-1.56-.37-2.05-1.06-.79-1.13-.52-2.69.61-3.48l45.98-32.29c1.13-.79,2.69-.52,3.48.61.79,1.13.52,2.69-.61,3.48l-45.98,32.29c-.44.31-.94.45-1.43.45Z"/>
    </g>
  </g>
</svg>